<?xml version="1.0" encoding="UTF-8" standalone="no" ?>
<!DOCTYPE svg PUBLIC "-//W3C//DTD SVG 1.1//EN" "http://www.w3.org/Graphics/SVG/1.1/DTD/svg11.dtd">
<svg xmlns="http://www.w3.org/2000/svg" xmlns:xlink="http://www.w3.org/1999/xlink" version="1.1" width="40" height="40" viewBox="0 0 40 40" xml:space="preserve">
<desc>Created with Fabric.js 4.6.0</desc>
<defs>
</defs>
<g transform="matrix(1.31 0 0 1.32 19.5 20)" id="4s6Iyk24UQA8l0RNkm1oV"  >
<path style="stroke: none; stroke-width: 1; stroke-dasharray: none; stroke-linecap: butt; stroke-dashoffset: 0; stroke-linejoin: miter; stroke-miterlimit: 4; fill: rgb(33,28,30); fill-rule: nonzero; opacity: 1;" vector-effect="non-scaling-stroke"  transform=" translate(-30.46, -12.08)" d="M 25.519531 9.117188 C 25.183594 9.292969 24.847656 9.464844 24.515625 9.640625 C 23.777344 7.648438 23.800781 5.660156 24.433594 3.632813 C 24.765625 3.597656 25.117188 3.558594 25.496094 3.515625 C 25.28125 3.207031 25.078125 2.910156 24.855469 2.585938 C 24.960938 2.417969 25.054688 2.226563 25.175781 2.058594 C 25.417969 1.71875 25.667969 1.382813 25.929688 1.058594 C 26.109375 0.832031 26.316406 0.621094 26.507813 0.40625 C 26.632813 0.269531 26.757813 0.132813 26.914063 0.0078125 C 26.902344 0.175781 26.90625 0.347656 26.878906 0.515625 C 26.824219 0.839844 26.851563 1.160156 26.902344 1.476563 C 26.925781 1.644531 26.921875 1.816406 26.96875 1.976563 C 27.039063 2.234375 27.117188 2.5 27.242188 2.734375 C 27.304688 2.859375 27.472656 2.921875 27.585938 3.023438 C 27.972656 3.367188 28.445313 3.507813 28.96875 3.601563 C 29.003906 3.742188 29.046875 3.90625 29.089844 4.085938 C 29.171875 4.097656 29.257813 4.117188 29.351563 4.136719 C 29.375 3.867188 29.398438 3.601563 29.417969 3.359375 C 29.871094 3.085938 30.054688 2.664063 30.121094 2.164063 L 30.804688 2.164063 C 30.878906 2.644531 31.050781 3.078125 31.515625 3.359375 C 31.535156 3.597656 31.554688 3.859375 31.578125 4.132813 C 31.671875 4.117188 31.757813 4.101563 31.84375 4.085938 C 31.886719 3.914063 31.925781 3.75 31.964844 3.59375 C 32.371094 3.546875 32.738281 3.425781 33.070313 3.226563 C 33.28125 3.101563 33.464844 2.933594 33.660156 2.78125 C 33.671875 2.769531 33.691406 2.761719 33.695313 2.746094 C 33.789063 2.503906 33.90625 2.265625 33.960938 2.011719 C 34.03125 1.683594 34.054688 1.347656 34.09375 1.011719 C 34.097656 0.960938 34.089844 0.910156 34.085938 0.855469 C 34.0625 0.574219 34.039063 0.292969 34.015625 0.0117188 C 34.023438 0.0078125 34.035156 0 34.046875 -0.00390625 C 34.203125 0.167969 34.355469 0.339844 34.515625 0.507813 C 35 1.015625 35.40625 1.585938 35.820313 2.148438 C 35.886719 2.230469 35.925781 2.335938 35.980469 2.425781 C 36.378906 3.0625 36.5625 3.777344 36.734375 4.496094 C 36.84375 4.964844 36.894531 5.4375 36.9375 5.914063 C 36.941406 5.964844 36.953125 6.015625 36.964844 6.082031 C 36.542969 6.226563 36.125 6.378906 35.707031 6.523438 C 35.707031 6.535156 35.707031 6.542969 35.707031 6.550781 C 36.125 6.628906 36.539063 6.707031 36.96875 6.789063 C 36.957031 6.957031 36.949219 7.109375 36.933594 7.265625 C 36.914063 7.507813 36.898438 7.753906 36.859375 8 C 36.820313 8.246094 36.761719 8.492188 36.695313 8.734375 C 36.613281 9.050781 36.507813 9.359375 36.429688 9.675781 C 36.359375 9.964844 36.199219 10.199219 36.066406 10.453125 C 35.910156 10.75 35.75 11.046875 35.574219 11.332031 C 35.476563 11.488281 35.347656 11.628906 35.226563 11.765625 C 34.878906 12.171875 34.527344 12.570313 34.179688 12.972656 C 34.140625 13.015625 34.101563 13.066406 34.066406 13.113281 C 34.050781 13.105469 34.03125 13.097656 34.015625 13.089844 C 34.027344 12.960938 34.019531 12.828125 34.054688 12.703125 C 34.152344 12.34375 34.125 11.984375 34.113281 11.617188 C 34.09375 11.113281 33.914063 10.667969 33.726563 10.222656 C 33.640625 10.023438 33.476563 9.855469 33.347656 9.671875 C 33.339844 9.664063 33.328125 9.652344 33.320313 9.640625 C 33.164063 9.328125 32.871094 9.277344 32.5625 9.265625 C 32.390625 9.257813 32.214844 9.261719 32.03125 9.261719 C 31.976563 9.171875 31.921875 9.078125 31.84375 8.941406 C 31.699219 9.242188 31.570313 9.519531 31.433594 9.789063 C 31.371094 9.90625 31.292969 10.015625 31.21875 10.125 C 31.179688 10.183594 31.128906 10.238281 31.089844 10.285156 C 31.105469 11.5 31.125 12.699219 31.144531 13.902344 C 31.273438 14.023438 31.398438 14.136719 31.523438 14.253906 C 31.507813 14.28125 31.496094 14.304688 31.480469 14.320313 C 31.277344 14.527344 31.269531 14.792969 31.261719 15.054688 C 31.246094 15.835938 31.230469 16.617188 31.226563 17.398438 C 31.214844 19.347656 31.207031 21.296875 31.199219 23.246094 C 31.199219 23.316406 31.195313 23.390625 31.191406 23.480469 C 31.242188 23.546875 31.300781 23.621094 31.371094 23.71875 C 31.269531 23.742188 31.179688 23.765625 31.074219 23.792969 C 31.011719 23.898438 30.941406 24.015625 30.851563 24.164063 L 30.078125 24.164063 C 29.992188 24.019531 29.925781 23.90625 29.859375 23.792969 C 29.761719 23.769531 29.667969 23.746094 29.53125 23.710938 C 29.800781 23.550781 29.730469 23.3125 29.730469 23.097656 C 29.726563 21.410156 29.726563 19.722656 29.71875 18.03125 C 29.714844 17.179688 29.710938 16.320313 29.695313 15.46875 C 29.691406 15.199219 29.664063 14.929688 29.644531 14.664063 C 29.640625 14.625 29.621094 14.582031 29.597656 14.546875 C 29.539063 14.453125 29.476563 14.359375 29.40625 14.257813 C 29.53125 14.140625 29.652344 14.027344 29.789063 13.902344 C 29.808594 12.710938 29.824219 11.511719 29.84375 10.289063 C 29.800781 10.230469 29.753906 10.148438 29.6875 10.09375 C 29.484375 9.910156 29.484375 9.625 29.335938 9.414063 C 29.242188 9.277344 29.171875 9.125 29.078125 8.964844 C 29.015625 9.070313 28.960938 9.167969 28.902344 9.261719 C 28.710938 9.261719 28.519531 9.261719 28.328125 9.261719 C 28.269531 9.265625 28.210938 9.28125 28.152344 9.285156 C 27.808594 9.308594 27.671875 9.582031 27.480469 9.804688 C 27.164063 10.179688 27.042969 10.636719 26.882813 11.078125 C 26.839844 11.195313 26.847656 11.328125 26.835938 11.449219 C 26.816406 11.640625 26.78125 11.828125 26.789063 12.015625 C 26.796875 12.238281 26.84375 12.460938 26.875 12.679688 C 26.890625 12.8125 26.90625 12.949219 26.921875 13.085938 C 26.910156 13.089844 26.894531 13.097656 26.882813 13.101563 C 26.78125 12.992188 26.679688 12.886719 26.582031 12.773438 C 26.320313 12.472656 26.078125 12.15625 25.800781 11.875 C 25.4375 11.507813 25.203125 11.0625 24.960938 10.621094 C 24.925781 10.558594 24.890625 10.496094 24.855469 10.425781 C 25.066406 10.03125 25.277344 9.640625 25.488281 9.246094 C 25.507813 9.207031 25.507813 9.160156 25.519531 9.117188 C 25.527344 9.121094 25.535156 9.128906 25.523438 9.121094 C 25.539063 9.121094 25.527344 9.121094 25.519531 9.117188" stroke-linecap="round" />
</g>
</svg>