<?xml version="1.0" encoding="UTF-8" standalone="no" ?>
<!DOCTYPE svg PUBLIC "-//W3C//DTD SVG 1.1//EN" "http://www.w3.org/Graphics/SVG/1.1/DTD/svg11.dtd">
<svg xmlns="http://www.w3.org/2000/svg" xmlns:xlink="http://www.w3.org/1999/xlink" version="1.1" width="40" height="40" viewBox="0 0 40 40" xml:space="preserve">
<desc>Created with Fabric.js 4.6.0</desc>
<defs>
</defs>
<g transform="matrix(1.39 0 0 1.32 20 20)" id="ushd2fqxq9eRHhc8P6ywG"  >
<path style="stroke: none; stroke-width: 1; stroke-dasharray: none; stroke-linecap: butt; stroke-dashoffset: 0; stroke-linejoin: miter; stroke-miterlimit: 4; fill: rgb(33,28,30); fill-rule: nonzero; opacity: 1;" vector-effect="non-scaling-stroke"  transform=" translate(-89.42, -12.08)" d="M 91.585938 18.253906 C 91.628906 18.3125 91.617188 18.363281 91.648438 18.417969 C 91.855469 18.738281 91.949219 19.351563 91.671875 19.660156 C 91.488281 19.871094 91.335938 20.070313 91.136719 20.265625 C 90.960938 20.4375 90.761719 20.578125 90.652344 20.8125 C 90.554688 21.027344 90.5625 21.25 90.550781 21.476563 C 90.539063 21.742188 90.671875 21.917969 90.871094 22.066406 C 91.054688 22.203125 91.273438 22.210938 91.496094 22.203125 C 91.710938 22.199219 91.875 22.042969 91.886719 21.824219 C 91.773438 21.660156 91.597656 21.636719 91.496094 21.773438 C 91.492188 21.816406 91.488281 21.863281 91.480469 21.941406 C 91.394531 21.945313 91.308594 21.949219 91.222656 21.953125 C 91.023438 21.953125 90.882813 21.859375 90.824219 21.671875 C 90.722656 21.328125 90.75 21.003906 91 20.730469 C 91.191406 20.519531 91.386719 20.316406 91.589844 20.113281 C 91.789063 19.917969 91.917969 19.691406 91.929688 19.40625 C 91.9375 19.246094 91.949219 19.089844 91.953125 18.929688 C 91.964844 18.550781 91.773438 18.277344 91.496094 18.050781 C 91.476563 18.03125 91.445313 18.023438 91.394531 18 C 91.445313 18.117188 91.484375 18.207031 91.527344 18.300781 C 91.550781 18.28125 91.566406 18.269531 91.585938 18.253906 M 87.472656 18.027344 C 87.277344 18.113281 87.148438 18.261719 87.042969 18.4375 C 86.910156 18.664063 86.925781 18.914063 86.925781 19.164063 C 86.925781 19.554688 87.035156 19.894531 87.335938 20.167969 C 87.53125 20.339844 87.703125 20.535156 87.878906 20.730469 C 88.132813 21.011719 88.160156 21.347656 88.046875 21.691406 C 87.960938 21.945313 87.585938 22.058594 87.394531 21.898438 C 87.390625 21.855469 87.386719 21.808594 87.382813 21.765625 C 87.265625 21.636719 87.089844 21.667969 86.988281 21.839844 C 86.996094 21.976563 87.078125 22.070313 87.183594 22.148438 C 87.316406 22.25 87.46875 22.203125 87.613281 22.199219 C 87.917969 22.195313 88.257813 21.949219 88.304688 21.667969 C 88.351563 21.398438 88.347656 21.121094 88.246094 20.859375 C 88.144531 20.601563 87.941406 20.429688 87.734375 20.265625 C 87.511719 20.085938 87.363281 19.878906 87.195313 19.648438 C 87.003906 19.398438 87.023438 19.117188 87.066406 18.835938 C 87.101563 18.613281 87.160156 18.429688 87.292969 18.253906 C 87.320313 18.273438 87.335938 18.28125 87.355469 18.296875 C 87.398438 18.199219 87.433594 18.113281 87.472656 18.027344 M 90.726563 22.78125 L 88.085938 22.78125 L 88.085938 23.34375 L 90.726563 23.34375 Z M 89.414063 19.882813 C 90.109375 19.898438 90.695313 19.3125 90.714844 18.617188 C 90.734375 17.871094 90.117188 17.292969 89.441406 17.28125 C 88.710938 17.269531 88.121094 17.878906 88.113281 18.570313 C 88.109375 19.285156 88.707031 19.898438 89.414063 19.882813 M 88.265625 3.082031 L 88.027344 3.082031 C 88.03125 3.132813 88.039063 3.179688 88.042969 3.242188 C 88.019531 3.265625 87.984375 3.292969 87.9375 3.328125 C 87.863281 3.199219 87.796875 3.082031 87.726563 2.957031 C 87.761719 2.871094 87.796875 2.789063 87.84375 2.683594 C 87.917969 2.765625 87.980469 2.832031 88.035156 2.894531 L 88.257813 2.894531 L 88.257813 2.402344 L 88.121094 2.402344 C 88.125 2.453125 88.128906 2.503906 88.136719 2.5625 C 88.113281 2.582031 88.082031 2.609375 88.050781 2.636719 C 87.84375 2.453125 87.804688 2.257813 87.941406 2.007813 C 88.003906 2.078125 88.066406 2.144531 88.128906 2.214844 L 88.28125 2.214844 C 88.289063 2.054688 88.296875 1.894531 88.304688 1.722656 L 87.859375 1.722656 C 87.867188 1.777344 87.875 1.824219 87.882813 1.882813 C 87.855469 1.902344 87.824219 1.929688 87.777344 1.96875 C 87.703125 1.839844 87.632813 1.722656 87.5625 1.597656 C 87.597656 1.511719 87.636719 1.425781 87.679688 1.324219 C 87.753906 1.40625 87.8125 1.472656 87.871094 1.535156 L 88.300781 1.535156 C 88.308594 1.394531 88.316406 1.257813 88.328125 1.113281 L 88.042969 1.113281 C 88.054688 1.167969 88.058594 1.210938 88.070313 1.273438 C 88.042969 1.292969 88.007813 1.320313 87.976563 1.347656 C 87.746094 1.101563 87.722656 0.964844 87.878906 0.71875 C 87.941406 0.792969 88 0.859375 88.058594 0.925781 L 88.296875 0.925781 C 88.367188 0.589844 88.597656 0.394531 88.863281 0.238281 C 88.96875 0.179688 89.082031 0.136719 89.195313 0.0898438 C 89.265625 0.0585938 89.335938 0.0273438 89.40625 -0.00390625 C 89.808594 0.140625 90.199219 0.304688 90.453125 0.675781 C 90.5 0.742188 90.507813 0.832031 90.535156 0.925781 L 90.777344 0.925781 C 90.828125 0.863281 90.886719 0.800781 90.960938 0.714844 C 91.003906 0.8125 91.042969 0.894531 91.082031 0.984375 C 91.011719 1.105469 90.945313 1.226563 90.871094 1.359375 C 90.828125 1.324219 90.792969 1.300781 90.761719 1.273438 C 90.773438 1.222656 90.777344 1.171875 90.789063 1.113281 L 90.503906 1.113281 C 90.511719 1.253906 90.523438 1.386719 90.527344 1.53125 L 90.964844 1.53125 C 91.011719 1.476563 91.074219 1.40625 91.148438 1.324219 C 91.195313 1.425781 91.230469 1.507813 91.269531 1.59375 C 91.199219 1.71875 91.132813 1.835938 91.058594 1.96875 C 91.015625 1.933594 90.980469 1.90625 90.949219 1.886719 C 90.957031 1.828125 90.964844 1.777344 90.972656 1.722656 L 90.550781 1.722656 L 90.550781 2.214844 C 90.605469 2.21875 90.648438 2.21875 90.699219 2.222656 C 90.753906 2.15625 90.816406 2.089844 90.871094 2.023438 C 91.039063 2.179688 91.015625 2.371094 90.792969 2.636719 C 90.777344 2.625 90.753906 2.613281 90.738281 2.601563 C 90.722656 2.589844 90.707031 2.574219 90.691406 2.5625 C 90.699219 2.511719 90.707031 2.464844 90.71875 2.402344 L 90.574219 2.402344 L 90.574219 2.894531 L 90.796875 2.894531 C 90.851563 2.835938 90.910156 2.769531 90.984375 2.683594 C 91.027344 2.78125 91.066406 2.863281 91.105469 2.953125 C 91.039063 3.074219 90.96875 3.195313 90.894531 3.328125 C 90.851563 3.296875 90.816406 3.269531 90.785156 3.246094 C 90.792969 3.191406 90.800781 3.144531 90.8125 3.085938 L 90.589844 3.085938 C 90.585938 3.105469 90.578125 3.121094 90.582031 3.140625 C 90.613281 3.355469 90.523438 3.53125 90.410156 3.707031 C 90.300781 3.871094 90.199219 4.042969 90.105469 4.21875 C 90.066406 4.292969 90.042969 4.386719 90.046875 4.472656 C 90.050781 4.761719 90.074219 5.046875 90.085938 5.335938 C 90.097656 5.6875 90.101563 6.039063 90.109375 6.390625 C 90.132813 7.105469 90.160156 7.816406 90.183594 8.53125 C 90.199219 8.949219 90.214844 9.367188 90.226563 9.785156 C 90.253906 10.496094 90.277344 11.210938 90.300781 11.925781 C 90.316406 12.351563 90.332031 12.773438 90.34375 13.199219 C 90.347656 13.332031 90.375 13.449219 90.453125 13.5625 C 90.84375 14.164063 91.238281 14.761719 91.613281 15.371094 C 91.75 15.597656 91.839844 15.847656 91.929688 16.097656 C 92.171875 16.734375 92.414063 17.378906 92.628906 18.027344 C 92.71875 18.296875 92.75 18.589844 92.800781 18.871094 C 92.878906 19.292969 92.953125 19.710938 93.019531 20.132813 C 93.035156 20.242188 93.019531 20.355469 93.007813 20.46875 C 92.964844 20.851563 92.917969 21.230469 92.875 21.613281 C 92.84375 21.871094 92.800781 22.113281 92.667969 22.347656 C 92.441406 22.734375 92.246094 23.144531 92.03125 23.542969 C 91.996094 23.605469 91.925781 23.652344 91.871094 23.699219 C 91.847656 23.722656 91.816406 23.726563 91.789063 23.742188 C 91.464844 23.957031 91.085938 23.992188 90.71875 24.066406 C 90.050781 24.203125 89.382813 24.15625 88.714844 24.148438 C 88.441406 24.148438 88.171875 24.050781 87.898438 24.027344 C 87.546875 24 87.242188 23.851563 86.941406 23.6875 C 86.890625 23.660156 86.839844 23.617188 86.8125 23.566406 C 86.5625 23.101563 86.324219 22.632813 86.074219 22.171875 C 85.980469 21.992188 85.988281 21.800781 85.960938 21.617188 C 85.90625 21.234375 85.878906 20.851563 85.820313 20.472656 C 85.78125 20.226563 85.832031 19.992188 85.871094 19.753906 C 85.960938 19.25 86.042969 18.742188 86.148438 18.242188 C 86.195313 18.015625 86.28125 17.796875 86.359375 17.578125 C 86.597656 16.917969 86.839844 16.261719 87.082031 15.605469 C 87.121094 15.503906 87.183594 15.414063 87.246094 15.320313 C 87.625 14.730469 88.011719 14.136719 88.386719 13.542969 C 88.441406 13.453125 88.476563 13.339844 88.480469 13.238281 C 88.507813 12.640625 88.515625 12.042969 88.535156 11.445313 C 88.554688 10.765625 88.582031 10.082031 88.605469 9.398438 C 88.621094 8.953125 88.636719 8.507813 88.652344 8.0625 C 88.675781 7.378906 88.699219 6.691406 88.722656 6.003906 C 88.738281 5.554688 88.730469 5.105469 88.777344 4.660156 C 88.804688 4.398438 88.738281 4.195313 88.597656 3.996094 C 88.5625 3.945313 88.535156 3.890625 88.503906 3.835938 C 88.367188 3.605469 88.179688 3.398438 88.265625 3.082031" stroke-linecap="round" />
</g>
</svg>