<?xml version="1.0" encoding="UTF-8" standalone="no" ?>
<!DOCTYPE svg PUBLIC "-//W3C//DTD SVG 1.1//EN" "http://www.w3.org/Graphics/SVG/1.1/DTD/svg11.dtd">
<svg xmlns="http://www.w3.org/2000/svg" xmlns:xlink="http://www.w3.org/1999/xlink" version="1.1" width="150" height="150" viewBox="0 0 150 150" xml:space="preserve">
<desc>Created with Fabric.js 3.6.3</desc>
<defs>
</defs>
<g transform="matrix(1 0 0 1 4.5 -109.33)" style=""  >
		<text xml:space="preserve" font-family="'Open Sans', sans-serif" font-size="18" font-style="normal" font-weight="normal" style="stroke: none; stroke-width: 1; stroke-dasharray: none; stroke-linecap: butt; stroke-dashoffset: 0; stroke-linejoin: miter; stroke-miterlimit: 4; fill: rgb(0,0,0); fill-rule: nonzero; opacity: 1; white-space: pre;" ></text>
</g>
<g transform="matrix(1.64 0 0 1.64 42.99 450.1)"  >
<path style="stroke: none; stroke-width: 1; stroke-dasharray: none; stroke-linecap: butt; stroke-dashoffset: 0; stroke-linejoin: miter; stroke-miterlimit: 4; fill: rgb(33,28,30); fill-rule: nonzero; opacity: 1;"  transform=" translate(-199.39, -68.65)" d="M 199.5 68.332031 C 199.449219 68.546875 199.402344 68.761719 199.351563 68.972656 C 199.335938 68.972656 199.320313 68.96875 199.304688 68.964844 C 199.296875 68.871094 199.285156 68.777344 199.269531 68.636719 C 199.332031 68.554688 199.417969 68.445313 199.503906 68.335938" stroke-linecap="round" />
</g>
<g transform="matrix(1.64 0 0 1.64 38.8 449.64)"  >
<path style="stroke: none; stroke-width: 1; stroke-dasharray: none; stroke-linecap: butt; stroke-dashoffset: 0; stroke-linejoin: miter; stroke-miterlimit: 4; fill: rgb(33,28,30); fill-rule: nonzero; opacity: 1;"  transform=" translate(-196.83, -68.38)" d="M 196.859375 68.304688 L 196.859375 68.449219 C 196.851563 68.453125 196.839844 68.453125 196.828125 68.453125 C 196.820313 68.40625 196.8125 68.359375 196.804688 68.3125 C 196.824219 68.308594 196.84375 68.308594 196.859375 68.304688" stroke-linecap="round" />
</g>
<g transform="matrix(1.64 0 0 1.64 192.24 79.81)"  >
<path style="stroke: none; stroke-width: 1; stroke-dasharray: none; stroke-linecap: butt; stroke-dashoffset: 0; stroke-linejoin: miter; stroke-miterlimit: 4; fill: rgb(33,28,30); fill-rule: nonzero; opacity: 1;"  transform=" translate(-198.32, -12.08)" d="M 199.601563 20.417969 C 199.59375 20.414063 199.585938 20.410156 199.578125 20.40625 L 199.558594 20.457031 C 199.5625 20.460938 199.574219 20.464844 199.578125 20.46875 C 199.585938 20.449219 199.59375 20.4375 199.601563 20.417969 M 205.609375 2.003906 C 205.472656 1.976563 205.339844 1.949219 205.203125 1.917969 C 204.828125 1.835938 204.445313 1.75 204.066406 1.660156 C 203.695313 1.574219 203.320313 1.492188 202.949219 1.394531 C 202.535156 1.285156 202.113281 1.261719 201.691406 1.3125 C 201.628906 1.332031 201.570313 1.363281 201.507813 1.367188 C 201.039063 1.390625 200.570313 1.390625 200.105469 1.4375 C 199.785156 1.464844 199.46875 1.542969 199.160156 1.617188 C 198.851563 1.6875 198.542969 1.765625 198.246094 1.867188 C 197.550781 2.105469 196.921875 2.464844 196.375 2.945313 C 195.964844 3.3125 195.644531 3.753906 195.371094 4.230469 C 195.117188 4.675781 194.9375 5.152344 194.839844 5.652344 C 194.746094 6.113281 194.742188 6.578125 194.859375 7.042969 C 195.027344 7.703125 195.328125 8.296875 195.765625 8.808594 C 195.976563 9.058594 196.246094 9.257813 196.496094 9.464844 C 196.78125 9.691406 197.070313 9.90625 197.371094 10.136719 L 197.976563 10.136719 C 198.171875 10.289063 198.179688 10.507813 198.160156 10.738281 C 198.121094 11.128906 198.085938 11.519531 198.046875 11.90625 C 198.039063 12.023438 198.023438 12.136719 198.015625 12.246094 C 198.367188 12.484375 198.429688 12.632813 198.386719 13.152344 C 198.371094 13.382813 198.320313 13.613281 198.316406 13.84375 C 198.3125 14.054688 198.363281 14.265625 198.367188 14.476563 C 198.367188 14.808594 198.34375 15.140625 198.339844 15.476563 C 198.335938 15.894531 198.339844 16.316406 198.335938 16.734375 C 198.328125 17.15625 198.3125 17.574219 198.3125 17.996094 C 198.3125 18.113281 198.363281 18.226563 198.367188 18.34375 C 198.371094 18.46875 198.339844 18.59375 198.339844 18.714844 C 198.347656 19.121094 198.359375 19.527344 198.367188 19.933594 C 198.371094 20.214844 198.371094 20.488281 198.378906 20.769531 C 198.382813 20.988281 198.398438 21.210938 198.410156 21.457031 C 198.796875 21.214844 199.0625 20.890625 199.238281 20.480469 C 199.246094 20.488281 199.257813 20.496094 199.269531 20.503906 C 199.269531 20.496094 199.273438 20.484375 199.269531 20.476563 C 199.171875 20.214844 199.246094 19.984375 199.367188 19.75 C 199.417969 19.648438 199.394531 19.507813 199.40625 19.382813 C 199.414063 19.3125 199.421875 19.242188 199.429688 19.171875 C 199.496094 19.148438 199.554688 19.125 199.609375 19.105469 C 199.65625 18.972656 199.558594 18.917969 199.484375 18.867188 C 199.1875 18.640625 199.039063 18.328125 198.984375 17.972656 C 198.972656 17.890625 199.003906 17.804688 199.015625 17.707031 C 199.234375 17.664063 199.433594 17.726563 199.621094 17.820313 L 199.660156 17.796875 C 199.632813 17.746094 199.621094 17.683594 199.582031 17.644531 C 199.390625 17.4375 199.222656 17.210938 199.199219 16.917969 C 199.1875 16.78125 199.195313 16.636719 199.234375 16.507813 C 199.308594 16.269531 199.570313 16.210938 199.804688 16.359375 C 199.863281 16.398438 199.925781 16.429688 199.984375 16.464844 C 200.078125 16.375 200.117188 16.296875 200.089844 16.183594 C 200.039063 15.945313 199.992188 15.710938 199.976563 15.472656 C 199.949219 15.144531 200.035156 14.828125 200.191406 14.542969 C 200.238281 14.457031 200.339844 14.394531 200.425781 14.347656 C 200.5625 14.273438 200.664063 14.316406 200.746094 14.445313 C 200.800781 14.53125 200.855469 14.621094 200.90625 14.710938 C 201.085938 14.679688 201.117188 14.53125 201.179688 14.421875 C 201.25 14.289063 201.316406 14.15625 201.382813 14.023438 C 201.4375 13.917969 201.496094 13.816406 201.546875 13.703125 C 201.683594 13.402344 201.914063 13.203125 202.214844 13.082031 C 202.359375 13.023438 202.644531 13.148438 202.738281 13.300781 C 202.917969 13.585938 202.984375 13.902344 203.050781 14.222656 C 203.101563 14.472656 203.140625 14.726563 203.164063 14.976563 C 203.175781 15.113281 203.144531 15.253906 203.128906 15.394531 C 203.109375 15.527344 203.140625 15.554688 203.273438 15.554688 C 203.378906 15.550781 203.503906 15.539063 203.585938 15.589844 C 203.671875 15.640625 203.734375 15.753906 203.769531 15.855469 C 203.859375 16.109375 203.785156 16.355469 203.695313 16.597656 C 203.558594 16.976563 203.285156 17.238281 202.96875 17.472656 C 202.796875 17.605469 202.628906 17.746094 202.433594 17.90625 C 202.550781 17.957031 202.628906 17.996094 202.710938 18.027344 C 202.914063 18.101563 202.984375 18.273438 203.019531 18.460938 C 203.058594 18.648438 202.960938 18.792969 202.816406 18.898438 C 202.640625 19.03125 202.453125 19.136719 202.210938 19.132813 C 202.089844 19.128906 201.972656 19.191406 201.851563 19.214844 C 201.683594 19.238281 201.515625 19.25 201.34375 19.273438 C 201.308594 19.28125 201.269531 19.308594 201.21875 19.335938 C 201.308594 19.402344 201.386719 19.464844 201.457031 19.519531 C 201.421875 19.699219 201.324219 19.8125 201.1875 19.898438 C 200.957031 20.050781 200.734375 20.222656 200.496094 20.359375 C 200.273438 20.488281 200.042969 20.597656 199.804688 20.679688 C 199.722656 20.707031 199.605469 20.625 199.511719 20.59375 C 199.414063 20.742188 199.304688 20.917969 199.191406 21.09375 C 199.09375 21.078125 198.539063 21.59375 198.390625 21.847656 C 198.421875 22.023438 198.421875 22.230469 198.488281 22.417969 C 198.589844 22.703125 198.546875 22.980469 198.5 23.257813 C 198.464844 23.449219 198.394531 23.644531 198.300781 23.816406 C 198.214844 23.984375 198.054688 24.089844 197.859375 24.105469 C 197.554688 24.128906 197.25 24.144531 196.945313 24.160156 C 196.921875 24.164063 196.898438 24.160156 196.855469 24.160156 C 196.761719 24.035156 196.667969 23.898438 196.566406 23.769531 C 196.535156 23.730469 196.492188 23.683594 196.445313 23.671875 C 196.191406 23.605469 196.050781 23.394531 195.855469 23.238281 C 195.867188 22.929688 195.863281 22.621094 195.902344 22.320313 C 195.9375 22.09375 195.972656 21.835938 196.230469 21.757813 C 196.585938 21.324219 196.519531 20.839844 196.484375 20.355469 C 196.476563 20.203125 196.5 20.050781 196.503906 19.949219 C 196.054688 19.546875 195.636719 19.171875 195.261719 18.835938 C 195.078125 18.785156 194.941406 18.761719 194.816406 18.714844 C 194.4375 18.570313 194.105469 18.347656 193.796875 18.097656 C 193.734375 18.046875 193.644531 18.023438 193.589844 17.96875 C 193.496094 17.882813 193.417969 17.773438 193.320313 17.65625 C 193.429688 17.574219 193.507813 17.515625 193.625 17.421875 C 193.464844 17.386719 193.339844 17.347656 193.210938 17.328125 C 193.046875 17.300781 192.875 17.28125 192.707031 17.257813 C 192.644531 17.25 192.585938 17.242188 192.523438 17.234375 C 192.238281 17.195313 191.996094 17.078125 191.851563 16.820313 C 191.714844 16.585938 191.828125 16.265625 192.078125 16.152344 C 192.164063 16.109375 192.257813 16.070313 192.371094 16.019531 C 192.289063 15.941406 192.226563 15.875 192.15625 15.816406 C 191.964844 15.660156 191.757813 15.519531 191.566406 15.355469 C 191.296875 15.117188 191.136719 14.8125 191.046875 14.464844 C 190.980469 14.21875 191.007813 13.988281 191.128906 13.769531 C 191.152344 13.730469 191.207031 13.695313 191.253906 13.6875 C 191.371094 13.667969 191.496094 13.664063 191.65625 13.652344 C 191.664063 13.632813 191.703125 13.578125 191.695313 13.53125 C 191.585938 12.867188 191.761719 12.25 191.964844 11.632813 C 192.050781 11.371094 192.214844 11.207031 192.496094 11.183594 C 192.539063 11.183594 192.582031 11.191406 192.621094 11.203125 C 192.9375 11.328125 193.15625 11.550781 193.289063 11.863281 C 193.371094 12.046875 193.488281 12.214844 193.585938 12.390625 C 193.628906 12.472656 193.648438 12.5625 193.695313 12.640625 C 193.742188 12.710938 193.808594 12.769531 193.882813 12.859375 C 193.949219 12.753906 193.996094 12.6875 194.035156 12.617188 C 194.171875 12.378906 194.378906 12.355469 194.566406 12.566406 C 194.726563 12.746094 194.769531 12.976563 194.816406 13.199219 C 194.882813 13.554688 194.828125 13.898438 194.734375 14.242188 C 194.703125 14.359375 194.710938 14.46875 194.828125 14.566406 C 194.914063 14.523438 195.003906 14.472656 195.101563 14.429688 C 195.367188 14.320313 195.550781 14.421875 195.609375 14.707031 C 195.675781 15.046875 195.578125 15.34375 195.359375 15.601563 C 195.308594 15.660156 195.253906 15.71875 195.210938 15.777344 C 195.183594 15.816406 195.175781 15.863281 195.148438 15.945313 C 195.382813 15.839844 195.578125 15.773438 195.796875 15.8125 C 195.890625 16.167969 195.761719 16.460938 195.566406 16.730469 C 195.496094 16.824219 195.394531 16.898438 195.3125 16.984375 C 195.261719 17.042969 195.21875 17.105469 195.15625 17.183594 C 195.253906 17.226563 195.3125 17.25 195.390625 17.285156 C 195.394531 17.347656 195.414063 17.425781 195.40625 17.496094 C 195.390625 17.6875 195.421875 17.867188 195.519531 18.023438 C 195.664063 18.25 195.585938 18.453125 195.492188 18.671875 C 195.53125 18.703125 195.574219 18.738281 195.617188 18.773438 C 195.605469 18.78125 195.589844 18.789063 195.578125 18.796875 C 195.621094 18.882813 195.636719 18.992188 195.703125 19.046875 C 195.925781 19.234375 196.140625 19.441406 196.4375 19.519531 C 196.453125 19.523438 196.472656 19.527344 196.515625 19.535156 C 196.449219 17.292969 196.375 15.0625 196.445313 12.863281 C 196.554688 12.71875 196.640625 12.589844 196.738281 12.472656 C 196.796875 12.40625 196.875 12.363281 196.941406 12.3125 C 196.941406 12.074219 196.957031 11.820313 196.9375 11.566406 C 196.929688 11.480469 196.847656 11.382813 196.773438 11.328125 C 196.582031 11.199219 196.371094 11.097656 196.175781 10.976563 C 195.859375 10.78125 195.53125 10.597656 195.230469 10.375 C 194.941406 10.160156 194.664063 9.925781 194.410156 9.671875 C 194.03125 9.289063 193.746094 8.839844 193.535156 8.339844 C 193.34375 7.890625 193.191406 7.429688 193.148438 6.945313 C 193.117188 6.578125 193.121094 6.207031 193.140625 5.839844 C 193.164063 5.320313 193.273438 4.8125 193.460938 4.324219 C 193.691406 3.71875 193.996094 3.15625 194.402344 2.648438 C 194.933594 1.984375 195.546875 1.417969 196.28125 0.992188 C 196.519531 0.855469 196.757813 0.710938 197.003906 0.578125 C 197.078125 0.539063 197.167969 0.535156 197.246094 0.507813 C 197.515625 0.417969 197.78125 0.304688 198.050781 0.234375 C 198.359375 0.160156 198.671875 0.109375 198.988281 0.0664063 C 199.640625 -0.0195313 200.300781 -0.0195313 200.953125 0.0351563 C 201.617188 0.0898438 202.269531 0.167969 202.914063 0.335938 C 203.363281 0.453125 203.765625 0.644531 204.164063 0.863281 C 204.351563 0.972656 204.5625 1.035156 204.738281 1.15625 C 204.945313 1.300781 205.128906 1.480469 205.316406 1.652344 C 205.425781 1.746094 205.523438 1.855469 205.621094 1.957031 C 205.617188 1.972656 205.613281 1.988281 205.609375 2.003906" stroke-linecap="round" />
</g>
<g transform="matrix(1.64 0 0 1.64 -15.04 79.37)"  >
<path style="stroke: none; stroke-width: 1; stroke-dasharray: none; stroke-linecap: butt; stroke-dashoffset: 0; stroke-linejoin: miter; stroke-miterlimit: 4; fill: rgb(33,28,30); fill-rule: nonzero; opacity: 1;"  transform=" translate(-30.46, -60.9)" d="M 36.382813 62.476563 C 36.601563 62.449219 36.824219 62.417969 37.042969 62.386719 C 37.195313 62.363281 37.347656 62.339844 37.527344 62.3125 C 37.484375 62.378906 37.457031 62.429688 37.425781 62.480469 C 37.257813 62.730469 37.078125 62.976563 36.921875 63.238281 C 36.839844 63.375 36.742188 63.414063 36.589844 63.414063 C 36.292969 63.402344 35.992188 63.410156 35.691406 63.410156 C 35.691406 63.425781 35.6875 63.441406 35.6875 63.457031 L 36.121094 63.660156 C 36.117188 63.667969 36.113281 63.679688 36.105469 63.6875 C 36.21875 63.714844 36.335938 63.746094 36.484375 63.785156 C 36.078125 63.988281 35.703125 64.171875 35.320313 64.359375 C 35.179688 64.199219 35.042969 64.039063 34.902344 63.878906 C 34.808594 63.769531 34.710938 63.664063 34.621094 63.546875 C 34.582031 63.496094 34.546875 63.421875 34.550781 63.359375 C 34.574219 62.941406 34.621094 62.523438 34.636719 62.105469 C 34.640625 61.953125 34.582031 61.796875 34.546875 61.644531 C 34.484375 61.367188 34.421875 61.089844 34.355469 60.804688 C 34.050781 60.851563 33.765625 60.90625 33.535156 61.132813 C 33.558594 61.492188 33.578125 61.855469 33.597656 62.214844 C 33.609375 62.394531 33.628906 62.578125 33.640625 62.757813 C 33.667969 63.285156 33.695313 63.816406 33.722656 64.34375 C 33.738281 64.667969 33.753906 64.988281 33.777344 65.3125 C 33.785156 65.386719 33.84375 65.457031 33.878906 65.535156 C 33.984375 65.753906 34.140625 65.917969 34.371094 66.015625 C 34.476563 66.0625 34.570313 66.144531 34.664063 66.207031 C 35.054688 66.3125 35.433594 66.25 35.8125 66.117188 C 35.660156 66.246094 35.511719 66.375 35.359375 66.5 C 35.105469 66.714844 34.835938 66.910156 34.605469 67.148438 C 34.433594 67.324219 34.3125 67.550781 34.175781 67.761719 C 33.660156 68.546875 33.132813 69.328125 32.640625 70.125 C 32.414063 70.488281 32.269531 70.902344 32.074219 71.285156 C 31.816406 71.792969 31.625 72.328125 31.464844 72.875 C 31.453125 72.910156 31.4375 72.945313 31.425781 72.976563 C 31.414063 72.976563 31.398438 72.976563 31.386719 72.972656 C 31.386719 72.582031 31.390625 72.195313 31.386719 71.804688 C 31.378906 71.0625 31.371094 70.316406 31.355469 69.574219 C 31.34375 68.820313 31.324219 68.070313 31.300781 67.316406 C 31.292969 66.984375 31.253906 66.65625 31.257813 66.328125 C 31.261719 66.101563 31.320313 65.875 31.363281 65.65625 C 31.4375 65.289063 31.496094 64.921875 31.601563 64.566406 C 31.65625 64.382813 31.78125 64.21875 31.894531 64.058594 C 32.253906 63.554688 32.574219 63.027344 32.832031 62.457031 C 32.847656 62.425781 32.859375 62.390625 32.886719 62.335938 C 32.632813 62.351563 32.402344 62.386719 32.167969 62.378906 C 31.777344 62.367188 31.558594 62.667969 31.273438 62.847656 C 31.15625 62.917969 31.058594 63.023438 30.941406 63.089844 C 30.765625 63.1875 30.683594 63.335938 30.636719 63.523438 C 30.597656 63.683594 30.539063 63.839844 30.488281 64 L 30.449219 64 C 30.414063 63.898438 30.367188 63.800781 30.351563 63.699219 C 30.292969 63.367188 30.117188 63.128906 29.824219 62.960938 C 29.671875 62.875 29.53125 62.765625 29.398438 62.652344 C 29.207031 62.484375 29.003906 62.375 28.738281 62.375 C 28.515625 62.375 28.292969 62.351563 28.046875 62.335938 C 28.078125 62.402344 28.097656 62.449219 28.117188 62.496094 C 28.410156 63.167969 28.851563 63.753906 29.238281 64.367188 C 29.351563 64.542969 29.390625 64.765625 29.441406 64.96875 C 29.53125 65.355469 29.621094 65.738281 29.671875 66.125 C 29.707031 66.394531 29.679688 66.664063 29.671875 66.9375 C 29.652344 67.464844 29.617188 67.996094 29.605469 68.523438 C 29.582031 69.632813 29.5625 70.746094 29.546875 71.859375 C 29.542969 72.230469 29.546875 72.601563 29.546875 72.972656 C 29.53125 72.976563 29.515625 72.976563 29.5 72.980469 C 29.4375 72.769531 29.386719 72.550781 29.300781 72.351563 C 29.097656 71.855469 28.871094 71.367188 28.664063 70.867188 C 28.359375 70.121094 27.871094 69.484375 27.441406 68.8125 C 27.109375 68.292969 26.78125 67.773438 26.425781 67.273438 C 26.292969 67.085938 26.09375 66.949219 25.917969 66.792969 C 25.65625 66.566406 25.390625 66.34375 25.128906 66.105469 C 25.5 66.246094 25.878906 66.316406 26.261719 66.207031 C 26.394531 66.125 26.515625 66.03125 26.652344 65.964844 C 26.800781 65.894531 26.898438 65.785156 26.988281 65.652344 C 27.113281 65.460938 27.160156 65.273438 27.167969 65.046875 C 27.179688 64.53125 27.230469 64.015625 27.261719 63.5 C 27.28125 63.191406 27.296875 62.882813 27.316406 62.574219 C 27.34375 62.132813 27.371094 61.695313 27.398438 61.25 C 27.398438 61.214844 27.398438 61.179688 27.398438 61.152344 C 27.167969 60.925781 26.878906 60.851563 26.554688 60.804688 C 26.511719 61 26.460938 61.195313 26.414063 61.394531 C 26.386719 61.53125 26.367188 61.671875 26.324219 61.804688 C 26.25 62.023438 26.277344 62.246094 26.289063 62.46875 C 26.296875 62.679688 26.320313 62.890625 26.335938 63.101563 C 26.335938 63.125 26.332031 63.148438 26.335938 63.167969 C 26.410156 63.386719 26.308594 63.542969 26.164063 63.699219 C 25.988281 63.886719 25.824219 64.089844 25.65625 64.289063 C 25.636719 64.3125 25.609375 64.332031 25.582031 64.359375 C 25.207031 64.171875 24.832031 63.988281 24.421875 63.785156 C 24.570313 63.746094 24.683594 63.71875 24.796875 63.6875 C 24.789063 63.679688 24.785156 63.671875 24.78125 63.664063 C 24.925781 63.59375 25.074219 63.527344 25.21875 63.457031 C 25.21875 63.453125 25.21875 63.445313 25.214844 63.441406 C 24.902344 63.429688 24.59375 63.414063 24.28125 63.414063 C 24.152344 63.410156 24.070313 63.375 24 63.261719 C 23.800781 62.953125 23.597656 62.648438 23.371094 62.3125 C 23.777344 62.375 24.148438 62.429688 24.519531 62.488281 C 24.523438 62.488281 24.523438 62.488281 24.523438 62.488281 C 24.523438 62.488281 24.519531 62.488281 24.519531 62.484375 C 24.484375 62.457031 24.457031 62.421875 24.417969 62.402344 C 24.007813 62.179688 23.597656 61.964844 23.183594 61.742188 C 23.085938 61.332031 22.984375 60.925781 22.878906 60.492188 C 23.15625 60.65625 23.414063 60.808594 23.671875 60.960938 C 23.675781 60.957031 23.683594 60.953125 23.6875 60.945313 C 23.484375 60.675781 23.269531 60.417969 23.085938 60.136719 C 22.921875 59.894531 22.789063 59.628906 22.660156 59.367188 C 22.621094 59.285156 22.628906 59.179688 22.621094 59.082031 C 22.597656 58.761719 22.585938 58.441406 22.5625 58.117188 C 22.542969 57.835938 22.523438 57.554688 22.53125 57.265625 C 22.730469 57.625 22.925781 57.980469 23.125 58.335938 C 23.136719 58.335938 23.144531 58.332031 23.152344 58.332031 C 23.136719 58.277344 23.121094 58.21875 23.105469 58.164063 L 23.101563 58.164063 C 23.113281 58.160156 23.125 58.160156 23.136719 58.15625 C 23.136719 58.15625 23.140625 58.15625 23.140625 58.160156 C 23.140625 58.15625 23.136719 58.15625 23.132813 58.15625 C 23.117188 58 23.109375 57.839844 23.085938 57.6875 C 23.003906 57.195313 22.914063 56.703125 22.832031 56.210938 C 22.789063 55.96875 22.742188 55.730469 22.707031 55.488281 C 22.695313 55.410156 22.699219 55.328125 22.722656 55.253906 C 22.898438 54.671875 23.082031 54.09375 23.261719 53.511719 C 23.289063 53.429688 23.304688 53.34375 23.332031 53.234375 C 23.503906 53.90625 23.667969 54.550781 23.832031 55.203125 C 23.855469 55.199219 23.875 55.195313 23.898438 55.191406 C 23.886719 55.050781 23.890625 54.910156 23.863281 54.773438 C 23.734375 54.125 23.601563 53.476563 23.476563 52.828125 C 23.460938 52.753906 23.472656 52.664063 23.5 52.597656 C 23.640625 52.261719 23.777344 51.921875 23.949219 51.605469 C 24.023438 51.464844 24.179688 51.367188 24.3125 51.269531 C 24.574219 51.074219 24.8125 50.867188 24.945313 50.550781 C 25.046875 50.3125 25.210938 50.09375 25.3125 49.851563 C 25.378906 49.707031 25.382813 49.53125 25.40625 49.367188 C 25.429688 49.195313 25.445313 49.019531 25.472656 48.8125 C 25.484375 49.015625 25.5 49.179688 25.511719 49.347656 C 25.523438 49.542969 25.550781 49.746094 25.53125 49.941406 C 25.503906 50.277344 25.441406 50.609375 25.390625 50.945313 C 25.300781 51.519531 25.003906 52.03125 24.84375 52.582031 C 24.785156 52.789063 24.773438 53.003906 24.742188 53.214844 C 24.648438 53.816406 24.828125 54.382813 24.9375 54.960938 C 24.996094 55.269531 25.058594 55.582031 25.144531 55.882813 C 25.183594 56.011719 25.285156 56.128906 25.375 56.238281 C 25.625 56.539063 25.878906 56.839844 26.140625 57.132813 C 26.207031 57.203125 26.296875 57.253906 26.382813 57.296875 C 26.6875 57.449219 27.011719 57.367188 27.339844 57.375 C 27.449219 57.25 27.5625 57.117188 27.6875 56.976563 C 27.847656 57.121094 28.007813 57.269531 28.175781 57.421875 C 28.230469 57.34375 28.285156 57.277344 28.328125 57.203125 C 28.535156 56.824219 28.832031 56.523438 29.128906 56.21875 C 29.40625 55.929688 29.707031 55.65625 29.960938 55.34375 C 30.109375 55.164063 30.1875 54.921875 30.292969 54.707031 C 30.355469 54.574219 30.402344 54.4375 30.464844 54.285156 L 30.46875 54.285156 C 30.660156 54.707031 30.769531 55.15625 31.109375 55.496094 C 31.511719 55.902344 31.90625 56.3125 32.289063 56.738281 C 32.445313 56.90625 32.554688 57.121094 32.683594 57.3125 C 32.703125 57.339844 32.722656 57.371094 32.746094 57.40625 C 32.90625 57.257813 33.066406 57.117188 33.222656 56.976563 C 33.339844 57.113281 33.453125 57.242188 33.566406 57.371094 C 33.894531 57.371094 34.222656 57.449219 34.527344 57.296875 C 34.617188 57.253906 34.707031 57.199219 34.769531 57.128906 C 35.082031 56.777344 35.386719 56.425781 35.679688 56.058594 C 35.757813 55.960938 35.789063 55.816406 35.816406 55.6875 C 35.925781 55.179688 36.03125 54.667969 36.132813 54.160156 C 36.207031 53.796875 36.183594 53.433594 36.15625 53.066406 C 36.113281 52.488281 35.804688 52 35.652344 51.457031 C 35.570313 51.167969 35.507813 50.871094 35.453125 50.578125 C 35.410156 50.363281 35.375 50.140625 35.375 49.921875 C 35.378906 49.566406 35.410156 49.210938 35.4375 48.820313 C 35.46875 49.082031 35.492188 49.3125 35.53125 49.539063 C 35.550781 49.675781 35.582031 49.816406 35.636719 49.9375 C 35.769531 50.214844 35.9375 50.476563 36.066406 50.753906 C 36.175781 50.992188 36.402344 51.09375 36.578125 51.253906 C 36.671875 51.339844 36.78125 51.410156 36.882813 51.492188 C 36.917969 51.523438 36.949219 51.570313 36.972656 51.617188 C 37.109375 51.917969 37.234375 52.230469 37.386719 52.527344 C 37.488281 52.730469 37.414063 52.914063 37.378906 53.101563 C 37.265625 53.699219 37.136719 54.292969 37.023438 54.890625 C 37.003906 54.988281 37.019531 55.089844 37.042969 55.199219 C 37.253906 54.558594 37.394531 53.902344 37.570313 53.265625 C 37.6875 53.644531 37.800781 54.023438 37.921875 54.398438 C 38.007813 54.671875 38.089844 54.945313 38.183594 55.210938 C 38.253906 55.414063 38.175781 55.605469 38.148438 55.792969 C 38.0625 56.355469 37.960938 56.910156 37.863281 57.464844 C 37.835938 57.644531 37.800781 57.820313 37.773438 57.996094 C 37.765625 58.046875 37.773438 58.101563 37.773438 58.152344 L 37.765625 58.152344 C 37.769531 58.152344 37.769531 58.152344 37.773438 58.15625 C 37.78125 58.160156 37.792969 58.160156 37.804688 58.164063 C 37.785156 58.21875 37.769531 58.277344 37.753906 58.332031 C 37.761719 58.335938 37.769531 58.339844 37.777344 58.34375 C 37.976563 57.984375 38.175781 57.628906 38.375 57.269531 C 38.382813 57.273438 38.390625 57.273438 38.398438 57.273438 C 38.390625 57.492188 38.382813 57.707031 38.367188 57.921875 C 38.355469 58.097656 38.332031 58.273438 38.320313 58.449219 C 38.296875 58.730469 38.28125 59.011719 38.265625 59.296875 C 38.261719 59.328125 38.253906 59.363281 38.234375 59.394531 C 38.03125 59.8125 37.808594 60.222656 37.5 60.578125 C 37.398438 60.691406 37.3125 60.820313 37.234375 60.960938 C 37.492188 60.808594 37.75 60.65625 38.027344 60.492188 C 37.921875 60.921875 37.824219 61.328125 37.722656 61.742188 C 37.332031 61.953125 36.9375 62.164063 36.542969 62.375 C 36.488281 62.40625 36.4375 62.445313 36.382813 62.480469 L 36.375 62.484375" stroke-linecap="round" />
</g>
<g transform="matrix(1.64 0 0 1.64 -27.1 74.83)"  >
<path style="stroke: none; stroke-width: 1; stroke-dasharray: none; stroke-linecap: butt; stroke-dashoffset: 0; stroke-linejoin: miter; stroke-miterlimit: 4; fill: rgb(33,28,30); fill-rule: nonzero; opacity: 1;"  transform=" translate(-23.11, -58.13)" d="M 23.101563 58.164063 C 23.101563 58.140625 23.101563 58.113281 23.097656 58.089844 C 23.105469 58.09375 23.109375 58.09375 23.117188 58.09375 C 23.113281 58.117188 23.105469 58.140625 23.101563 58.164063" stroke-linecap="round" />
</g>
<g transform="matrix(1.64 0 0 1.64 -3.01 74.83)"  >
<path style="stroke: none; stroke-width: 1; stroke-dasharray: none; stroke-linecap: butt; stroke-dashoffset: 0; stroke-linejoin: miter; stroke-miterlimit: 4; fill: rgb(33,28,30); fill-rule: nonzero; opacity: 1;"  transform=" translate(-37.79, -58.13)" d="M 37.804688 58.164063 L 37.785156 58.09375 C 37.792969 58.09375 37.796875 58.089844 37.804688 58.089844 L 37.804688 58.164063" stroke-linecap="round" />
</g>
<g transform="matrix(1.64 0 0 1.64 -27.14 74.64)"  >
<path style="stroke: none; stroke-width: 1; stroke-dasharray: none; stroke-linecap: butt; stroke-dashoffset: 0; stroke-linejoin: miter; stroke-miterlimit: 4; fill: rgb(33,28,30); fill-rule: nonzero; opacity: 1;"  transform=" translate(-23.08, -58.01)" d="M 23.085938 58.015625 C 23.082031 58.019531 23.082031 58.019531 23.078125 58.019531 C 23.078125 58.015625 23.078125 58.011719 23.078125 58.007813 C 23.078125 58.007813 23.082031 58.007813 23.085938 58.003906 C 23.085938 58.007813 23.085938 58.011719 23.085938 58.015625" stroke-linecap="round" />
</g>
<g transform="matrix(1.64 0 0 1.64 -2.97 74.64)"  >
<path style="stroke: none; stroke-width: 1; stroke-dasharray: none; stroke-linecap: butt; stroke-dashoffset: 0; stroke-linejoin: miter; stroke-miterlimit: 4; fill: rgb(33,28,30); fill-rule: nonzero; opacity: 1;"  transform=" translate(-37.83, -58.01)" d="M 37.828125 58.003906 C 37.828125 58.007813 37.828125 58.015625 37.824219 58.019531 C 37.828125 58.015625 37.828125 58.007813 37.828125 58.003906" stroke-linecap="round" />
</g>
<g transform="matrix(1.64 0 0 1.64 66.64 75.32)"  >
<path style="stroke: none; stroke-width: 1; stroke-dasharray: none; stroke-linecap: butt; stroke-dashoffset: 0; stroke-linejoin: miter; stroke-miterlimit: 4; fill: rgb(33,28,30); fill-rule: nonzero; opacity: 1;"  transform=" translate(-89.42, -12.08)" d="M 91.585938 18.253906 C 91.628906 18.3125 91.617188 18.363281 91.648438 18.417969 C 91.855469 18.738281 91.949219 19.351563 91.671875 19.660156 C 91.488281 19.871094 91.335938 20.070313 91.136719 20.265625 C 90.960938 20.4375 90.761719 20.578125 90.652344 20.8125 C 90.554688 21.027344 90.5625 21.25 90.550781 21.476563 C 90.539063 21.742188 90.671875 21.917969 90.871094 22.066406 C 91.054688 22.203125 91.273438 22.210938 91.496094 22.203125 C 91.710938 22.199219 91.875 22.042969 91.886719 21.824219 C 91.773438 21.660156 91.597656 21.636719 91.496094 21.773438 C 91.492188 21.816406 91.488281 21.863281 91.480469 21.941406 C 91.394531 21.945313 91.308594 21.949219 91.222656 21.953125 C 91.023438 21.953125 90.882813 21.859375 90.824219 21.671875 C 90.722656 21.328125 90.75 21.003906 91 20.730469 C 91.191406 20.519531 91.386719 20.316406 91.589844 20.113281 C 91.789063 19.917969 91.917969 19.691406 91.929688 19.40625 C 91.9375 19.246094 91.949219 19.089844 91.953125 18.929688 C 91.964844 18.550781 91.773438 18.277344 91.496094 18.050781 C 91.476563 18.03125 91.445313 18.023438 91.394531 18 C 91.445313 18.117188 91.484375 18.207031 91.527344 18.300781 C 91.550781 18.28125 91.566406 18.269531 91.585938 18.253906 M 87.472656 18.027344 C 87.277344 18.113281 87.148438 18.261719 87.042969 18.4375 C 86.910156 18.664063 86.925781 18.914063 86.925781 19.164063 C 86.925781 19.554688 87.035156 19.894531 87.335938 20.167969 C 87.53125 20.339844 87.703125 20.535156 87.878906 20.730469 C 88.132813 21.011719 88.160156 21.347656 88.046875 21.691406 C 87.960938 21.945313 87.585938 22.058594 87.394531 21.898438 C 87.390625 21.855469 87.386719 21.808594 87.382813 21.765625 C 87.265625 21.636719 87.089844 21.667969 86.988281 21.839844 C 86.996094 21.976563 87.078125 22.070313 87.183594 22.148438 C 87.316406 22.25 87.46875 22.203125 87.613281 22.199219 C 87.917969 22.195313 88.257813 21.949219 88.304688 21.667969 C 88.351563 21.398438 88.347656 21.121094 88.246094 20.859375 C 88.144531 20.601563 87.941406 20.429688 87.734375 20.265625 C 87.511719 20.085938 87.363281 19.878906 87.195313 19.648438 C 87.003906 19.398438 87.023438 19.117188 87.066406 18.835938 C 87.101563 18.613281 87.160156 18.429688 87.292969 18.253906 C 87.320313 18.273438 87.335938 18.28125 87.355469 18.296875 C 87.398438 18.199219 87.433594 18.113281 87.472656 18.027344 M 90.726563 22.78125 L 88.085938 22.78125 L 88.085938 23.34375 L 90.726563 23.34375 Z M 89.414063 19.882813 C 90.109375 19.898438 90.695313 19.3125 90.714844 18.617188 C 90.734375 17.871094 90.117188 17.292969 89.441406 17.28125 C 88.710938 17.269531 88.121094 17.878906 88.113281 18.570313 C 88.109375 19.285156 88.707031 19.898438 89.414063 19.882813 M 88.265625 3.082031 L 88.027344 3.082031 C 88.03125 3.132813 88.039063 3.179688 88.042969 3.242188 C 88.019531 3.265625 87.984375 3.292969 87.9375 3.328125 C 87.863281 3.199219 87.796875 3.082031 87.726563 2.957031 C 87.761719 2.871094 87.796875 2.789063 87.84375 2.683594 C 87.917969 2.765625 87.980469 2.832031 88.035156 2.894531 L 88.257813 2.894531 L 88.257813 2.402344 L 88.121094 2.402344 C 88.125 2.453125 88.128906 2.503906 88.136719 2.5625 C 88.113281 2.582031 88.082031 2.609375 88.050781 2.636719 C 87.84375 2.453125 87.804688 2.257813 87.941406 2.007813 C 88.003906 2.078125 88.066406 2.144531 88.128906 2.214844 L 88.28125 2.214844 C 88.289063 2.054688 88.296875 1.894531 88.304688 1.722656 L 87.859375 1.722656 C 87.867188 1.777344 87.875 1.824219 87.882813 1.882813 C 87.855469 1.902344 87.824219 1.929688 87.777344 1.96875 C 87.703125 1.839844 87.632813 1.722656 87.5625 1.597656 C 87.597656 1.511719 87.636719 1.425781 87.679688 1.324219 C 87.753906 1.40625 87.8125 1.472656 87.871094 1.535156 L 88.300781 1.535156 C 88.308594 1.394531 88.316406 1.257813 88.328125 1.113281 L 88.042969 1.113281 C 88.054688 1.167969 88.058594 1.210938 88.070313 1.273438 C 88.042969 1.292969 88.007813 1.320313 87.976563 1.347656 C 87.746094 1.101563 87.722656 0.964844 87.878906 0.71875 C 87.941406 0.792969 88 0.859375 88.058594 0.925781 L 88.296875 0.925781 C 88.367188 0.589844 88.597656 0.394531 88.863281 0.238281 C 88.96875 0.179688 89.082031 0.136719 89.195313 0.0898438 C 89.265625 0.0585938 89.335938 0.0273438 89.40625 -0.00390625 C 89.808594 0.140625 90.199219 0.304688 90.453125 0.675781 C 90.5 0.742188 90.507813 0.832031 90.535156 0.925781 L 90.777344 0.925781 C 90.828125 0.863281 90.886719 0.800781 90.960938 0.714844 C 91.003906 0.8125 91.042969 0.894531 91.082031 0.984375 C 91.011719 1.105469 90.945313 1.226563 90.871094 1.359375 C 90.828125 1.324219 90.792969 1.300781 90.761719 1.273438 C 90.773438 1.222656 90.777344 1.171875 90.789063 1.113281 L 90.503906 1.113281 C 90.511719 1.253906 90.523438 1.386719 90.527344 1.53125 L 90.964844 1.53125 C 91.011719 1.476563 91.074219 1.40625 91.148438 1.324219 C 91.195313 1.425781 91.230469 1.507813 91.269531 1.59375 C 91.199219 1.71875 91.132813 1.835938 91.058594 1.96875 C 91.015625 1.933594 90.980469 1.90625 90.949219 1.886719 C 90.957031 1.828125 90.964844 1.777344 90.972656 1.722656 L 90.550781 1.722656 L 90.550781 2.214844 C 90.605469 2.21875 90.648438 2.21875 90.699219 2.222656 C 90.753906 2.15625 90.816406 2.089844 90.871094 2.023438 C 91.039063 2.179688 91.015625 2.371094 90.792969 2.636719 C 90.777344 2.625 90.753906 2.613281 90.738281 2.601563 C 90.722656 2.589844 90.707031 2.574219 90.691406 2.5625 C 90.699219 2.511719 90.707031 2.464844 90.71875 2.402344 L 90.574219 2.402344 L 90.574219 2.894531 L 90.796875 2.894531 C 90.851563 2.835938 90.910156 2.769531 90.984375 2.683594 C 91.027344 2.78125 91.066406 2.863281 91.105469 2.953125 C 91.039063 3.074219 90.96875 3.195313 90.894531 3.328125 C 90.851563 3.296875 90.816406 3.269531 90.785156 3.246094 C 90.792969 3.191406 90.800781 3.144531 90.8125 3.085938 L 90.589844 3.085938 C 90.585938 3.105469 90.578125 3.121094 90.582031 3.140625 C 90.613281 3.355469 90.523438 3.53125 90.410156 3.707031 C 90.300781 3.871094 90.199219 4.042969 90.105469 4.21875 C 90.066406 4.292969 90.042969 4.386719 90.046875 4.472656 C 90.050781 4.761719 90.074219 5.046875 90.085938 5.335938 C 90.097656 5.6875 90.101563 6.039063 90.109375 6.390625 C 90.132813 7.105469 90.160156 7.816406 90.183594 8.53125 C 90.199219 8.949219 90.214844 9.367188 90.226563 9.785156 C 90.253906 10.496094 90.277344 11.210938 90.300781 11.925781 C 90.316406 12.351563 90.332031 12.773438 90.34375 13.199219 C 90.347656 13.332031 90.375 13.449219 90.453125 13.5625 C 90.84375 14.164063 91.238281 14.761719 91.613281 15.371094 C 91.75 15.597656 91.839844 15.847656 91.929688 16.097656 C 92.171875 16.734375 92.414063 17.378906 92.628906 18.027344 C 92.71875 18.296875 92.75 18.589844 92.800781 18.871094 C 92.878906 19.292969 92.953125 19.710938 93.019531 20.132813 C 93.035156 20.242188 93.019531 20.355469 93.007813 20.46875 C 92.964844 20.851563 92.917969 21.230469 92.875 21.613281 C 92.84375 21.871094 92.800781 22.113281 92.667969 22.347656 C 92.441406 22.734375 92.246094 23.144531 92.03125 23.542969 C 91.996094 23.605469 91.925781 23.652344 91.871094 23.699219 C 91.847656 23.722656 91.816406 23.726563 91.789063 23.742188 C 91.464844 23.957031 91.085938 23.992188 90.71875 24.066406 C 90.050781 24.203125 89.382813 24.15625 88.714844 24.148438 C 88.441406 24.148438 88.171875 24.050781 87.898438 24.027344 C 87.546875 24 87.242188 23.851563 86.941406 23.6875 C 86.890625 23.660156 86.839844 23.617188 86.8125 23.566406 C 86.5625 23.101563 86.324219 22.632813 86.074219 22.171875 C 85.980469 21.992188 85.988281 21.800781 85.960938 21.617188 C 85.90625 21.234375 85.878906 20.851563 85.820313 20.472656 C 85.78125 20.226563 85.832031 19.992188 85.871094 19.753906 C 85.960938 19.25 86.042969 18.742188 86.148438 18.242188 C 86.195313 18.015625 86.28125 17.796875 86.359375 17.578125 C 86.597656 16.917969 86.839844 16.261719 87.082031 15.605469 C 87.121094 15.503906 87.183594 15.414063 87.246094 15.320313 C 87.625 14.730469 88.011719 14.136719 88.386719 13.542969 C 88.441406 13.453125 88.476563 13.339844 88.480469 13.238281 C 88.507813 12.640625 88.515625 12.042969 88.535156 11.445313 C 88.554688 10.765625 88.582031 10.082031 88.605469 9.398438 C 88.621094 8.953125 88.636719 8.507813 88.652344 8.0625 C 88.675781 7.378906 88.699219 6.691406 88.722656 6.003906 C 88.738281 5.554688 88.730469 5.105469 88.777344 4.660156 C 88.804688 4.398438 88.738281 4.195313 88.597656 3.996094 C 88.5625 3.945313 88.535156 3.890625 88.503906 3.835938 C 88.367188 3.605469 88.179688 3.398438 88.265625 3.082031" stroke-linecap="round" />
</g>
<g transform="matrix(1.64 0 0 1.64 282.56 74.96)"  >
<path style="stroke: none; stroke-width: 1; stroke-dasharray: none; stroke-linecap: butt; stroke-dashoffset: 0; stroke-linejoin: miter; stroke-miterlimit: 4; fill: rgb(33,28,30); fill-rule: nonzero; opacity: 1;"  transform=" translate(-264.06, -14)" d="M 259.769531 3.839844 C 260.039063 4.035156 260.269531 4.191406 260.484375 4.367188 C 260.914063 4.71875 261.410156 4.917969 261.953125 4.988281 C 262.359375 5.042969 262.742188 5 263.128906 4.828125 C 263.453125 4.683594 263.695313 4.488281 263.859375 4.179688 C 263.914063 4.082031 263.980469 3.992188 264.058594 3.878906 C 264.179688 4.0625 264.304688 4.230469 264.410156 4.40625 C 264.496094 4.558594 264.617188 4.660156 264.78125 4.722656 C 264.902344 4.769531 265.011719 4.835938 265.128906 4.886719 C 265.484375 5.039063 265.855469 5.027344 266.234375 4.980469 C 266.9375 4.894531 267.480469 4.503906 268.007813 4.085938 C 268.101563 4.015625 268.199219 3.949219 268.292969 3.878906 C 268.300781 3.875 268.3125 3.875 268.339844 3.871094 C 268.34375 3.921875 268.351563 3.96875 268.351563 4.015625 C 268.347656 4.613281 268.339844 5.207031 268.335938 5.808594 C 268.335938 8.425781 268.332031 11.042969 268.328125 13.660156 C 268.328125 14.480469 268.316406 15.296875 268.3125 16.113281 C 268.3125 16.816406 268.324219 17.519531 268.308594 18.222656 C 268.300781 18.566406 268.242188 18.910156 268.199219 19.253906 C 268.164063 19.511719 268.125 19.769531 268.085938 20.023438 C 268.074219 20.082031 268.050781 20.144531 268.015625 20.1875 C 267.710938 20.550781 267.414063 20.921875 267.082031 21.261719 C 266.855469 21.492188 266.585938 21.6875 266.324219 21.875 C 265.5 22.472656 264.828125 23.21875 264.195313 24 C 264.152344 24.050781 264.109375 24.101563 264.058594 24.160156 C 263.878906 23.941406 263.710938 23.726563 263.53125 23.519531 C 262.953125 22.851563 262.328125 22.230469 261.597656 21.722656 C 260.984375 21.300781 260.554688 20.707031 260.085938 20.148438 C 259.996094 20.042969 260.007813 19.84375 259.984375 19.683594 C 259.921875 19.265625 259.867188 18.847656 259.8125 18.429688 C 259.804688 18.375 259.800781 18.316406 259.800781 18.261719 C 259.796875 15.613281 259.800781 12.960938 259.796875 10.3125 C 259.789063 8.226563 259.777344 6.136719 259.769531 4.050781 C 259.769531 3.996094 259.769531 3.941406 259.769531 3.839844" stroke-linecap="round" />
</g>
<g transform="matrix(1.64 0 0 1.64 297.35 61.34)"  >
<path style="stroke: none; stroke-width: 1; stroke-dasharray: none; stroke-linecap: butt; stroke-dashoffset: 0; stroke-linejoin: miter; stroke-miterlimit: 4; fill: rgb(33,28,30); fill-rule: nonzero; opacity: 1;"  transform=" translate(-273.39, -6)" d="M 272.757813 1.804688 C 273.023438 1.8125 273.222656 1.746094 273.355469 1.546875 C 273.558594 1.753906 273.75 1.949219 273.949219 2.152344 C 273.894531 2.226563 273.800781 2.3125 273.757813 2.417969 C 273.710938 2.53125 273.714844 2.65625 273.6875 2.820313 C 273.917969 3.039063 274.164063 3.28125 274.417969 3.515625 C 274.890625 3.960938 275.449219 4.265625 276.054688 4.480469 C 276.519531 4.648438 276.996094 4.796875 277.503906 4.808594 C 277.585938 4.8125 277.671875 4.785156 277.757813 4.78125 C 277.847656 4.777344 277.9375 4.78125 278.058594 4.78125 C 277.964844 5.023438 277.890625 5.242188 277.792969 5.453125 C 277.496094 6.117188 277.128906 6.738281 276.71875 7.332031 C 276.644531 7.4375 276.542969 7.519531 276.464844 7.617188 C 276.003906 8.179688 275.429688 8.613281 274.855469 9.046875 C 274.464844 9.339844 274.0625 9.617188 273.65625 9.894531 C 273.554688 9.964844 273.433594 10.015625 273.316406 10.050781 C 272.910156 10.175781 272.507813 10.292969 272.101563 10.40625 C 272.011719 10.433594 271.914063 10.433594 271.824219 10.449219 C 271.980469 10.257813 272.148438 10.082031 272.277344 9.878906 C 272.460938 9.585938 272.625 9.28125 272.78125 8.972656 C 273.066406 8.402344 273.070313 7.804688 272.953125 7.191406 C 272.914063 6.992188 272.894531 6.789063 272.851563 6.589844 C 272.828125 6.492188 272.785156 6.398438 272.730469 6.316406 C 272.425781 5.882813 272.113281 5.457031 271.800781 5.03125 C 271.75 4.960938 271.691406 4.898438 271.652344 4.851563 C 271.472656 4.914063 271.300781 4.972656 271.132813 5.039063 C 271.070313 5.066406 271.011719 5.109375 270.960938 5.15625 C 270.253906 5.859375 269.550781 6.5625 268.847656 7.265625 C 268.8125 7.296875 268.78125 7.328125 268.730469 7.375 C 268.722656 7.3125 268.71875 7.269531 268.71875 7.226563 C 268.714844 6.929688 268.722656 6.632813 268.714844 6.335938 C 268.710938 6.226563 268.746094 6.144531 268.824219 6.066406 C 269.289063 5.609375 269.742188 5.140625 270.21875 4.6875 C 270.386719 4.523438 270.488281 4.339844 270.550781 4.121094 C 270.566406 4.066406 270.59375 4 270.632813 3.960938 C 271.34375 3.238281 272.058594 2.515625 272.757813 1.804688" stroke-linecap="round" />
</g>
<g transform="matrix(1.64 0 0 1.64 268.03 58.84)"  >
<path style="stroke: none; stroke-width: 1; stroke-dasharray: none; stroke-linecap: butt; stroke-dashoffset: 0; stroke-linejoin: miter; stroke-miterlimit: 4; fill: rgb(33,28,30); fill-rule: nonzero; opacity: 1;"  transform=" translate(-255.51, -4.47)" d="M 257.453125 4.839844 C 257.578125 4.8125 257.675781 4.789063 257.785156 4.765625 L 258.882813 5.917969 C 258.992188 6.03125 259.09375 6.15625 259.210938 6.261719 C 259.328125 6.367188 259.378906 6.488281 259.378906 6.648438 C 259.375 7.367188 259.378906 8.089844 259.378906 8.808594 C 259.378906 8.839844 259.367188 8.875 259.351563 8.941406 C 258.359375 7.996094 257.390625 7.074219 256.414063 6.148438 C 256.433594 6.035156 256.449219 5.925781 256.472656 5.800781 C 256.273438 5.710938 256.078125 5.621094 255.871094 5.523438 C 255.523438 5.828125 255.175781 6.132813 254.828125 6.433594 C 254.808594 6.636719 254.792969 6.824219 254.773438 7.050781 C 254.527344 7 254.289063 6.949219 254.042969 6.902344 C 254.054688 6.683594 254.074219 6.511719 254.265625 6.367188 C 254.65625 6.078125 255.015625 5.757813 255.390625 5.449219 C 255.484375 5.375 255.53125 5.292969 255.496094 5.171875 C 255.476563 5.113281 255.484375 5.050781 255.484375 4.984375 C 255.613281 4.953125 255.734375 4.929688 255.886719 4.894531 C 255.757813 4.765625 255.65625 4.664063 255.554688 4.566406 C 254.804688 3.839844 254.046875 3.117188 253.304688 2.382813 C 253.0625 2.140625 252.851563 1.871094 252.644531 1.597656 C 252.523438 1.433594 252.367188 1.363281 252.1875 1.292969 C 251.992188 1.21875 251.8125 1.101563 251.632813 1.007813 C 251.8125 0.550781 252.15625 0.203125 252.613281 -0.00390625 C 252.824219 0.1875 252.925781 0.4375 253.011719 0.699219 C 253.035156 0.773438 253.078125 0.855469 253.136719 0.898438 C 253.988281 1.535156 254.683594 2.332031 255.417969 3.089844 C 255.78125 3.460938 256.140625 3.835938 256.535156 4.242188 C 256.570313 4.09375 256.597656 3.980469 256.625 3.855469 L 257.007813 3.855469 C 257.289063 3.515625 257.578125 3.167969 257.871094 2.820313 C 257.914063 2.765625 257.964844 2.710938 257.996094 2.648438 C 258.109375 2.421875 258.3125 2.402344 258.539063 2.394531 C 258.59375 2.632813 258.644531 2.867188 258.699219 3.125 C 258.523438 3.140625 258.367188 3.148438 258.210938 3.167969 C 258.148438 3.175781 258.070313 3.191406 258.035156 3.234375 C 257.757813 3.539063 257.488281 3.851563 257.21875 4.164063 C 257.203125 4.183594 257.191406 4.207031 257.175781 4.242188 C 257.265625 4.433594 257.355469 4.632813 257.453125 4.839844" stroke-linecap="round" />
</g>
<g transform="matrix(1.64 0 0 1.64 268.16 83)"  >
<path style="stroke: none; stroke-width: 1; stroke-dasharray: none; stroke-linecap: butt; stroke-dashoffset: 0; stroke-linejoin: miter; stroke-miterlimit: 4; fill: rgb(33,28,30); fill-rule: nonzero; opacity: 1;"  transform=" translate(-255.59, -19.2)" d="M 259.382813 15.105469 L 259.382813 16.324219 C 259.125 16.578125 258.855469 16.839844 258.589844 17.109375 C 257.894531 17.804688 257.199219 18.507813 256.503906 19.203125 C 255.464844 20.242188 254.421875 21.277344 253.371094 22.304688 C 253.167969 22.503906 253.007813 22.722656 252.886719 22.984375 C 252.722656 23.339844 252.378906 23.390625 252.082031 23.132813 C 251.902344 22.980469 251.804688 22.785156 251.789063 22.570313 C 251.78125 22.464844 251.890625 22.285156 251.988281 22.246094 C 252.433594 22.078125 252.730469 21.734375 253.050781 21.414063 C 253.925781 20.542969 254.800781 19.671875 255.675781 18.796875 C 256.167969 18.304688 256.652344 17.800781 257.148438 17.308594 C 257.84375 16.617188 258.542969 15.929688 259.238281 15.242188 C 259.277344 15.203125 259.316406 15.167969 259.382813 15.105469" stroke-linecap="round" />
</g>
<g transform="matrix(1.64 0 0 1.64 295.37 83.91)"  >
<path style="stroke: none; stroke-width: 1; stroke-dasharray: none; stroke-linecap: butt; stroke-dashoffset: 0; stroke-linejoin: miter; stroke-miterlimit: 4; fill: rgb(33,28,30); fill-rule: nonzero; opacity: 1;"  transform=" translate(-272.18, -19.76)" d="M 268.703125 17.464844 L 268.703125 15.910156 C 268.71875 15.902344 268.730469 15.898438 268.742188 15.890625 C 268.785156 15.933594 268.832031 15.972656 268.871094 16.019531 C 270.039063 17.246094 271.203125 18.472656 272.371094 19.699219 C 272.976563 20.335938 273.589844 20.960938 274.179688 21.613281 C 274.425781 21.882813 274.621094 22.195313 274.835938 22.492188 C 275.109375 22.867188 275.378906 23.242188 275.660156 23.636719 C 275.375 23.429688 275.105469 23.234375 274.835938 23.039063 C 274.433594 22.746094 273.996094 22.488281 273.636719 22.148438 C 272.257813 20.863281 270.902344 19.558594 269.542969 18.257813 C 269.257813 17.988281 268.972656 17.71875 268.703125 17.464844" stroke-linecap="round" />
</g>
<g transform="matrix(1.64 0 0 1.64 376.94 71.32)"  >
<path style="stroke: none; stroke-width: 1; stroke-dasharray: none; stroke-linecap: butt; stroke-dashoffset: 0; stroke-linejoin: miter; stroke-miterlimit: 4; fill: rgb(33,28,30); fill-rule: nonzero; opacity: 1;"  transform=" translate(-321.91, -12.08)" d="M 327.609375 5.898438 C 327.601563 5.890625 327.597656 5.882813 327.59375 5.882813 C 327.589844 5.882813 327.578125 5.886719 327.578125 5.886719 C 327.527344 6.167969 327.464844 6.441406 327.425781 6.71875 C 327.40625 6.882813 327.335938 6.988281 327.171875 6.992188 C 326.960938 7 326.75 6.992188 326.539063 6.980469 C 326.425781 6.972656 326.3125 6.949219 326.199219 6.933594 C 326.199219 6.949219 326.195313 6.96875 326.191406 6.984375 C 326.234375 7.003906 326.277344 7.03125 326.324219 7.046875 C 326.632813 7.152344 326.9375 7.257813 327.242188 7.363281 C 327.464844 7.4375 327.5 7.417969 327.519531 7.171875 C 327.550781 6.746094 327.578125 6.320313 327.609375 5.898438 M 322.640625 13.566406 C 322.660156 13.566406 322.675781 13.566406 322.695313 13.566406 C 322.703125 13.535156 322.714844 13.5 322.722656 13.46875 C 322.839844 12.738281 322.957031 12.007813 323.066406 11.277344 C 323.089844 11.109375 323.160156 10.992188 323.304688 10.902344 C 323.640625 10.695313 323.964844 10.472656 324.296875 10.257813 C 324.402344 10.183594 324.511719 10.109375 324.617188 10.039063 L 324.601563 9.996094 C 324.550781 10.007813 324.496094 10.019531 324.449219 10.035156 C 323.953125 10.214844 323.457031 10.386719 322.964844 10.574219 C 322.824219 10.625 322.714844 10.609375 322.59375 10.523438 C 322.089844 10.164063 321.578125 9.808594 321.070313 9.457031 C 320.996094 9.40625 320.921875 9.335938 320.839844 9.457031 C 320.761719 9.570313 320.84375 9.613281 320.910156 9.667969 C 321.371094 10.042969 321.839844 10.414063 322.292969 10.800781 C 322.382813 10.878906 322.460938 11.019531 322.472656 11.136719 C 322.523438 11.730469 322.550781 12.328125 322.589844 12.921875 C 322.601563 13.136719 322.625 13.351563 322.640625 13.566406 M 318.765625 7.796875 C 318.8125 7.757813 318.863281 7.726563 318.90625 7.683594 C 319.460938 7.167969 320.015625 6.648438 320.570313 6.128906 C 320.664063 6.042969 320.699219 5.960938 320.675781 5.828125 C 320.609375 5.433594 320.570313 5.035156 320.496094 4.640625 C 320.449219 4.378906 320.578125 4.222656 320.761719 4.109375 C 320.914063 4.015625 320.953125 3.90625 320.949219 3.738281 C 320.910156 2.738281 320.882813 1.734375 320.855469 0.730469 C 320.855469 0.660156 320.90625 0.566406 320.960938 0.515625 C 321.089844 0.40625 321.222656 0.292969 321.371094 0.226563 C 321.519531 0.160156 321.691406 0.132813 321.855469 0.113281 C 322.222656 0.0703125 322.589844 0.0351563 322.960938 0 C 323.175781 -0.0195313 323.214844 0.0234375 323.214844 0.242188 C 323.214844 1.1875 323.226563 2.132813 323.210938 3.078125 C 323.199219 3.582031 323.136719 4.085938 323.097656 4.585938 C 323.070313 4.949219 323.027344 5.3125 323.011719 5.675781 C 323.003906 5.839844 322.929688 5.894531 322.789063 5.929688 C 322.316406 6.050781 321.847656 6.179688 321.378906 6.304688 C 321.328125 6.316406 321.28125 6.335938 321.238281 6.390625 C 321.289063 6.398438 321.34375 6.40625 321.394531 6.402344 C 321.976563 6.359375 322.558594 6.316406 323.140625 6.261719 C 323.210938 6.253906 323.304688 6.1875 323.328125 6.125 C 323.386719 5.960938 323.4375 5.78125 323.449219 5.609375 C 323.5 4.574219 323.542969 3.535156 323.585938 2.5 C 323.605469 1.996094 323.617188 1.492188 323.644531 0.988281 C 323.65625 0.773438 323.679688 0.78125 323.894531 0.804688 C 324.558594 0.886719 325.109375 1.238281 325.683594 1.535156 C 325.753906 1.570313 325.816406 1.6875 325.816406 1.769531 C 325.8125 2.375 325.828125 2.988281 325.765625 3.59375 C 325.675781 4.457031 325.519531 5.3125 325.398438 6.171875 C 325.371094 6.347656 325.292969 6.421875 325.109375 6.414063 C 324.84375 6.402344 324.578125 6.410156 324.3125 6.410156 C 324.25 6.410156 324.191406 6.417969 324.132813 6.417969 C 324.128906 6.4375 324.125 6.457031 324.125 6.472656 C 324.257813 6.5 324.386719 6.523438 324.519531 6.546875 C 324.859375 6.609375 325.203125 6.664063 325.546875 6.730469 C 325.652344 6.75 325.699219 6.730469 325.714844 6.609375 C 325.808594 5.925781 325.90625 5.242188 326.003906 4.558594 C 326.070313 4.101563 326.136719 3.644531 326.199219 3.183594 C 326.21875 3.042969 326.265625 2.988281 326.425781 3.007813 C 326.886719 3.074219 327.265625 3.332031 327.667969 3.535156 C 327.71875 3.558594 327.765625 3.652344 327.765625 3.714844 C 327.796875 4.609375 327.839844 5.5 327.832031 6.394531 C 327.824219 7.132813 327.75 7.875 327.710938 8.617188 C 327.6875 8.984375 327.714844 9.363281 327.644531 9.726563 C 327.558594 10.191406 327.398438 10.640625 327.265625 11.097656 C 327.195313 11.332031 327.105469 11.558594 327.050781 11.792969 C 326.992188 12.035156 326.859375 12.207031 326.65625 12.339844 C 326.503906 12.445313 326.371094 12.578125 326.214844 12.679688 C 326.097656 12.761719 326.054688 12.863281 326.066406 13.003906 C 326.113281 13.582031 326.15625 14.160156 326.199219 14.738281 C 326.222656 15.09375 326.25 15.453125 326.273438 15.808594 C 326.328125 16.597656 326.386719 17.382813 326.441406 18.167969 C 326.480469 18.730469 326.515625 19.289063 326.554688 19.851563 C 326.59375 20.433594 326.640625 21.015625 326.679688 21.601563 C 326.683594 21.683594 326.671875 21.777344 326.632813 21.847656 C 326.519531 22.0625 326.390625 22.273438 326.257813 22.476563 C 326.214844 22.546875 326.140625 22.605469 326.066406 22.648438 C 325.257813 23.117188 324.441406 23.585938 323.625 24.046875 C 323.53125 24.097656 323.417969 24.125 323.3125 24.128906 C 322.972656 24.148438 322.628906 24.160156 322.285156 24.164063 C 322.203125 24.164063 322.113281 24.144531 322.035156 24.113281 C 321.0625 23.738281 320.089844 23.359375 319.125 22.96875 C 319.011719 22.925781 318.921875 22.824219 318.835938 22.738281 C 318.511719 22.40625 318.492188 21.992188 318.511719 21.558594 C 318.546875 20.699219 318.5625 19.839844 318.578125 18.984375 C 318.59375 18.019531 318.601563 17.054688 318.617188 16.09375 C 318.636719 15.066406 318.660156 14.039063 318.6875 13.011719 C 318.695313 12.84375 318.652344 12.722656 318.507813 12.617188 C 317.695313 12.019531 317 11.296875 316.277344 10.597656 C 316.210938 10.53125 316.15625 10.410156 316.152344 10.3125 C 316.097656 9.105469 316.054688 7.890625 316.011719 6.679688 C 316.003906 6.425781 315.972656 6.164063 316.015625 5.917969 C 316.0625 5.671875 316.183594 5.441406 316.289063 5.210938 C 316.3125 5.164063 316.40625 5.140625 316.472656 5.125 C 317.542969 4.902344 318.613281 4.679688 319.6875 4.460938 C 319.90625 4.414063 319.917969 4.425781 319.964844 4.644531 C 320.039063 4.992188 320.105469 5.339844 320.179688 5.683594 C 320.214844 5.835938 320.144531 5.933594 320.058594 6.042969 C 319.640625 6.566406 319.226563 7.097656 318.8125 7.625 C 318.78125 7.667969 318.761719 7.722656 318.734375 7.769531 C 318.746094 7.777344 318.757813 7.789063 318.765625 7.796875" stroke-linecap="round" />
</g>
<g transform="matrix(1.64 0 0 1.64 372.46 55.89)"  >
<path style="stroke: none; stroke-width: 1; stroke-dasharray: none; stroke-linecap: butt; stroke-dashoffset: 0; stroke-linejoin: miter; stroke-miterlimit: 4; fill: rgb(33,28,30); fill-rule: nonzero; opacity: 1;"  transform=" translate(-319.18, -2.68)" d="M 320.511719 2.492188 C 320.511719 2.882813 320.515625 3.277344 320.511719 3.671875 C 320.507813 3.917969 320.328125 4.015625 320.078125 3.992188 C 319.871094 3.972656 319.65625 4.027344 319.445313 4.054688 C 318.960938 4.128906 318.472656 4.199219 317.988281 4.273438 C 317.863281 4.292969 317.808594 4.246094 317.824219 4.125 C 317.925781 3.386719 318.027344 2.65625 318.140625 1.921875 C 318.148438 1.855469 318.222656 1.78125 318.285156 1.75 C 318.722656 1.535156 319.148438 1.292969 319.605469 1.132813 C 319.859375 1.042969 320.164063 1.089844 320.445313 1.09375 C 320.476563 1.09375 320.53125 1.210938 320.53125 1.269531 C 320.539063 1.679688 320.535156 2.085938 320.535156 2.492188" stroke-linecap="round" />
</g>
</svg>