<?xml version="1.0" encoding="UTF-8" standalone="no" ?>
<!DOCTYPE svg PUBLIC "-//W3C//DTD SVG 1.1//EN" "http://www.w3.org/Graphics/SVG/1.1/DTD/svg11.dtd">
<svg xmlns="http://www.w3.org/2000/svg" xmlns:xlink="http://www.w3.org/1999/xlink" version="1.1" width="40" height="40" viewBox="0 0 40 40" xml:space="preserve">
<desc>Created with Fabric.js 4.6.0</desc>
<defs>
</defs>
<g transform="matrix(1.38 0 0 1.32 19.5 23.5)" id="2UfvYxni4392cX-bY4nfv"  >
<path style="stroke: none; stroke-width: 1; stroke-dasharray: none; stroke-linecap: butt; stroke-dashoffset: 0; stroke-linejoin: miter; stroke-miterlimit: 4; fill: rgb(33,28,30); fill-rule: nonzero; opacity: 1;" vector-effect="non-scaling-stroke"  transform=" translate(-142.6, -15.48)" d="M 144.144531 12.761719 C 143.984375 12.578125 143.828125 12.398438 143.664063 12.214844 C 143.644531 12.1875 143.613281 12.164063 143.578125 12.128906 C 143.457031 12.164063 143.328125 12.199219 143.195313 12.238281 L 143.195313 13.496094 C 143.125 13.574219 143.0625 13.644531 142.996094 13.71875 C 143.015625 14.753906 143.035156 15.796875 143.050781 16.839844 C 143.066406 17.753906 143.070313 18.671875 143.082031 19.585938 C 143.089844 20.296875 143.09375 21.007813 143.117188 21.71875 C 143.121094 21.871094 143.183594 22.03125 143.246094 22.171875 C 143.363281 22.4375 143.421875 22.699219 143.40625 22.988281 C 143.390625 23.226563 143.402344 23.460938 143.402344 23.730469 C 143.214844 23.855469 143 24.015625 142.761719 24.132813 C 142.664063 24.179688 142.496094 24.167969 142.394531 24.117188 C 142.175781 24.003906 141.976563 23.851563 141.796875 23.730469 C 141.796875 23.34375 141.773438 22.976563 141.804688 22.613281 C 141.820313 22.425781 141.917969 22.242188 141.996094 22.0625 C 142.0625 21.90625 142.085938 21.742188 142.089844 21.570313 C 142.09375 20.546875 142.105469 19.523438 142.121094 18.5 C 142.140625 16.953125 142.167969 15.40625 142.195313 13.863281 C 142.195313 13.8125 142.195313 13.765625 142.195313 13.714844 C 142.132813 13.644531 142.070313 13.574219 142.003906 13.5 L 142.003906 12.242188 C 141.875 12.203125 141.75 12.167969 141.609375 12.125 C 141.421875 12.339844 141.234375 12.550781 141.046875 12.761719 C 141.042969 12.757813 141.039063 12.753906 141.035156 12.75 C 141.101563 12.535156 141.167969 12.324219 141.234375 12.113281 C 141.25 12.058594 141.269531 12.003906 141.28125 11.964844 C 141.0625 11.757813 140.851563 11.5625 140.605469 11.332031 C 140.359375 11.410156 140.066406 11.5 139.78125 11.589844 C 139.773438 11.585938 139.769531 11.578125 139.765625 11.574219 C 139.980469 11.378906 140.199219 11.183594 140.40625 11 C 140.316406 10.695313 140.230469 10.398438 140.140625 10.085938 C 139.886719 10.035156 139.609375 9.976563 139.335938 9.921875 C 139.332031 9.914063 139.328125 9.90625 139.328125 9.902344 C 139.59375 9.847656 139.863281 9.792969 140.132813 9.738281 C 140.210938 9.421875 140.289063 9.105469 140.367188 8.789063 C 140.164063 8.609375 139.960938 8.429688 139.757813 8.246094 C 139.761719 8.242188 139.765625 8.238281 139.765625 8.230469 C 140.03125 8.316406 140.292969 8.402344 140.535156 8.484375 C 140.773438 8.238281 141.007813 8.003906 141.246094 7.761719 C 141.171875 7.53125 141.089844 7.277344 140.996094 6.992188 C 141.199219 7.21875 141.371094 7.417969 141.53125 7.597656 C 141.859375 7.507813 142.164063 7.425781 142.480469 7.34375 C 142.515625 7.167969 142.550781 6.984375 142.585938 6.792969 C 142.59375 6.792969 142.601563 6.792969 142.605469 6.789063 C 142.644531 6.976563 142.679688 7.164063 142.714844 7.339844 C 143.023438 7.425781 143.328125 7.507813 143.664063 7.597656 C 143.820313 7.421875 143.996094 7.222656 144.195313 6.996094 C 144.105469 7.277344 144.023438 7.527344 143.949219 7.761719 C 144.183594 8 144.414063 8.234375 144.660156 8.484375 C 144.867188 8.414063 145.09375 8.335938 145.328125 8.261719 C 145.355469 8.253906 145.386719 8.253906 145.414063 8.25 L 145.414063 8.246094 C 145.21875 8.429688 145.027344 8.613281 144.828125 8.796875 C 144.90625 9.101563 144.984375 9.417969 145.0625 9.738281 C 145.324219 9.789063 145.59375 9.84375 145.863281 9.898438 C 145.863281 9.90625 145.867188 9.910156 145.867188 9.917969 C 145.589844 9.976563 145.316406 10.03125 145.050781 10.085938 C 144.964844 10.386719 144.882813 10.683594 144.789063 11 C 144.988281 11.175781 145.203125 11.371094 145.421875 11.566406 C 145.417969 11.574219 145.414063 11.582031 145.414063 11.585938 C 145.128906 11.5 144.839844 11.410156 144.585938 11.332031 C 144.351563 11.554688 144.140625 11.757813 143.917969 11.964844 C 143.996094 12.214844 144.078125 12.484375 144.160156 12.75 C 144.15625 12.753906 144.148438 12.757813 144.144531 12.761719" stroke-linecap="round" />
</g>
<g transform="matrix(1.32 0 0 1.34 19.5 13.5)" id="2OoUZubx5eR5B_M4yR7NH"  >
<path style="stroke: none; stroke-width: 1; stroke-dasharray: none; stroke-linecap: butt; stroke-dashoffset: 0; stroke-linejoin: miter; stroke-miterlimit: 4; fill: rgb(33,28,30); fill-rule: nonzero; opacity: 1;" vector-effect="non-scaling-stroke"  transform=" translate(-142.6, -7.84)" d="M 147.078125 15.691406 C 146.527344 14.921875 145.980469 14.152344 145.449219 13.402344 C 145.675781 13.089844 145.910156 12.804688 146.101563 12.5 C 146.441406 11.949219 146.644531 11.34375 146.730469 10.703125 C 146.917969 9.320313 146.628906 8.054688 145.765625 6.945313 C 145.152344 6.160156 144.355469 5.636719 143.363281 5.5 C 142.234375 5.34375 141.148438 5.464844 140.199219 6.1875 C 139.335938 6.847656 138.808594 7.722656 138.546875 8.765625 C 138.414063 9.28125 138.375 9.808594 138.417969 10.332031 C 138.507813 11.472656 138.914063 12.484375 139.714844 13.316406 C 139.730469 13.332031 139.742188 13.351563 139.765625 13.378906 C 139.214844 14.152344 138.664063 14.921875 138.113281 15.6875 L 138.113281 15.683594 C 138.179688 15.382813 138.230469 15.078125 138.308594 14.777344 C 138.367188 14.546875 138.386719 14.316406 138.386719 14.082031 C 138.382813 13.839844 138.402344 13.597656 138.394531 13.355469 C 138.390625 13.21875 138.375 13.074219 138.324219 12.945313 C 138.117188 12.386719 137.898438 11.839844 137.679688 11.289063 C 137.65625 11.230469 137.621094 11.175781 137.578125 11.132813 C 137.164063 10.753906 136.757813 10.363281 136.328125 10 C 136.183594 9.878906 135.988281 9.816406 135.8125 9.726563 C 135.695313 9.667969 135.578125 9.613281 135.421875 9.535156 C 135.644531 9.484375 135.828125 9.433594 136.015625 9.40625 C 136.378906 9.347656 136.707031 9.238281 137 9.007813 C 137.191406 8.859375 137.402344 8.734375 137.613281 8.609375 C 137.777344 8.507813 137.90625 8.382813 137.992188 8.210938 C 138.011719 8.175781 138.03125 8.140625 138.054688 8.109375 C 138.355469 7.75 138.476563 7.320313 138.546875 6.867188 C 138.558594 6.78125 138.570313 6.691406 138.597656 6.609375 C 138.699219 6.304688 138.554688 6.027344 138.503906 5.738281 C 138.453125 5.460938 138.382813 5.1875 138.316406 4.886719 C 138.5625 4.972656 138.792969 5.039063 139.007813 5.132813 C 139.265625 5.246094 139.515625 5.25 139.78125 5.175781 C 139.984375 5.121094 140.203125 5.109375 140.40625 5.050781 C 140.601563 5 140.789063 4.921875 140.976563 4.839844 C 141.175781 4.753906 141.410156 4.699219 141.554688 4.554688 C 141.695313 4.410156 141.742188 4.167969 141.828125 3.96875 C 141.910156 3.785156 141.984375 3.59375 142.078125 3.414063 C 142.199219 3.183594 142.21875 2.9375 142.246094 2.695313 C 142.289063 2.363281 142.332031 2.035156 142.371094 1.703125 C 142.414063 1.378906 142.449219 1.058594 142.488281 0.738281 C 142.519531 0.492188 142.550781 0.246094 142.605469 -0.00390625 C 142.621094 0.0742188 142.636719 0.148438 142.644531 0.226563 C 142.695313 0.625 142.738281 1.019531 142.785156 1.417969 C 142.835938 1.8125 142.890625 2.210938 142.941406 2.605469 C 142.960938 2.734375 142.953125 2.867188 142.984375 2.992188 C 143.027344 3.160156 143.089844 3.328125 143.15625 3.488281 C 143.308594 3.847656 143.46875 4.203125 143.628906 4.570313 C 143.941406 4.714844 144.257813 4.886719 144.589844 5.007813 C 144.832031 5.09375 145.097656 5.113281 145.355469 5.164063 C 145.398438 5.171875 145.441406 5.175781 145.484375 5.191406 C 145.761719 5.292969 146.011719 5.199219 146.265625 5.101563 C 146.460938 5.027344 146.65625 4.964844 146.875 4.886719 C 146.828125 5.101563 146.789063 5.292969 146.746094 5.488281 C 146.691406 5.746094 146.609375 6 146.578125 6.261719 C 146.558594 6.425781 146.601563 6.601563 146.632813 6.769531 C 146.675781 7.011719 146.730469 7.253906 146.785156 7.496094 C 146.796875 7.542969 146.808594 7.589844 146.835938 7.628906 C 146.992188 7.886719 147.15625 8.140625 147.320313 8.394531 C 147.351563 8.441406 147.394531 8.484375 147.441406 8.511719 C 147.804688 8.753906 148.164063 9.003906 148.539063 9.226563 C 148.683594 9.3125 148.871094 9.332031 149.042969 9.375 C 149.269531 9.429688 149.503906 9.472656 149.769531 9.53125 C 149.679688 9.578125 149.628906 9.613281 149.566406 9.636719 C 149.09375 9.824219 148.691406 10.113281 148.328125 10.472656 C 148.101563 10.699219 147.855469 10.90625 147.621094 11.128906 C 147.578125 11.167969 147.539063 11.222656 147.519531 11.28125 C 147.289063 11.859375 147.0625 12.441406 146.839844 13.023438 C 146.808594 13.101563 146.796875 13.195313 146.796875 13.28125 C 146.792969 13.445313 146.820313 13.613281 146.808594 13.777344 C 146.765625 14.3125 146.886719 14.828125 147.015625 15.339844 C 147.042969 15.453125 147.054688 15.574219 147.070313 15.6875" stroke-linecap="round" />
</g>
<g transform="matrix(0 0 0 0 24 15)" id="Lffl5VX-L2SqSpzSw4KvK"  >
<path style="stroke: none; stroke-width: 1; stroke-dasharray: none; stroke-linecap: butt; stroke-dashoffset: 0; stroke-linejoin: miter; stroke-miterlimit: 4; fill: rgb(33,28,30); fill-rule: nonzero; opacity: 1;" vector-effect="non-scaling-stroke"  transform=" translate(-145.42, -8.25)" d="M 145.414063 8.25 C 145.421875 8.242188 145.425781 8.238281 145.417969 8.242188 C 145.425781 8.242188 145.421875 8.242188 145.414063 8.246094" stroke-linecap="round" />
</g>
<g transform="matrix(0 0 0 0 18 21)" id="7E_v_SYhXEG6n5Naf0RLW"  >
<path style="stroke: none; stroke-width: 1; stroke-dasharray: none; stroke-linecap: butt; stroke-dashoffset: 0; stroke-linejoin: miter; stroke-miterlimit: 4; fill: rgb(33,28,30); fill-rule: nonzero; opacity: 1;" vector-effect="non-scaling-stroke"  transform=" translate(-141.03, -12.78)" d="M 141.050781 12.761719 L 141.027344 12.800781 C 141.023438 12.796875 141.019531 12.792969 141.011719 12.792969 C 141.019531 12.777344 141.027344 12.765625 141.035156 12.75 C 141.039063 12.753906 141.042969 12.757813 141.050781 12.761719" stroke-linecap="round" />
</g>
<g transform="matrix(0 0 0 0 22 21)" id="_7kwnEbQ5ckVNFhwGHoSn"  >
<path style="stroke: none; stroke-width: 1; stroke-dasharray: none; stroke-linecap: butt; stroke-dashoffset: 0; stroke-linejoin: miter; stroke-miterlimit: 4; fill: rgb(33,28,30); fill-rule: nonzero; opacity: 1;" vector-effect="non-scaling-stroke"  transform=" translate(-144.16, -12.78)" d="M 144.160156 12.75 C 144.167969 12.765625 144.175781 12.777344 144.183594 12.792969 C 144.179688 12.796875 144.171875 12.800781 144.164063 12.800781 C 144.160156 12.789063 144.152344 12.773438 144.144531 12.761719 C 144.148438 12.757813 144.15625 12.753906 144.160156 12.75" stroke-linecap="round" />
</g>
<g transform="matrix(0 0 0 0 14 25)" id="dWemDz1DkAblXTill9f7H"  >
<path style="stroke: none; stroke-width: 1; stroke-dasharray: none; stroke-linecap: butt; stroke-dashoffset: 0; stroke-linejoin: miter; stroke-miterlimit: 4; fill: rgb(33,28,30); fill-rule: nonzero; opacity: 1;" vector-effect="non-scaling-stroke"  transform=" translate(-138.11, -15.69)" d="M 138.113281 15.691406 C 138.113281 15.6875 138.113281 15.683594 138.109375 15.683594 L 138.109375 15.691406 L 138.113281 15.683594 C 138.113281 15.683594 138.113281 15.691406 138.113281 15.691406" stroke-linecap="round" />
</g>
<g transform="matrix(0 0 0 0 26 25)" id="cfheFZRJQzOVH5H3wcmbr"  >
<path style="stroke: none; stroke-width: 1; stroke-dasharray: none; stroke-linecap: butt; stroke-dashoffset: 0; stroke-linejoin: miter; stroke-miterlimit: 4; fill: rgb(33,28,30); fill-rule: nonzero; opacity: 1;" vector-effect="non-scaling-stroke"  transform=" translate(-147.08, -15.69)" d="M 147.070313 15.691406 C 147.074219 15.691406 147.078125 15.6875 147.082031 15.6875 C 147.078125 15.691406 147.078125 15.691406 147.078125 15.691406" stroke-linecap="round" />
</g>
</svg>