<?xml version="1.0" encoding="UTF-8" standalone="no" ?>
<!DOCTYPE svg PUBLIC "-//W3C//DTD SVG 1.1//EN" "http://www.w3.org/Graphics/SVG/1.1/DTD/svg11.dtd">
<svg xmlns="http://www.w3.org/2000/svg" xmlns:xlink="http://www.w3.org/1999/xlink" version="1.1" width="40" height="40" viewBox="0 0 40 40" xml:space="preserve">
<desc>Created with Fabric.js 4.6.0</desc>
<defs>
</defs>
<g transform="matrix(1.3 0 0 1.32 19.5 20)" id="VhZSiDQFVqrGcfJNC_Woh"  >
<path style="stroke: none; stroke-width: 1; stroke-dasharray: none; stroke-linecap: butt; stroke-dashoffset: 0; stroke-linejoin: miter; stroke-miterlimit: 4; fill: rgb(33,28,30); fill-rule: nonzero; opacity: 1;" vector-effect="non-scaling-stroke"  transform=" translate(-198.32, -12.08)" d="M 199.601563 20.417969 C 199.59375 20.414063 199.585938 20.410156 199.578125 20.40625 L 199.558594 20.457031 C 199.5625 20.460938 199.574219 20.464844 199.578125 20.46875 C 199.585938 20.449219 199.59375 20.4375 199.601563 20.417969 M 205.609375 2.003906 C 205.472656 1.976563 205.339844 1.949219 205.203125 1.917969 C 204.828125 1.835938 204.445313 1.75 204.066406 1.660156 C 203.695313 1.574219 203.320313 1.492188 202.949219 1.394531 C 202.535156 1.285156 202.113281 1.261719 201.691406 1.3125 C 201.628906 1.332031 201.570313 1.363281 201.507813 1.367188 C 201.039063 1.390625 200.570313 1.390625 200.105469 1.4375 C 199.785156 1.464844 199.46875 1.542969 199.160156 1.617188 C 198.851563 1.6875 198.542969 1.765625 198.246094 1.867188 C 197.550781 2.105469 196.921875 2.464844 196.375 2.945313 C 195.964844 3.3125 195.644531 3.753906 195.371094 4.230469 C 195.117188 4.675781 194.9375 5.152344 194.839844 5.652344 C 194.746094 6.113281 194.742188 6.578125 194.859375 7.042969 C 195.027344 7.703125 195.328125 8.296875 195.765625 8.808594 C 195.976563 9.058594 196.246094 9.257813 196.496094 9.464844 C 196.78125 9.691406 197.070313 9.90625 197.371094 10.136719 L 197.976563 10.136719 C 198.171875 10.289063 198.179688 10.507813 198.160156 10.738281 C 198.121094 11.128906 198.085938 11.519531 198.046875 11.90625 C 198.039063 12.023438 198.023438 12.136719 198.015625 12.246094 C 198.367188 12.484375 198.429688 12.632813 198.386719 13.152344 C 198.371094 13.382813 198.320313 13.613281 198.316406 13.84375 C 198.3125 14.054688 198.363281 14.265625 198.367188 14.476563 C 198.367188 14.808594 198.34375 15.140625 198.339844 15.476563 C 198.335938 15.894531 198.339844 16.316406 198.335938 16.734375 C 198.328125 17.15625 198.3125 17.574219 198.3125 17.996094 C 198.3125 18.113281 198.363281 18.226563 198.367188 18.34375 C 198.371094 18.46875 198.339844 18.59375 198.339844 18.714844 C 198.347656 19.121094 198.359375 19.527344 198.367188 19.933594 C 198.371094 20.214844 198.371094 20.488281 198.378906 20.769531 C 198.382813 20.988281 198.398438 21.210938 198.410156 21.457031 C 198.796875 21.214844 199.0625 20.890625 199.238281 20.480469 C 199.246094 20.488281 199.257813 20.496094 199.269531 20.503906 C 199.269531 20.496094 199.273438 20.484375 199.269531 20.476563 C 199.171875 20.214844 199.246094 19.984375 199.367188 19.75 C 199.417969 19.648438 199.394531 19.507813 199.40625 19.382813 C 199.414063 19.3125 199.421875 19.242188 199.429688 19.171875 C 199.496094 19.148438 199.554688 19.125 199.609375 19.105469 C 199.65625 18.972656 199.558594 18.917969 199.484375 18.867188 C 199.1875 18.640625 199.039063 18.328125 198.984375 17.972656 C 198.972656 17.890625 199.003906 17.804688 199.015625 17.707031 C 199.234375 17.664063 199.433594 17.726563 199.621094 17.820313 L 199.660156 17.796875 C 199.632813 17.746094 199.621094 17.683594 199.582031 17.644531 C 199.390625 17.4375 199.222656 17.210938 199.199219 16.917969 C 199.1875 16.78125 199.195313 16.636719 199.234375 16.507813 C 199.308594 16.269531 199.570313 16.210938 199.804688 16.359375 C 199.863281 16.398438 199.925781 16.429688 199.984375 16.464844 C 200.078125 16.375 200.117188 16.296875 200.089844 16.183594 C 200.039063 15.945313 199.992188 15.710938 199.976563 15.472656 C 199.949219 15.144531 200.035156 14.828125 200.191406 14.542969 C 200.238281 14.457031 200.339844 14.394531 200.425781 14.347656 C 200.5625 14.273438 200.664063 14.316406 200.746094 14.445313 C 200.800781 14.53125 200.855469 14.621094 200.90625 14.710938 C 201.085938 14.679688 201.117188 14.53125 201.179688 14.421875 C 201.25 14.289063 201.316406 14.15625 201.382813 14.023438 C 201.4375 13.917969 201.496094 13.816406 201.546875 13.703125 C 201.683594 13.402344 201.914063 13.203125 202.214844 13.082031 C 202.359375 13.023438 202.644531 13.148438 202.738281 13.300781 C 202.917969 13.585938 202.984375 13.902344 203.050781 14.222656 C 203.101563 14.472656 203.140625 14.726563 203.164063 14.976563 C 203.175781 15.113281 203.144531 15.253906 203.128906 15.394531 C 203.109375 15.527344 203.140625 15.554688 203.273438 15.554688 C 203.378906 15.550781 203.503906 15.539063 203.585938 15.589844 C 203.671875 15.640625 203.734375 15.753906 203.769531 15.855469 C 203.859375 16.109375 203.785156 16.355469 203.695313 16.597656 C 203.558594 16.976563 203.285156 17.238281 202.96875 17.472656 C 202.796875 17.605469 202.628906 17.746094 202.433594 17.90625 C 202.550781 17.957031 202.628906 17.996094 202.710938 18.027344 C 202.914063 18.101563 202.984375 18.273438 203.019531 18.460938 C 203.058594 18.648438 202.960938 18.792969 202.816406 18.898438 C 202.640625 19.03125 202.453125 19.136719 202.210938 19.132813 C 202.089844 19.128906 201.972656 19.191406 201.851563 19.214844 C 201.683594 19.238281 201.515625 19.25 201.34375 19.273438 C 201.308594 19.28125 201.269531 19.308594 201.21875 19.335938 C 201.308594 19.402344 201.386719 19.464844 201.457031 19.519531 C 201.421875 19.699219 201.324219 19.8125 201.1875 19.898438 C 200.957031 20.050781 200.734375 20.222656 200.496094 20.359375 C 200.273438 20.488281 200.042969 20.597656 199.804688 20.679688 C 199.722656 20.707031 199.605469 20.625 199.511719 20.59375 C 199.414063 20.742188 199.304688 20.917969 199.191406 21.09375 C 199.09375 21.078125 198.539063 21.59375 198.390625 21.847656 C 198.421875 22.023438 198.421875 22.230469 198.488281 22.417969 C 198.589844 22.703125 198.546875 22.980469 198.5 23.257813 C 198.464844 23.449219 198.394531 23.644531 198.300781 23.816406 C 198.214844 23.984375 198.054688 24.089844 197.859375 24.105469 C 197.554688 24.128906 197.25 24.144531 196.945313 24.160156 C 196.921875 24.164063 196.898438 24.160156 196.855469 24.160156 C 196.761719 24.035156 196.667969 23.898438 196.566406 23.769531 C 196.535156 23.730469 196.492188 23.683594 196.445313 23.671875 C 196.191406 23.605469 196.050781 23.394531 195.855469 23.238281 C 195.867188 22.929688 195.863281 22.621094 195.902344 22.320313 C 195.9375 22.09375 195.972656 21.835938 196.230469 21.757813 C 196.585938 21.324219 196.519531 20.839844 196.484375 20.355469 C 196.476563 20.203125 196.5 20.050781 196.503906 19.949219 C 196.054688 19.546875 195.636719 19.171875 195.261719 18.835938 C 195.078125 18.785156 194.941406 18.761719 194.816406 18.714844 C 194.4375 18.570313 194.105469 18.347656 193.796875 18.097656 C 193.734375 18.046875 193.644531 18.023438 193.589844 17.96875 C 193.496094 17.882813 193.417969 17.773438 193.320313 17.65625 C 193.429688 17.574219 193.507813 17.515625 193.625 17.421875 C 193.464844 17.386719 193.339844 17.347656 193.210938 17.328125 C 193.046875 17.300781 192.875 17.28125 192.707031 17.257813 C 192.644531 17.25 192.585938 17.242188 192.523438 17.234375 C 192.238281 17.195313 191.996094 17.078125 191.851563 16.820313 C 191.714844 16.585938 191.828125 16.265625 192.078125 16.152344 C 192.164063 16.109375 192.257813 16.070313 192.371094 16.019531 C 192.289063 15.941406 192.226563 15.875 192.15625 15.816406 C 191.964844 15.660156 191.757813 15.519531 191.566406 15.355469 C 191.296875 15.117188 191.136719 14.8125 191.046875 14.464844 C 190.980469 14.21875 191.007813 13.988281 191.128906 13.769531 C 191.152344 13.730469 191.207031 13.695313 191.253906 13.6875 C 191.371094 13.667969 191.496094 13.664063 191.65625 13.652344 C 191.664063 13.632813 191.703125 13.578125 191.695313 13.53125 C 191.585938 12.867188 191.761719 12.25 191.964844 11.632813 C 192.050781 11.371094 192.214844 11.207031 192.496094 11.183594 C 192.539063 11.183594 192.582031 11.191406 192.621094 11.203125 C 192.9375 11.328125 193.15625 11.550781 193.289063 11.863281 C 193.371094 12.046875 193.488281 12.214844 193.585938 12.390625 C 193.628906 12.472656 193.648438 12.5625 193.695313 12.640625 C 193.742188 12.710938 193.808594 12.769531 193.882813 12.859375 C 193.949219 12.753906 193.996094 12.6875 194.035156 12.617188 C 194.171875 12.378906 194.378906 12.355469 194.566406 12.566406 C 194.726563 12.746094 194.769531 12.976563 194.816406 13.199219 C 194.882813 13.554688 194.828125 13.898438 194.734375 14.242188 C 194.703125 14.359375 194.710938 14.46875 194.828125 14.566406 C 194.914063 14.523438 195.003906 14.472656 195.101563 14.429688 C 195.367188 14.320313 195.550781 14.421875 195.609375 14.707031 C 195.675781 15.046875 195.578125 15.34375 195.359375 15.601563 C 195.308594 15.660156 195.253906 15.71875 195.210938 15.777344 C 195.183594 15.816406 195.175781 15.863281 195.148438 15.945313 C 195.382813 15.839844 195.578125 15.773438 195.796875 15.8125 C 195.890625 16.167969 195.761719 16.460938 195.566406 16.730469 C 195.496094 16.824219 195.394531 16.898438 195.3125 16.984375 C 195.261719 17.042969 195.21875 17.105469 195.15625 17.183594 C 195.253906 17.226563 195.3125 17.25 195.390625 17.285156 C 195.394531 17.347656 195.414063 17.425781 195.40625 17.496094 C 195.390625 17.6875 195.421875 17.867188 195.519531 18.023438 C 195.664063 18.25 195.585938 18.453125 195.492188 18.671875 C 195.53125 18.703125 195.574219 18.738281 195.617188 18.773438 C 195.605469 18.78125 195.589844 18.789063 195.578125 18.796875 C 195.621094 18.882813 195.636719 18.992188 195.703125 19.046875 C 195.925781 19.234375 196.140625 19.441406 196.4375 19.519531 C 196.453125 19.523438 196.472656 19.527344 196.515625 19.535156 C 196.449219 17.292969 196.375 15.0625 196.445313 12.863281 C 196.554688 12.71875 196.640625 12.589844 196.738281 12.472656 C 196.796875 12.40625 196.875 12.363281 196.941406 12.3125 C 196.941406 12.074219 196.957031 11.820313 196.9375 11.566406 C 196.929688 11.480469 196.847656 11.382813 196.773438 11.328125 C 196.582031 11.199219 196.371094 11.097656 196.175781 10.976563 C 195.859375 10.78125 195.53125 10.597656 195.230469 10.375 C 194.941406 10.160156 194.664063 9.925781 194.410156 9.671875 C 194.03125 9.289063 193.746094 8.839844 193.535156 8.339844 C 193.34375 7.890625 193.191406 7.429688 193.148438 6.945313 C 193.117188 6.578125 193.121094 6.207031 193.140625 5.839844 C 193.164063 5.320313 193.273438 4.8125 193.460938 4.324219 C 193.691406 3.71875 193.996094 3.15625 194.402344 2.648438 C 194.933594 1.984375 195.546875 1.417969 196.28125 0.992188 C 196.519531 0.855469 196.757813 0.710938 197.003906 0.578125 C 197.078125 0.539063 197.167969 0.535156 197.246094 0.507813 C 197.515625 0.417969 197.78125 0.304688 198.050781 0.234375 C 198.359375 0.160156 198.671875 0.109375 198.988281 0.0664063 C 199.640625 -0.0195313 200.300781 -0.0195313 200.953125 0.0351563 C 201.617188 0.0898438 202.269531 0.167969 202.914063 0.335938 C 203.363281 0.453125 203.765625 0.644531 204.164063 0.863281 C 204.351563 0.972656 204.5625 1.035156 204.738281 1.15625 C 204.945313 1.300781 205.128906 1.480469 205.316406 1.652344 C 205.425781 1.746094 205.523438 1.855469 205.621094 1.957031 C 205.617188 1.972656 205.613281 1.988281 205.609375 2.003906" stroke-linecap="round" />
</g>
</svg>