<?xml version="1.0" encoding="UTF-8" standalone="no" ?>
<!DOCTYPE svg PUBLIC "-//W3C//DTD SVG 1.1//EN" "http://www.w3.org/Graphics/SVG/1.1/DTD/svg11.dtd">
<svg xmlns="http://www.w3.org/2000/svg" xmlns:xlink="http://www.w3.org/1999/xlink" version="1.1" width="40" height="40" viewBox="0 0 40 40" xml:space="preserve">
<desc>Created with Fabric.js 4.6.0</desc>
<defs>
</defs>
<g transform="matrix(1.28 0 0 1.33 19 22.5)" id="gXdRxP5SoiC0Cvh0L47qs"  >
<path style="stroke: none; stroke-width: 1; stroke-dasharray: none; stroke-linecap: butt; stroke-dashoffset: 0; stroke-linejoin: miter; stroke-miterlimit: 4; fill: rgb(33,28,30); fill-rule: nonzero; opacity: 1;" vector-effect="non-scaling-stroke"  transform=" translate(-264.06, -14)" d="M 259.769531 3.839844 C 260.039063 4.035156 260.269531 4.191406 260.484375 4.367188 C 260.914063 4.71875 261.410156 4.917969 261.953125 4.988281 C 262.359375 5.042969 262.742188 5 263.128906 4.828125 C 263.453125 4.683594 263.695313 4.488281 263.859375 4.179688 C 263.914063 4.082031 263.980469 3.992188 264.058594 3.878906 C 264.179688 4.0625 264.304688 4.230469 264.410156 4.40625 C 264.496094 4.558594 264.617188 4.660156 264.78125 4.722656 C 264.902344 4.769531 265.011719 4.835938 265.128906 4.886719 C 265.484375 5.039063 265.855469 5.027344 266.234375 4.980469 C 266.9375 4.894531 267.480469 4.503906 268.007813 4.085938 C 268.101563 4.015625 268.199219 3.949219 268.292969 3.878906 C 268.300781 3.875 268.3125 3.875 268.339844 3.871094 C 268.34375 3.921875 268.351563 3.96875 268.351563 4.015625 C 268.347656 4.613281 268.339844 5.207031 268.335938 5.808594 C 268.335938 8.425781 268.332031 11.042969 268.328125 13.660156 C 268.328125 14.480469 268.316406 15.296875 268.3125 16.113281 C 268.3125 16.816406 268.324219 17.519531 268.308594 18.222656 C 268.300781 18.566406 268.242188 18.910156 268.199219 19.253906 C 268.164063 19.511719 268.125 19.769531 268.085938 20.023438 C 268.074219 20.082031 268.050781 20.144531 268.015625 20.1875 C 267.710938 20.550781 267.414063 20.921875 267.082031 21.261719 C 266.855469 21.492188 266.585938 21.6875 266.324219 21.875 C 265.5 22.472656 264.828125 23.21875 264.195313 24 C 264.152344 24.050781 264.109375 24.101563 264.058594 24.160156 C 263.878906 23.941406 263.710938 23.726563 263.53125 23.519531 C 262.953125 22.851563 262.328125 22.230469 261.597656 21.722656 C 260.984375 21.300781 260.554688 20.707031 260.085938 20.148438 C 259.996094 20.042969 260.007813 19.84375 259.984375 19.683594 C 259.921875 19.265625 259.867188 18.847656 259.8125 18.429688 C 259.804688 18.375 259.800781 18.316406 259.800781 18.261719 C 259.796875 15.613281 259.800781 12.960938 259.796875 10.3125 C 259.789063 8.226563 259.777344 6.136719 259.769531 4.050781 C 259.769531 3.996094 259.769531 3.941406 259.769531 3.839844" stroke-linecap="round" />
</g>
<g transform="matrix(1.28 0 0 1.35 31 12)" id="A2SR_Wp0PfzoiWAs_1Fsl"  >
<path style="stroke: none; stroke-width: 1; stroke-dasharray: none; stroke-linecap: butt; stroke-dashoffset: 0; stroke-linejoin: miter; stroke-miterlimit: 4; fill: rgb(33,28,30); fill-rule: nonzero; opacity: 1;" vector-effect="non-scaling-stroke"  transform=" translate(-273.39, -6)" d="M 272.757813 1.804688 C 273.023438 1.8125 273.222656 1.746094 273.355469 1.546875 C 273.558594 1.753906 273.75 1.949219 273.949219 2.152344 C 273.894531 2.226563 273.800781 2.3125 273.757813 2.417969 C 273.710938 2.53125 273.714844 2.65625 273.6875 2.820313 C 273.917969 3.039063 274.164063 3.28125 274.417969 3.515625 C 274.890625 3.960938 275.449219 4.265625 276.054688 4.480469 C 276.519531 4.648438 276.996094 4.796875 277.503906 4.808594 C 277.585938 4.8125 277.671875 4.785156 277.757813 4.78125 C 277.847656 4.777344 277.9375 4.78125 278.058594 4.78125 C 277.964844 5.023438 277.890625 5.242188 277.792969 5.453125 C 277.496094 6.117188 277.128906 6.738281 276.71875 7.332031 C 276.644531 7.4375 276.542969 7.519531 276.464844 7.617188 C 276.003906 8.179688 275.429688 8.613281 274.855469 9.046875 C 274.464844 9.339844 274.0625 9.617188 273.65625 9.894531 C 273.554688 9.964844 273.433594 10.015625 273.316406 10.050781 C 272.910156 10.175781 272.507813 10.292969 272.101563 10.40625 C 272.011719 10.433594 271.914063 10.433594 271.824219 10.449219 C 271.980469 10.257813 272.148438 10.082031 272.277344 9.878906 C 272.460938 9.585938 272.625 9.28125 272.78125 8.972656 C 273.066406 8.402344 273.070313 7.804688 272.953125 7.191406 C 272.914063 6.992188 272.894531 6.789063 272.851563 6.589844 C 272.828125 6.492188 272.785156 6.398438 272.730469 6.316406 C 272.425781 5.882813 272.113281 5.457031 271.800781 5.03125 C 271.75 4.960938 271.691406 4.898438 271.652344 4.851563 C 271.472656 4.914063 271.300781 4.972656 271.132813 5.039063 C 271.070313 5.066406 271.011719 5.109375 270.960938 5.15625 C 270.253906 5.859375 269.550781 6.5625 268.847656 7.265625 C 268.8125 7.296875 268.78125 7.328125 268.730469 7.375 C 268.722656 7.3125 268.71875 7.269531 268.71875 7.226563 C 268.714844 6.929688 268.722656 6.632813 268.714844 6.335938 C 268.710938 6.226563 268.746094 6.144531 268.824219 6.066406 C 269.289063 5.609375 269.742188 5.140625 270.21875 4.6875 C 270.386719 4.523438 270.488281 4.339844 270.550781 4.121094 C 270.566406 4.066406 270.59375 4 270.632813 3.960938 C 271.34375 3.238281 272.058594 2.515625 272.757813 1.804688" stroke-linecap="round" />
</g>
<g transform="matrix(1.29 0 0 1.34 8 10)" id="VOA3WtQRW_Cmx9GpraepH"  >
<path style="stroke: none; stroke-width: 1; stroke-dasharray: none; stroke-linecap: butt; stroke-dashoffset: 0; stroke-linejoin: miter; stroke-miterlimit: 4; fill: rgb(33,28,30); fill-rule: nonzero; opacity: 1;" vector-effect="non-scaling-stroke"  transform=" translate(-255.51, -4.47)" d="M 257.453125 4.839844 C 257.578125 4.8125 257.675781 4.789063 257.785156 4.765625 L 258.882813 5.917969 C 258.992188 6.03125 259.09375 6.15625 259.210938 6.261719 C 259.328125 6.367188 259.378906 6.488281 259.378906 6.648438 C 259.375 7.367188 259.378906 8.089844 259.378906 8.808594 C 259.378906 8.839844 259.367188 8.875 259.351563 8.941406 C 258.359375 7.996094 257.390625 7.074219 256.414063 6.148438 C 256.433594 6.035156 256.449219 5.925781 256.472656 5.800781 C 256.273438 5.710938 256.078125 5.621094 255.871094 5.523438 C 255.523438 5.828125 255.175781 6.132813 254.828125 6.433594 C 254.808594 6.636719 254.792969 6.824219 254.773438 7.050781 C 254.527344 7 254.289063 6.949219 254.042969 6.902344 C 254.054688 6.683594 254.074219 6.511719 254.265625 6.367188 C 254.65625 6.078125 255.015625 5.757813 255.390625 5.449219 C 255.484375 5.375 255.53125 5.292969 255.496094 5.171875 C 255.476563 5.113281 255.484375 5.050781 255.484375 4.984375 C 255.613281 4.953125 255.734375 4.929688 255.886719 4.894531 C 255.757813 4.765625 255.65625 4.664063 255.554688 4.566406 C 254.804688 3.839844 254.046875 3.117188 253.304688 2.382813 C 253.0625 2.140625 252.851563 1.871094 252.644531 1.597656 C 252.523438 1.433594 252.367188 1.363281 252.1875 1.292969 C 251.992188 1.21875 251.8125 1.101563 251.632813 1.007813 C 251.8125 0.550781 252.15625 0.203125 252.613281 -0.00390625 C 252.824219 0.1875 252.925781 0.4375 253.011719 0.699219 C 253.035156 0.773438 253.078125 0.855469 253.136719 0.898438 C 253.988281 1.535156 254.683594 2.332031 255.417969 3.089844 C 255.78125 3.460938 256.140625 3.835938 256.535156 4.242188 C 256.570313 4.09375 256.597656 3.980469 256.625 3.855469 L 257.007813 3.855469 C 257.289063 3.515625 257.578125 3.167969 257.871094 2.820313 C 257.914063 2.765625 257.964844 2.710938 257.996094 2.648438 C 258.109375 2.421875 258.3125 2.402344 258.539063 2.394531 C 258.59375 2.632813 258.644531 2.867188 258.699219 3.125 C 258.523438 3.140625 258.367188 3.148438 258.210938 3.167969 C 258.148438 3.175781 258.070313 3.191406 258.035156 3.234375 C 257.757813 3.539063 257.488281 3.851563 257.21875 4.164063 C 257.203125 4.183594 257.191406 4.207031 257.175781 4.242188 C 257.265625 4.433594 257.355469 4.632813 257.453125 4.839844" stroke-linecap="round" />
</g>
<g transform="matrix(1.32 0 0 1.34 8 29.5)" id="4wWkPgvx_Nz46Hccd8viM"  >
<path style="stroke: none; stroke-width: 1; stroke-dasharray: none; stroke-linecap: butt; stroke-dashoffset: 0; stroke-linejoin: miter; stroke-miterlimit: 4; fill: rgb(33,28,30); fill-rule: nonzero; opacity: 1;" vector-effect="non-scaling-stroke"  transform=" translate(-255.59, -19.2)" d="M 259.382813 15.105469 L 259.382813 16.324219 C 259.125 16.578125 258.855469 16.839844 258.589844 17.109375 C 257.894531 17.804688 257.199219 18.507813 256.503906 19.203125 C 255.464844 20.242188 254.421875 21.277344 253.371094 22.304688 C 253.167969 22.503906 253.007813 22.722656 252.886719 22.984375 C 252.722656 23.339844 252.378906 23.390625 252.082031 23.132813 C 251.902344 22.980469 251.804688 22.785156 251.789063 22.570313 C 251.78125 22.464844 251.890625 22.285156 251.988281 22.246094 C 252.433594 22.078125 252.730469 21.734375 253.050781 21.414063 C 253.925781 20.542969 254.800781 19.671875 255.675781 18.796875 C 256.167969 18.304688 256.652344 17.800781 257.148438 17.308594 C 257.84375 16.617188 258.542969 15.929688 259.238281 15.242188 C 259.277344 15.203125 259.316406 15.167969 259.382813 15.105469" stroke-linecap="round" />
</g>
<g transform="matrix(1.29 0 0 1.29 29.5 30)" id="74nWxF-256w36DQZTX2Qj"  >
<path style="stroke: none; stroke-width: 1; stroke-dasharray: none; stroke-linecap: butt; stroke-dashoffset: 0; stroke-linejoin: miter; stroke-miterlimit: 4; fill: rgb(33,28,30); fill-rule: nonzero; opacity: 1;" vector-effect="non-scaling-stroke"  transform=" translate(-272.18, -19.76)" d="M 268.703125 17.464844 L 268.703125 15.910156 C 268.71875 15.902344 268.730469 15.898438 268.742188 15.890625 C 268.785156 15.933594 268.832031 15.972656 268.871094 16.019531 C 270.039063 17.246094 271.203125 18.472656 272.371094 19.699219 C 272.976563 20.335938 273.589844 20.960938 274.179688 21.613281 C 274.425781 21.882813 274.621094 22.195313 274.835938 22.492188 C 275.109375 22.867188 275.378906 23.242188 275.660156 23.636719 C 275.375 23.429688 275.105469 23.234375 274.835938 23.039063 C 274.433594 22.746094 273.996094 22.488281 273.636719 22.148438 C 272.257813 20.863281 270.902344 19.558594 269.542969 18.257813 C 269.257813 17.988281 268.972656 17.71875 268.703125 17.464844" stroke-linecap="round" />
</g>
</svg>