<?xml version="1.0" encoding="UTF-8" standalone="no" ?>
<!DOCTYPE svg PUBLIC "-//W3C//DTD SVG 1.1//EN" "http://www.w3.org/Graphics/SVG/1.1/DTD/svg11.dtd">
<svg xmlns="http://www.w3.org/2000/svg" xmlns:xlink="http://www.w3.org/1999/xlink" version="1.1" width="150" height="150" viewBox="0 0 150 150" xml:space="preserve">
<desc>Created with Fabric.js 3.6.3</desc>
<defs>
</defs>
<g transform="matrix(1 0 0 1 4.5 -109.33)" style=""  >
		<text xml:space="preserve" font-family="'Open Sans', sans-serif" font-size="18" font-style="normal" font-weight="normal" style="stroke: none; stroke-width: 1; stroke-dasharray: none; stroke-linecap: butt; stroke-dashoffset: 0; stroke-linejoin: miter; stroke-miterlimit: 4; fill: rgb(0,0,0); fill-rule: nonzero; opacity: 1; white-space: pre;" ></text>
</g>
<g transform="matrix(1.64 0 0 1.64 42.99 450.1)"  >
<path style="stroke: none; stroke-width: 1; stroke-dasharray: none; stroke-linecap: butt; stroke-dashoffset: 0; stroke-linejoin: miter; stroke-miterlimit: 4; fill: rgb(33,28,30); fill-rule: nonzero; opacity: 1;"  transform=" translate(-199.39, -68.65)" d="M 199.5 68.332031 C 199.449219 68.546875 199.402344 68.761719 199.351563 68.972656 C 199.335938 68.972656 199.320313 68.96875 199.304688 68.964844 C 199.296875 68.871094 199.285156 68.777344 199.269531 68.636719 C 199.332031 68.554688 199.417969 68.445313 199.503906 68.335938" stroke-linecap="round" />
</g>
<g transform="matrix(1.64 0 0 1.64 38.8 449.64)"  >
<path style="stroke: none; stroke-width: 1; stroke-dasharray: none; stroke-linecap: butt; stroke-dashoffset: 0; stroke-linejoin: miter; stroke-miterlimit: 4; fill: rgb(33,28,30); fill-rule: nonzero; opacity: 1;"  transform=" translate(-196.83, -68.38)" d="M 196.859375 68.304688 L 196.859375 68.449219 C 196.851563 68.453125 196.839844 68.453125 196.828125 68.453125 C 196.820313 68.40625 196.8125 68.359375 196.804688 68.3125 C 196.824219 68.308594 196.84375 68.308594 196.859375 68.304688" stroke-linecap="round" />
</g>
<g transform="matrix(1.64 0 0 1.64 -15.04 79.37)"  >
<path style="stroke: none; stroke-width: 1; stroke-dasharray: none; stroke-linecap: butt; stroke-dashoffset: 0; stroke-linejoin: miter; stroke-miterlimit: 4; fill: rgb(33,28,30); fill-rule: nonzero; opacity: 1;"  transform=" translate(-30.46, -60.9)" d="M 36.382813 62.476563 C 36.601563 62.449219 36.824219 62.417969 37.042969 62.386719 C 37.195313 62.363281 37.347656 62.339844 37.527344 62.3125 C 37.484375 62.378906 37.457031 62.429688 37.425781 62.480469 C 37.257813 62.730469 37.078125 62.976563 36.921875 63.238281 C 36.839844 63.375 36.742188 63.414063 36.589844 63.414063 C 36.292969 63.402344 35.992188 63.410156 35.691406 63.410156 C 35.691406 63.425781 35.6875 63.441406 35.6875 63.457031 L 36.121094 63.660156 C 36.117188 63.667969 36.113281 63.679688 36.105469 63.6875 C 36.21875 63.714844 36.335938 63.746094 36.484375 63.785156 C 36.078125 63.988281 35.703125 64.171875 35.320313 64.359375 C 35.179688 64.199219 35.042969 64.039063 34.902344 63.878906 C 34.808594 63.769531 34.710938 63.664063 34.621094 63.546875 C 34.582031 63.496094 34.546875 63.421875 34.550781 63.359375 C 34.574219 62.941406 34.621094 62.523438 34.636719 62.105469 C 34.640625 61.953125 34.582031 61.796875 34.546875 61.644531 C 34.484375 61.367188 34.421875 61.089844 34.355469 60.804688 C 34.050781 60.851563 33.765625 60.90625 33.535156 61.132813 C 33.558594 61.492188 33.578125 61.855469 33.597656 62.214844 C 33.609375 62.394531 33.628906 62.578125 33.640625 62.757813 C 33.667969 63.285156 33.695313 63.816406 33.722656 64.34375 C 33.738281 64.667969 33.753906 64.988281 33.777344 65.3125 C 33.785156 65.386719 33.84375 65.457031 33.878906 65.535156 C 33.984375 65.753906 34.140625 65.917969 34.371094 66.015625 C 34.476563 66.0625 34.570313 66.144531 34.664063 66.207031 C 35.054688 66.3125 35.433594 66.25 35.8125 66.117188 C 35.660156 66.246094 35.511719 66.375 35.359375 66.5 C 35.105469 66.714844 34.835938 66.910156 34.605469 67.148438 C 34.433594 67.324219 34.3125 67.550781 34.175781 67.761719 C 33.660156 68.546875 33.132813 69.328125 32.640625 70.125 C 32.414063 70.488281 32.269531 70.902344 32.074219 71.285156 C 31.816406 71.792969 31.625 72.328125 31.464844 72.875 C 31.453125 72.910156 31.4375 72.945313 31.425781 72.976563 C 31.414063 72.976563 31.398438 72.976563 31.386719 72.972656 C 31.386719 72.582031 31.390625 72.195313 31.386719 71.804688 C 31.378906 71.0625 31.371094 70.316406 31.355469 69.574219 C 31.34375 68.820313 31.324219 68.070313 31.300781 67.316406 C 31.292969 66.984375 31.253906 66.65625 31.257813 66.328125 C 31.261719 66.101563 31.320313 65.875 31.363281 65.65625 C 31.4375 65.289063 31.496094 64.921875 31.601563 64.566406 C 31.65625 64.382813 31.78125 64.21875 31.894531 64.058594 C 32.253906 63.554688 32.574219 63.027344 32.832031 62.457031 C 32.847656 62.425781 32.859375 62.390625 32.886719 62.335938 C 32.632813 62.351563 32.402344 62.386719 32.167969 62.378906 C 31.777344 62.367188 31.558594 62.667969 31.273438 62.847656 C 31.15625 62.917969 31.058594 63.023438 30.941406 63.089844 C 30.765625 63.1875 30.683594 63.335938 30.636719 63.523438 C 30.597656 63.683594 30.539063 63.839844 30.488281 64 L 30.449219 64 C 30.414063 63.898438 30.367188 63.800781 30.351563 63.699219 C 30.292969 63.367188 30.117188 63.128906 29.824219 62.960938 C 29.671875 62.875 29.53125 62.765625 29.398438 62.652344 C 29.207031 62.484375 29.003906 62.375 28.738281 62.375 C 28.515625 62.375 28.292969 62.351563 28.046875 62.335938 C 28.078125 62.402344 28.097656 62.449219 28.117188 62.496094 C 28.410156 63.167969 28.851563 63.753906 29.238281 64.367188 C 29.351563 64.542969 29.390625 64.765625 29.441406 64.96875 C 29.53125 65.355469 29.621094 65.738281 29.671875 66.125 C 29.707031 66.394531 29.679688 66.664063 29.671875 66.9375 C 29.652344 67.464844 29.617188 67.996094 29.605469 68.523438 C 29.582031 69.632813 29.5625 70.746094 29.546875 71.859375 C 29.542969 72.230469 29.546875 72.601563 29.546875 72.972656 C 29.53125 72.976563 29.515625 72.976563 29.5 72.980469 C 29.4375 72.769531 29.386719 72.550781 29.300781 72.351563 C 29.097656 71.855469 28.871094 71.367188 28.664063 70.867188 C 28.359375 70.121094 27.871094 69.484375 27.441406 68.8125 C 27.109375 68.292969 26.78125 67.773438 26.425781 67.273438 C 26.292969 67.085938 26.09375 66.949219 25.917969 66.792969 C 25.65625 66.566406 25.390625 66.34375 25.128906 66.105469 C 25.5 66.246094 25.878906 66.316406 26.261719 66.207031 C 26.394531 66.125 26.515625 66.03125 26.652344 65.964844 C 26.800781 65.894531 26.898438 65.785156 26.988281 65.652344 C 27.113281 65.460938 27.160156 65.273438 27.167969 65.046875 C 27.179688 64.53125 27.230469 64.015625 27.261719 63.5 C 27.28125 63.191406 27.296875 62.882813 27.316406 62.574219 C 27.34375 62.132813 27.371094 61.695313 27.398438 61.25 C 27.398438 61.214844 27.398438 61.179688 27.398438 61.152344 C 27.167969 60.925781 26.878906 60.851563 26.554688 60.804688 C 26.511719 61 26.460938 61.195313 26.414063 61.394531 C 26.386719 61.53125 26.367188 61.671875 26.324219 61.804688 C 26.25 62.023438 26.277344 62.246094 26.289063 62.46875 C 26.296875 62.679688 26.320313 62.890625 26.335938 63.101563 C 26.335938 63.125 26.332031 63.148438 26.335938 63.167969 C 26.410156 63.386719 26.308594 63.542969 26.164063 63.699219 C 25.988281 63.886719 25.824219 64.089844 25.65625 64.289063 C 25.636719 64.3125 25.609375 64.332031 25.582031 64.359375 C 25.207031 64.171875 24.832031 63.988281 24.421875 63.785156 C 24.570313 63.746094 24.683594 63.71875 24.796875 63.6875 C 24.789063 63.679688 24.785156 63.671875 24.78125 63.664063 C 24.925781 63.59375 25.074219 63.527344 25.21875 63.457031 C 25.21875 63.453125 25.21875 63.445313 25.214844 63.441406 C 24.902344 63.429688 24.59375 63.414063 24.28125 63.414063 C 24.152344 63.410156 24.070313 63.375 24 63.261719 C 23.800781 62.953125 23.597656 62.648438 23.371094 62.3125 C 23.777344 62.375 24.148438 62.429688 24.519531 62.488281 C 24.523438 62.488281 24.523438 62.488281 24.523438 62.488281 C 24.523438 62.488281 24.519531 62.488281 24.519531 62.484375 C 24.484375 62.457031 24.457031 62.421875 24.417969 62.402344 C 24.007813 62.179688 23.597656 61.964844 23.183594 61.742188 C 23.085938 61.332031 22.984375 60.925781 22.878906 60.492188 C 23.15625 60.65625 23.414063 60.808594 23.671875 60.960938 C 23.675781 60.957031 23.683594 60.953125 23.6875 60.945313 C 23.484375 60.675781 23.269531 60.417969 23.085938 60.136719 C 22.921875 59.894531 22.789063 59.628906 22.660156 59.367188 C 22.621094 59.285156 22.628906 59.179688 22.621094 59.082031 C 22.597656 58.761719 22.585938 58.441406 22.5625 58.117188 C 22.542969 57.835938 22.523438 57.554688 22.53125 57.265625 C 22.730469 57.625 22.925781 57.980469 23.125 58.335938 C 23.136719 58.335938 23.144531 58.332031 23.152344 58.332031 C 23.136719 58.277344 23.121094 58.21875 23.105469 58.164063 L 23.101563 58.164063 C 23.113281 58.160156 23.125 58.160156 23.136719 58.15625 C 23.136719 58.15625 23.140625 58.15625 23.140625 58.160156 C 23.140625 58.15625 23.136719 58.15625 23.132813 58.15625 C 23.117188 58 23.109375 57.839844 23.085938 57.6875 C 23.003906 57.195313 22.914063 56.703125 22.832031 56.210938 C 22.789063 55.96875 22.742188 55.730469 22.707031 55.488281 C 22.695313 55.410156 22.699219 55.328125 22.722656 55.253906 C 22.898438 54.671875 23.082031 54.09375 23.261719 53.511719 C 23.289063 53.429688 23.304688 53.34375 23.332031 53.234375 C 23.503906 53.90625 23.667969 54.550781 23.832031 55.203125 C 23.855469 55.199219 23.875 55.195313 23.898438 55.191406 C 23.886719 55.050781 23.890625 54.910156 23.863281 54.773438 C 23.734375 54.125 23.601563 53.476563 23.476563 52.828125 C 23.460938 52.753906 23.472656 52.664063 23.5 52.597656 C 23.640625 52.261719 23.777344 51.921875 23.949219 51.605469 C 24.023438 51.464844 24.179688 51.367188 24.3125 51.269531 C 24.574219 51.074219 24.8125 50.867188 24.945313 50.550781 C 25.046875 50.3125 25.210938 50.09375 25.3125 49.851563 C 25.378906 49.707031 25.382813 49.53125 25.40625 49.367188 C 25.429688 49.195313 25.445313 49.019531 25.472656 48.8125 C 25.484375 49.015625 25.5 49.179688 25.511719 49.347656 C 25.523438 49.542969 25.550781 49.746094 25.53125 49.941406 C 25.503906 50.277344 25.441406 50.609375 25.390625 50.945313 C 25.300781 51.519531 25.003906 52.03125 24.84375 52.582031 C 24.785156 52.789063 24.773438 53.003906 24.742188 53.214844 C 24.648438 53.816406 24.828125 54.382813 24.9375 54.960938 C 24.996094 55.269531 25.058594 55.582031 25.144531 55.882813 C 25.183594 56.011719 25.285156 56.128906 25.375 56.238281 C 25.625 56.539063 25.878906 56.839844 26.140625 57.132813 C 26.207031 57.203125 26.296875 57.253906 26.382813 57.296875 C 26.6875 57.449219 27.011719 57.367188 27.339844 57.375 C 27.449219 57.25 27.5625 57.117188 27.6875 56.976563 C 27.847656 57.121094 28.007813 57.269531 28.175781 57.421875 C 28.230469 57.34375 28.285156 57.277344 28.328125 57.203125 C 28.535156 56.824219 28.832031 56.523438 29.128906 56.21875 C 29.40625 55.929688 29.707031 55.65625 29.960938 55.34375 C 30.109375 55.164063 30.1875 54.921875 30.292969 54.707031 C 30.355469 54.574219 30.402344 54.4375 30.464844 54.285156 L 30.46875 54.285156 C 30.660156 54.707031 30.769531 55.15625 31.109375 55.496094 C 31.511719 55.902344 31.90625 56.3125 32.289063 56.738281 C 32.445313 56.90625 32.554688 57.121094 32.683594 57.3125 C 32.703125 57.339844 32.722656 57.371094 32.746094 57.40625 C 32.90625 57.257813 33.066406 57.117188 33.222656 56.976563 C 33.339844 57.113281 33.453125 57.242188 33.566406 57.371094 C 33.894531 57.371094 34.222656 57.449219 34.527344 57.296875 C 34.617188 57.253906 34.707031 57.199219 34.769531 57.128906 C 35.082031 56.777344 35.386719 56.425781 35.679688 56.058594 C 35.757813 55.960938 35.789063 55.816406 35.816406 55.6875 C 35.925781 55.179688 36.03125 54.667969 36.132813 54.160156 C 36.207031 53.796875 36.183594 53.433594 36.15625 53.066406 C 36.113281 52.488281 35.804688 52 35.652344 51.457031 C 35.570313 51.167969 35.507813 50.871094 35.453125 50.578125 C 35.410156 50.363281 35.375 50.140625 35.375 49.921875 C 35.378906 49.566406 35.410156 49.210938 35.4375 48.820313 C 35.46875 49.082031 35.492188 49.3125 35.53125 49.539063 C 35.550781 49.675781 35.582031 49.816406 35.636719 49.9375 C 35.769531 50.214844 35.9375 50.476563 36.066406 50.753906 C 36.175781 50.992188 36.402344 51.09375 36.578125 51.253906 C 36.671875 51.339844 36.78125 51.410156 36.882813 51.492188 C 36.917969 51.523438 36.949219 51.570313 36.972656 51.617188 C 37.109375 51.917969 37.234375 52.230469 37.386719 52.527344 C 37.488281 52.730469 37.414063 52.914063 37.378906 53.101563 C 37.265625 53.699219 37.136719 54.292969 37.023438 54.890625 C 37.003906 54.988281 37.019531 55.089844 37.042969 55.199219 C 37.253906 54.558594 37.394531 53.902344 37.570313 53.265625 C 37.6875 53.644531 37.800781 54.023438 37.921875 54.398438 C 38.007813 54.671875 38.089844 54.945313 38.183594 55.210938 C 38.253906 55.414063 38.175781 55.605469 38.148438 55.792969 C 38.0625 56.355469 37.960938 56.910156 37.863281 57.464844 C 37.835938 57.644531 37.800781 57.820313 37.773438 57.996094 C 37.765625 58.046875 37.773438 58.101563 37.773438 58.152344 L 37.765625 58.152344 C 37.769531 58.152344 37.769531 58.152344 37.773438 58.15625 C 37.78125 58.160156 37.792969 58.160156 37.804688 58.164063 C 37.785156 58.21875 37.769531 58.277344 37.753906 58.332031 C 37.761719 58.335938 37.769531 58.339844 37.777344 58.34375 C 37.976563 57.984375 38.175781 57.628906 38.375 57.269531 C 38.382813 57.273438 38.390625 57.273438 38.398438 57.273438 C 38.390625 57.492188 38.382813 57.707031 38.367188 57.921875 C 38.355469 58.097656 38.332031 58.273438 38.320313 58.449219 C 38.296875 58.730469 38.28125 59.011719 38.265625 59.296875 C 38.261719 59.328125 38.253906 59.363281 38.234375 59.394531 C 38.03125 59.8125 37.808594 60.222656 37.5 60.578125 C 37.398438 60.691406 37.3125 60.820313 37.234375 60.960938 C 37.492188 60.808594 37.75 60.65625 38.027344 60.492188 C 37.921875 60.921875 37.824219 61.328125 37.722656 61.742188 C 37.332031 61.953125 36.9375 62.164063 36.542969 62.375 C 36.488281 62.40625 36.4375 62.445313 36.382813 62.480469 L 36.375 62.484375" stroke-linecap="round" />
</g>
<g transform="matrix(1.64 0 0 1.64 -27.1 74.83)"  >
<path style="stroke: none; stroke-width: 1; stroke-dasharray: none; stroke-linecap: butt; stroke-dashoffset: 0; stroke-linejoin: miter; stroke-miterlimit: 4; fill: rgb(33,28,30); fill-rule: nonzero; opacity: 1;"  transform=" translate(-23.11, -58.13)" d="M 23.101563 58.164063 C 23.101563 58.140625 23.101563 58.113281 23.097656 58.089844 C 23.105469 58.09375 23.109375 58.09375 23.117188 58.09375 C 23.113281 58.117188 23.105469 58.140625 23.101563 58.164063" stroke-linecap="round" />
</g>
<g transform="matrix(1.64 0 0 1.64 -3.01 74.83)"  >
<path style="stroke: none; stroke-width: 1; stroke-dasharray: none; stroke-linecap: butt; stroke-dashoffset: 0; stroke-linejoin: miter; stroke-miterlimit: 4; fill: rgb(33,28,30); fill-rule: nonzero; opacity: 1;"  transform=" translate(-37.79, -58.13)" d="M 37.804688 58.164063 L 37.785156 58.09375 C 37.792969 58.09375 37.796875 58.089844 37.804688 58.089844 L 37.804688 58.164063" stroke-linecap="round" />
</g>
<g transform="matrix(1.64 0 0 1.64 -27.14 74.64)"  >
<path style="stroke: none; stroke-width: 1; stroke-dasharray: none; stroke-linecap: butt; stroke-dashoffset: 0; stroke-linejoin: miter; stroke-miterlimit: 4; fill: rgb(33,28,30); fill-rule: nonzero; opacity: 1;"  transform=" translate(-23.08, -58.01)" d="M 23.085938 58.015625 C 23.082031 58.019531 23.082031 58.019531 23.078125 58.019531 C 23.078125 58.015625 23.078125 58.011719 23.078125 58.007813 C 23.078125 58.007813 23.082031 58.007813 23.085938 58.003906 C 23.085938 58.007813 23.085938 58.011719 23.085938 58.015625" stroke-linecap="round" />
</g>
<g transform="matrix(1.64 0 0 1.64 -2.97 74.64)"  >
<path style="stroke: none; stroke-width: 1; stroke-dasharray: none; stroke-linecap: butt; stroke-dashoffset: 0; stroke-linejoin: miter; stroke-miterlimit: 4; fill: rgb(33,28,30); fill-rule: nonzero; opacity: 1;"  transform=" translate(-37.83, -58.01)" d="M 37.828125 58.003906 C 37.828125 58.007813 37.828125 58.015625 37.824219 58.019531 C 37.828125 58.015625 37.828125 58.007813 37.828125 58.003906" stroke-linecap="round" />
</g>
<g transform="matrix(1.64 0 0 1.64 77.56 81.96)"  >
<path style="stroke: none; stroke-width: 1; stroke-dasharray: none; stroke-linecap: butt; stroke-dashoffset: 0; stroke-linejoin: miter; stroke-miterlimit: 4; fill: rgb(33,28,30); fill-rule: nonzero; opacity: 1;"  transform=" translate(-264.06, -14)" d="M 259.769531 3.839844 C 260.039063 4.035156 260.269531 4.191406 260.484375 4.367188 C 260.914063 4.71875 261.410156 4.917969 261.953125 4.988281 C 262.359375 5.042969 262.742188 5 263.128906 4.828125 C 263.453125 4.683594 263.695313 4.488281 263.859375 4.179688 C 263.914063 4.082031 263.980469 3.992188 264.058594 3.878906 C 264.179688 4.0625 264.304688 4.230469 264.410156 4.40625 C 264.496094 4.558594 264.617188 4.660156 264.78125 4.722656 C 264.902344 4.769531 265.011719 4.835938 265.128906 4.886719 C 265.484375 5.039063 265.855469 5.027344 266.234375 4.980469 C 266.9375 4.894531 267.480469 4.503906 268.007813 4.085938 C 268.101563 4.015625 268.199219 3.949219 268.292969 3.878906 C 268.300781 3.875 268.3125 3.875 268.339844 3.871094 C 268.34375 3.921875 268.351563 3.96875 268.351563 4.015625 C 268.347656 4.613281 268.339844 5.207031 268.335938 5.808594 C 268.335938 8.425781 268.332031 11.042969 268.328125 13.660156 C 268.328125 14.480469 268.316406 15.296875 268.3125 16.113281 C 268.3125 16.816406 268.324219 17.519531 268.308594 18.222656 C 268.300781 18.566406 268.242188 18.910156 268.199219 19.253906 C 268.164063 19.511719 268.125 19.769531 268.085938 20.023438 C 268.074219 20.082031 268.050781 20.144531 268.015625 20.1875 C 267.710938 20.550781 267.414063 20.921875 267.082031 21.261719 C 266.855469 21.492188 266.585938 21.6875 266.324219 21.875 C 265.5 22.472656 264.828125 23.21875 264.195313 24 C 264.152344 24.050781 264.109375 24.101563 264.058594 24.160156 C 263.878906 23.941406 263.710938 23.726563 263.53125 23.519531 C 262.953125 22.851563 262.328125 22.230469 261.597656 21.722656 C 260.984375 21.300781 260.554688 20.707031 260.085938 20.148438 C 259.996094 20.042969 260.007813 19.84375 259.984375 19.683594 C 259.921875 19.265625 259.867188 18.847656 259.8125 18.429688 C 259.804688 18.375 259.800781 18.316406 259.800781 18.261719 C 259.796875 15.613281 259.800781 12.960938 259.796875 10.3125 C 259.789063 8.226563 259.777344 6.136719 259.769531 4.050781 C 259.769531 3.996094 259.769531 3.941406 259.769531 3.839844" stroke-linecap="round" />
</g>
<g transform="matrix(1.64 0 0 1.64 92.35 68.34)"  >
<path style="stroke: none; stroke-width: 1; stroke-dasharray: none; stroke-linecap: butt; stroke-dashoffset: 0; stroke-linejoin: miter; stroke-miterlimit: 4; fill: rgb(33,28,30); fill-rule: nonzero; opacity: 1;"  transform=" translate(-273.39, -6)" d="M 272.757813 1.804688 C 273.023438 1.8125 273.222656 1.746094 273.355469 1.546875 C 273.558594 1.753906 273.75 1.949219 273.949219 2.152344 C 273.894531 2.226563 273.800781 2.3125 273.757813 2.417969 C 273.710938 2.53125 273.714844 2.65625 273.6875 2.820313 C 273.917969 3.039063 274.164063 3.28125 274.417969 3.515625 C 274.890625 3.960938 275.449219 4.265625 276.054688 4.480469 C 276.519531 4.648438 276.996094 4.796875 277.503906 4.808594 C 277.585938 4.8125 277.671875 4.785156 277.757813 4.78125 C 277.847656 4.777344 277.9375 4.78125 278.058594 4.78125 C 277.964844 5.023438 277.890625 5.242188 277.792969 5.453125 C 277.496094 6.117188 277.128906 6.738281 276.71875 7.332031 C 276.644531 7.4375 276.542969 7.519531 276.464844 7.617188 C 276.003906 8.179688 275.429688 8.613281 274.855469 9.046875 C 274.464844 9.339844 274.0625 9.617188 273.65625 9.894531 C 273.554688 9.964844 273.433594 10.015625 273.316406 10.050781 C 272.910156 10.175781 272.507813 10.292969 272.101563 10.40625 C 272.011719 10.433594 271.914063 10.433594 271.824219 10.449219 C 271.980469 10.257813 272.148438 10.082031 272.277344 9.878906 C 272.460938 9.585938 272.625 9.28125 272.78125 8.972656 C 273.066406 8.402344 273.070313 7.804688 272.953125 7.191406 C 272.914063 6.992188 272.894531 6.789063 272.851563 6.589844 C 272.828125 6.492188 272.785156 6.398438 272.730469 6.316406 C 272.425781 5.882813 272.113281 5.457031 271.800781 5.03125 C 271.75 4.960938 271.691406 4.898438 271.652344 4.851563 C 271.472656 4.914063 271.300781 4.972656 271.132813 5.039063 C 271.070313 5.066406 271.011719 5.109375 270.960938 5.15625 C 270.253906 5.859375 269.550781 6.5625 268.847656 7.265625 C 268.8125 7.296875 268.78125 7.328125 268.730469 7.375 C 268.722656 7.3125 268.71875 7.269531 268.71875 7.226563 C 268.714844 6.929688 268.722656 6.632813 268.714844 6.335938 C 268.710938 6.226563 268.746094 6.144531 268.824219 6.066406 C 269.289063 5.609375 269.742188 5.140625 270.21875 4.6875 C 270.386719 4.523438 270.488281 4.339844 270.550781 4.121094 C 270.566406 4.066406 270.59375 4 270.632813 3.960938 C 271.34375 3.238281 272.058594 2.515625 272.757813 1.804688" stroke-linecap="round" />
</g>
<g transform="matrix(1.64 0 0 1.64 63.03 65.84)"  >
<path style="stroke: none; stroke-width: 1; stroke-dasharray: none; stroke-linecap: butt; stroke-dashoffset: 0; stroke-linejoin: miter; stroke-miterlimit: 4; fill: rgb(33,28,30); fill-rule: nonzero; opacity: 1;"  transform=" translate(-255.51, -4.47)" d="M 257.453125 4.839844 C 257.578125 4.8125 257.675781 4.789063 257.785156 4.765625 L 258.882813 5.917969 C 258.992188 6.03125 259.09375 6.15625 259.210938 6.261719 C 259.328125 6.367188 259.378906 6.488281 259.378906 6.648438 C 259.375 7.367188 259.378906 8.089844 259.378906 8.808594 C 259.378906 8.839844 259.367188 8.875 259.351563 8.941406 C 258.359375 7.996094 257.390625 7.074219 256.414063 6.148438 C 256.433594 6.035156 256.449219 5.925781 256.472656 5.800781 C 256.273438 5.710938 256.078125 5.621094 255.871094 5.523438 C 255.523438 5.828125 255.175781 6.132813 254.828125 6.433594 C 254.808594 6.636719 254.792969 6.824219 254.773438 7.050781 C 254.527344 7 254.289063 6.949219 254.042969 6.902344 C 254.054688 6.683594 254.074219 6.511719 254.265625 6.367188 C 254.65625 6.078125 255.015625 5.757813 255.390625 5.449219 C 255.484375 5.375 255.53125 5.292969 255.496094 5.171875 C 255.476563 5.113281 255.484375 5.050781 255.484375 4.984375 C 255.613281 4.953125 255.734375 4.929688 255.886719 4.894531 C 255.757813 4.765625 255.65625 4.664063 255.554688 4.566406 C 254.804688 3.839844 254.046875 3.117188 253.304688 2.382813 C 253.0625 2.140625 252.851563 1.871094 252.644531 1.597656 C 252.523438 1.433594 252.367188 1.363281 252.1875 1.292969 C 251.992188 1.21875 251.8125 1.101563 251.632813 1.007813 C 251.8125 0.550781 252.15625 0.203125 252.613281 -0.00390625 C 252.824219 0.1875 252.925781 0.4375 253.011719 0.699219 C 253.035156 0.773438 253.078125 0.855469 253.136719 0.898438 C 253.988281 1.535156 254.683594 2.332031 255.417969 3.089844 C 255.78125 3.460938 256.140625 3.835938 256.535156 4.242188 C 256.570313 4.09375 256.597656 3.980469 256.625 3.855469 L 257.007813 3.855469 C 257.289063 3.515625 257.578125 3.167969 257.871094 2.820313 C 257.914063 2.765625 257.964844 2.710938 257.996094 2.648438 C 258.109375 2.421875 258.3125 2.402344 258.539063 2.394531 C 258.59375 2.632813 258.644531 2.867188 258.699219 3.125 C 258.523438 3.140625 258.367188 3.148438 258.210938 3.167969 C 258.148438 3.175781 258.070313 3.191406 258.035156 3.234375 C 257.757813 3.539063 257.488281 3.851563 257.21875 4.164063 C 257.203125 4.183594 257.191406 4.207031 257.175781 4.242188 C 257.265625 4.433594 257.355469 4.632813 257.453125 4.839844" stroke-linecap="round" />
</g>
<g transform="matrix(1.64 0 0 1.64 63.16 90)"  >
<path style="stroke: none; stroke-width: 1; stroke-dasharray: none; stroke-linecap: butt; stroke-dashoffset: 0; stroke-linejoin: miter; stroke-miterlimit: 4; fill: rgb(33,28,30); fill-rule: nonzero; opacity: 1;"  transform=" translate(-255.59, -19.2)" d="M 259.382813 15.105469 L 259.382813 16.324219 C 259.125 16.578125 258.855469 16.839844 258.589844 17.109375 C 257.894531 17.804688 257.199219 18.507813 256.503906 19.203125 C 255.464844 20.242188 254.421875 21.277344 253.371094 22.304688 C 253.167969 22.503906 253.007813 22.722656 252.886719 22.984375 C 252.722656 23.339844 252.378906 23.390625 252.082031 23.132813 C 251.902344 22.980469 251.804688 22.785156 251.789063 22.570313 C 251.78125 22.464844 251.890625 22.285156 251.988281 22.246094 C 252.433594 22.078125 252.730469 21.734375 253.050781 21.414063 C 253.925781 20.542969 254.800781 19.671875 255.675781 18.796875 C 256.167969 18.304688 256.652344 17.800781 257.148438 17.308594 C 257.84375 16.617188 258.542969 15.929688 259.238281 15.242188 C 259.277344 15.203125 259.316406 15.167969 259.382813 15.105469" stroke-linecap="round" />
</g>
<g transform="matrix(1.64 0 0 1.64 90.37 90.91)"  >
<path style="stroke: none; stroke-width: 1; stroke-dasharray: none; stroke-linecap: butt; stroke-dashoffset: 0; stroke-linejoin: miter; stroke-miterlimit: 4; fill: rgb(33,28,30); fill-rule: nonzero; opacity: 1;"  transform=" translate(-272.18, -19.76)" d="M 268.703125 17.464844 L 268.703125 15.910156 C 268.71875 15.902344 268.730469 15.898438 268.742188 15.890625 C 268.785156 15.933594 268.832031 15.972656 268.871094 16.019531 C 270.039063 17.246094 271.203125 18.472656 272.371094 19.699219 C 272.976563 20.335938 273.589844 20.960938 274.179688 21.613281 C 274.425781 21.882813 274.621094 22.195313 274.835938 22.492188 C 275.109375 22.867188 275.378906 23.242188 275.660156 23.636719 C 275.375 23.429688 275.105469 23.234375 274.835938 23.039063 C 274.433594 22.746094 273.996094 22.488281 273.636719 22.148438 C 272.257813 20.863281 270.902344 19.558594 269.542969 18.257813 C 269.257813 17.988281 268.972656 17.71875 268.703125 17.464844" stroke-linecap="round" />
</g>
<g transform="matrix(1.64 0 0 1.64 376.94 71.32)"  >
<path style="stroke: none; stroke-width: 1; stroke-dasharray: none; stroke-linecap: butt; stroke-dashoffset: 0; stroke-linejoin: miter; stroke-miterlimit: 4; fill: rgb(33,28,30); fill-rule: nonzero; opacity: 1;"  transform=" translate(-321.91, -12.08)" d="M 327.609375 5.898438 C 327.601563 5.890625 327.597656 5.882813 327.59375 5.882813 C 327.589844 5.882813 327.578125 5.886719 327.578125 5.886719 C 327.527344 6.167969 327.464844 6.441406 327.425781 6.71875 C 327.40625 6.882813 327.335938 6.988281 327.171875 6.992188 C 326.960938 7 326.75 6.992188 326.539063 6.980469 C 326.425781 6.972656 326.3125 6.949219 326.199219 6.933594 C 326.199219 6.949219 326.195313 6.96875 326.191406 6.984375 C 326.234375 7.003906 326.277344 7.03125 326.324219 7.046875 C 326.632813 7.152344 326.9375 7.257813 327.242188 7.363281 C 327.464844 7.4375 327.5 7.417969 327.519531 7.171875 C 327.550781 6.746094 327.578125 6.320313 327.609375 5.898438 M 322.640625 13.566406 C 322.660156 13.566406 322.675781 13.566406 322.695313 13.566406 C 322.703125 13.535156 322.714844 13.5 322.722656 13.46875 C 322.839844 12.738281 322.957031 12.007813 323.066406 11.277344 C 323.089844 11.109375 323.160156 10.992188 323.304688 10.902344 C 323.640625 10.695313 323.964844 10.472656 324.296875 10.257813 C 324.402344 10.183594 324.511719 10.109375 324.617188 10.039063 L 324.601563 9.996094 C 324.550781 10.007813 324.496094 10.019531 324.449219 10.035156 C 323.953125 10.214844 323.457031 10.386719 322.964844 10.574219 C 322.824219 10.625 322.714844 10.609375 322.59375 10.523438 C 322.089844 10.164063 321.578125 9.808594 321.070313 9.457031 C 320.996094 9.40625 320.921875 9.335938 320.839844 9.457031 C 320.761719 9.570313 320.84375 9.613281 320.910156 9.667969 C 321.371094 10.042969 321.839844 10.414063 322.292969 10.800781 C 322.382813 10.878906 322.460938 11.019531 322.472656 11.136719 C 322.523438 11.730469 322.550781 12.328125 322.589844 12.921875 C 322.601563 13.136719 322.625 13.351563 322.640625 13.566406 M 318.765625 7.796875 C 318.8125 7.757813 318.863281 7.726563 318.90625 7.683594 C 319.460938 7.167969 320.015625 6.648438 320.570313 6.128906 C 320.664063 6.042969 320.699219 5.960938 320.675781 5.828125 C 320.609375 5.433594 320.570313 5.035156 320.496094 4.640625 C 320.449219 4.378906 320.578125 4.222656 320.761719 4.109375 C 320.914063 4.015625 320.953125 3.90625 320.949219 3.738281 C 320.910156 2.738281 320.882813 1.734375 320.855469 0.730469 C 320.855469 0.660156 320.90625 0.566406 320.960938 0.515625 C 321.089844 0.40625 321.222656 0.292969 321.371094 0.226563 C 321.519531 0.160156 321.691406 0.132813 321.855469 0.113281 C 322.222656 0.0703125 322.589844 0.0351563 322.960938 0 C 323.175781 -0.0195313 323.214844 0.0234375 323.214844 0.242188 C 323.214844 1.1875 323.226563 2.132813 323.210938 3.078125 C 323.199219 3.582031 323.136719 4.085938 323.097656 4.585938 C 323.070313 4.949219 323.027344 5.3125 323.011719 5.675781 C 323.003906 5.839844 322.929688 5.894531 322.789063 5.929688 C 322.316406 6.050781 321.847656 6.179688 321.378906 6.304688 C 321.328125 6.316406 321.28125 6.335938 321.238281 6.390625 C 321.289063 6.398438 321.34375 6.40625 321.394531 6.402344 C 321.976563 6.359375 322.558594 6.316406 323.140625 6.261719 C 323.210938 6.253906 323.304688 6.1875 323.328125 6.125 C 323.386719 5.960938 323.4375 5.78125 323.449219 5.609375 C 323.5 4.574219 323.542969 3.535156 323.585938 2.5 C 323.605469 1.996094 323.617188 1.492188 323.644531 0.988281 C 323.65625 0.773438 323.679688 0.78125 323.894531 0.804688 C 324.558594 0.886719 325.109375 1.238281 325.683594 1.535156 C 325.753906 1.570313 325.816406 1.6875 325.816406 1.769531 C 325.8125 2.375 325.828125 2.988281 325.765625 3.59375 C 325.675781 4.457031 325.519531 5.3125 325.398438 6.171875 C 325.371094 6.347656 325.292969 6.421875 325.109375 6.414063 C 324.84375 6.402344 324.578125 6.410156 324.3125 6.410156 C 324.25 6.410156 324.191406 6.417969 324.132813 6.417969 C 324.128906 6.4375 324.125 6.457031 324.125 6.472656 C 324.257813 6.5 324.386719 6.523438 324.519531 6.546875 C 324.859375 6.609375 325.203125 6.664063 325.546875 6.730469 C 325.652344 6.75 325.699219 6.730469 325.714844 6.609375 C 325.808594 5.925781 325.90625 5.242188 326.003906 4.558594 C 326.070313 4.101563 326.136719 3.644531 326.199219 3.183594 C 326.21875 3.042969 326.265625 2.988281 326.425781 3.007813 C 326.886719 3.074219 327.265625 3.332031 327.667969 3.535156 C 327.71875 3.558594 327.765625 3.652344 327.765625 3.714844 C 327.796875 4.609375 327.839844 5.5 327.832031 6.394531 C 327.824219 7.132813 327.75 7.875 327.710938 8.617188 C 327.6875 8.984375 327.714844 9.363281 327.644531 9.726563 C 327.558594 10.191406 327.398438 10.640625 327.265625 11.097656 C 327.195313 11.332031 327.105469 11.558594 327.050781 11.792969 C 326.992188 12.035156 326.859375 12.207031 326.65625 12.339844 C 326.503906 12.445313 326.371094 12.578125 326.214844 12.679688 C 326.097656 12.761719 326.054688 12.863281 326.066406 13.003906 C 326.113281 13.582031 326.15625 14.160156 326.199219 14.738281 C 326.222656 15.09375 326.25 15.453125 326.273438 15.808594 C 326.328125 16.597656 326.386719 17.382813 326.441406 18.167969 C 326.480469 18.730469 326.515625 19.289063 326.554688 19.851563 C 326.59375 20.433594 326.640625 21.015625 326.679688 21.601563 C 326.683594 21.683594 326.671875 21.777344 326.632813 21.847656 C 326.519531 22.0625 326.390625 22.273438 326.257813 22.476563 C 326.214844 22.546875 326.140625 22.605469 326.066406 22.648438 C 325.257813 23.117188 324.441406 23.585938 323.625 24.046875 C 323.53125 24.097656 323.417969 24.125 323.3125 24.128906 C 322.972656 24.148438 322.628906 24.160156 322.285156 24.164063 C 322.203125 24.164063 322.113281 24.144531 322.035156 24.113281 C 321.0625 23.738281 320.089844 23.359375 319.125 22.96875 C 319.011719 22.925781 318.921875 22.824219 318.835938 22.738281 C 318.511719 22.40625 318.492188 21.992188 318.511719 21.558594 C 318.546875 20.699219 318.5625 19.839844 318.578125 18.984375 C 318.59375 18.019531 318.601563 17.054688 318.617188 16.09375 C 318.636719 15.066406 318.660156 14.039063 318.6875 13.011719 C 318.695313 12.84375 318.652344 12.722656 318.507813 12.617188 C 317.695313 12.019531 317 11.296875 316.277344 10.597656 C 316.210938 10.53125 316.15625 10.410156 316.152344 10.3125 C 316.097656 9.105469 316.054688 7.890625 316.011719 6.679688 C 316.003906 6.425781 315.972656 6.164063 316.015625 5.917969 C 316.0625 5.671875 316.183594 5.441406 316.289063 5.210938 C 316.3125 5.164063 316.40625 5.140625 316.472656 5.125 C 317.542969 4.902344 318.613281 4.679688 319.6875 4.460938 C 319.90625 4.414063 319.917969 4.425781 319.964844 4.644531 C 320.039063 4.992188 320.105469 5.339844 320.179688 5.683594 C 320.214844 5.835938 320.144531 5.933594 320.058594 6.042969 C 319.640625 6.566406 319.226563 7.097656 318.8125 7.625 C 318.78125 7.667969 318.761719 7.722656 318.734375 7.769531 C 318.746094 7.777344 318.757813 7.789063 318.765625 7.796875" stroke-linecap="round" />
</g>
<g transform="matrix(1.64 0 0 1.64 372.46 55.89)"  >
<path style="stroke: none; stroke-width: 1; stroke-dasharray: none; stroke-linecap: butt; stroke-dashoffset: 0; stroke-linejoin: miter; stroke-miterlimit: 4; fill: rgb(33,28,30); fill-rule: nonzero; opacity: 1;"  transform=" translate(-319.18, -2.68)" d="M 320.511719 2.492188 C 320.511719 2.882813 320.515625 3.277344 320.511719 3.671875 C 320.507813 3.917969 320.328125 4.015625 320.078125 3.992188 C 319.871094 3.972656 319.65625 4.027344 319.445313 4.054688 C 318.960938 4.128906 318.472656 4.199219 317.988281 4.273438 C 317.863281 4.292969 317.808594 4.246094 317.824219 4.125 C 317.925781 3.386719 318.027344 2.65625 318.140625 1.921875 C 318.148438 1.855469 318.222656 1.78125 318.285156 1.75 C 318.722656 1.535156 319.148438 1.292969 319.605469 1.132813 C 319.859375 1.042969 320.164063 1.089844 320.445313 1.09375 C 320.476563 1.09375 320.53125 1.210938 320.53125 1.269531 C 320.539063 1.679688 320.535156 2.085938 320.535156 2.492188" stroke-linecap="round" />
</g>
</svg>