<?xml version="1.0" encoding="UTF-8" standalone="no" ?>
<!DOCTYPE svg PUBLIC "-//W3C//DTD SVG 1.1//EN" "http://www.w3.org/Graphics/SVG/1.1/DTD/svg11.dtd">
<svg xmlns="http://www.w3.org/2000/svg" xmlns:xlink="http://www.w3.org/1999/xlink" version="1.1" width="40" height="40" viewBox="0 0 40 40" xml:space="preserve">
<desc>Created with Fabric.js 4.6.0</desc>
<defs>
</defs>
<g transform="matrix(1.35 0 0 1.32 20 20)" id="n70EMZRNq9omIWsrNA_BY"  >
<path style="stroke: none; stroke-width: 1; stroke-dasharray: none; stroke-linecap: butt; stroke-dashoffset: 0; stroke-linejoin: miter; stroke-miterlimit: 4; fill: rgb(33,28,30); fill-rule: nonzero; opacity: 1;" vector-effect="non-scaling-stroke"  transform=" translate(-321.91, -12.08)" d="M 327.609375 5.898438 C 327.601563 5.890625 327.597656 5.882813 327.59375 5.882813 C 327.589844 5.882813 327.578125 5.886719 327.578125 5.886719 C 327.527344 6.167969 327.464844 6.441406 327.425781 6.71875 C 327.40625 6.882813 327.335938 6.988281 327.171875 6.992188 C 326.960938 7 326.75 6.992188 326.539063 6.980469 C 326.425781 6.972656 326.3125 6.949219 326.199219 6.933594 C 326.199219 6.949219 326.195313 6.96875 326.191406 6.984375 C 326.234375 7.003906 326.277344 7.03125 326.324219 7.046875 C 326.632813 7.152344 326.9375 7.257813 327.242188 7.363281 C 327.464844 7.4375 327.5 7.417969 327.519531 7.171875 C 327.550781 6.746094 327.578125 6.320313 327.609375 5.898438 M 322.640625 13.566406 C 322.660156 13.566406 322.675781 13.566406 322.695313 13.566406 C 322.703125 13.535156 322.714844 13.5 322.722656 13.46875 C 322.839844 12.738281 322.957031 12.007813 323.066406 11.277344 C 323.089844 11.109375 323.160156 10.992188 323.304688 10.902344 C 323.640625 10.695313 323.964844 10.472656 324.296875 10.257813 C 324.402344 10.183594 324.511719 10.109375 324.617188 10.039063 L 324.601563 9.996094 C 324.550781 10.007813 324.496094 10.019531 324.449219 10.035156 C 323.953125 10.214844 323.457031 10.386719 322.964844 10.574219 C 322.824219 10.625 322.714844 10.609375 322.59375 10.523438 C 322.089844 10.164063 321.578125 9.808594 321.070313 9.457031 C 320.996094 9.40625 320.921875 9.335938 320.839844 9.457031 C 320.761719 9.570313 320.84375 9.613281 320.910156 9.667969 C 321.371094 10.042969 321.839844 10.414063 322.292969 10.800781 C 322.382813 10.878906 322.460938 11.019531 322.472656 11.136719 C 322.523438 11.730469 322.550781 12.328125 322.589844 12.921875 C 322.601563 13.136719 322.625 13.351563 322.640625 13.566406 M 318.765625 7.796875 C 318.8125 7.757813 318.863281 7.726563 318.90625 7.683594 C 319.460938 7.167969 320.015625 6.648438 320.570313 6.128906 C 320.664063 6.042969 320.699219 5.960938 320.675781 5.828125 C 320.609375 5.433594 320.570313 5.035156 320.496094 4.640625 C 320.449219 4.378906 320.578125 4.222656 320.761719 4.109375 C 320.914063 4.015625 320.953125 3.90625 320.949219 3.738281 C 320.910156 2.738281 320.882813 1.734375 320.855469 0.730469 C 320.855469 0.660156 320.90625 0.566406 320.960938 0.515625 C 321.089844 0.40625 321.222656 0.292969 321.371094 0.226563 C 321.519531 0.160156 321.691406 0.132813 321.855469 0.113281 C 322.222656 0.0703125 322.589844 0.0351563 322.960938 0 C 323.175781 -0.0195313 323.214844 0.0234375 323.214844 0.242188 C 323.214844 1.1875 323.226563 2.132813 323.210938 3.078125 C 323.199219 3.582031 323.136719 4.085938 323.097656 4.585938 C 323.070313 4.949219 323.027344 5.3125 323.011719 5.675781 C 323.003906 5.839844 322.929688 5.894531 322.789063 5.929688 C 322.316406 6.050781 321.847656 6.179688 321.378906 6.304688 C 321.328125 6.316406 321.28125 6.335938 321.238281 6.390625 C 321.289063 6.398438 321.34375 6.40625 321.394531 6.402344 C 321.976563 6.359375 322.558594 6.316406 323.140625 6.261719 C 323.210938 6.253906 323.304688 6.1875 323.328125 6.125 C 323.386719 5.960938 323.4375 5.78125 323.449219 5.609375 C 323.5 4.574219 323.542969 3.535156 323.585938 2.5 C 323.605469 1.996094 323.617188 1.492188 323.644531 0.988281 C 323.65625 0.773438 323.679688 0.78125 323.894531 0.804688 C 324.558594 0.886719 325.109375 1.238281 325.683594 1.535156 C 325.753906 1.570313 325.816406 1.6875 325.816406 1.769531 C 325.8125 2.375 325.828125 2.988281 325.765625 3.59375 C 325.675781 4.457031 325.519531 5.3125 325.398438 6.171875 C 325.371094 6.347656 325.292969 6.421875 325.109375 6.414063 C 324.84375 6.402344 324.578125 6.410156 324.3125 6.410156 C 324.25 6.410156 324.191406 6.417969 324.132813 6.417969 C 324.128906 6.4375 324.125 6.457031 324.125 6.472656 C 324.257813 6.5 324.386719 6.523438 324.519531 6.546875 C 324.859375 6.609375 325.203125 6.664063 325.546875 6.730469 C 325.652344 6.75 325.699219 6.730469 325.714844 6.609375 C 325.808594 5.925781 325.90625 5.242188 326.003906 4.558594 C 326.070313 4.101563 326.136719 3.644531 326.199219 3.183594 C 326.21875 3.042969 326.265625 2.988281 326.425781 3.007813 C 326.886719 3.074219 327.265625 3.332031 327.667969 3.535156 C 327.71875 3.558594 327.765625 3.652344 327.765625 3.714844 C 327.796875 4.609375 327.839844 5.5 327.832031 6.394531 C 327.824219 7.132813 327.75 7.875 327.710938 8.617188 C 327.6875 8.984375 327.714844 9.363281 327.644531 9.726563 C 327.558594 10.191406 327.398438 10.640625 327.265625 11.097656 C 327.195313 11.332031 327.105469 11.558594 327.050781 11.792969 C 326.992188 12.035156 326.859375 12.207031 326.65625 12.339844 C 326.503906 12.445313 326.371094 12.578125 326.214844 12.679688 C 326.097656 12.761719 326.054688 12.863281 326.066406 13.003906 C 326.113281 13.582031 326.15625 14.160156 326.199219 14.738281 C 326.222656 15.09375 326.25 15.453125 326.273438 15.808594 C 326.328125 16.597656 326.386719 17.382813 326.441406 18.167969 C 326.480469 18.730469 326.515625 19.289063 326.554688 19.851563 C 326.59375 20.433594 326.640625 21.015625 326.679688 21.601563 C 326.683594 21.683594 326.671875 21.777344 326.632813 21.847656 C 326.519531 22.0625 326.390625 22.273438 326.257813 22.476563 C 326.214844 22.546875 326.140625 22.605469 326.066406 22.648438 C 325.257813 23.117188 324.441406 23.585938 323.625 24.046875 C 323.53125 24.097656 323.417969 24.125 323.3125 24.128906 C 322.972656 24.148438 322.628906 24.160156 322.285156 24.164063 C 322.203125 24.164063 322.113281 24.144531 322.035156 24.113281 C 321.0625 23.738281 320.089844 23.359375 319.125 22.96875 C 319.011719 22.925781 318.921875 22.824219 318.835938 22.738281 C 318.511719 22.40625 318.492188 21.992188 318.511719 21.558594 C 318.546875 20.699219 318.5625 19.839844 318.578125 18.984375 C 318.59375 18.019531 318.601563 17.054688 318.617188 16.09375 C 318.636719 15.066406 318.660156 14.039063 318.6875 13.011719 C 318.695313 12.84375 318.652344 12.722656 318.507813 12.617188 C 317.695313 12.019531 317 11.296875 316.277344 10.597656 C 316.210938 10.53125 316.15625 10.410156 316.152344 10.3125 C 316.097656 9.105469 316.054688 7.890625 316.011719 6.679688 C 316.003906 6.425781 315.972656 6.164063 316.015625 5.917969 C 316.0625 5.671875 316.183594 5.441406 316.289063 5.210938 C 316.3125 5.164063 316.40625 5.140625 316.472656 5.125 C 317.542969 4.902344 318.613281 4.679688 319.6875 4.460938 C 319.90625 4.414063 319.917969 4.425781 319.964844 4.644531 C 320.039063 4.992188 320.105469 5.339844 320.179688 5.683594 C 320.214844 5.835938 320.144531 5.933594 320.058594 6.042969 C 319.640625 6.566406 319.226563 7.097656 318.8125 7.625 C 318.78125 7.667969 318.761719 7.722656 318.734375 7.769531 C 318.746094 7.777344 318.757813 7.789063 318.765625 7.796875" stroke-linecap="round" />
</g>
<g transform="matrix(1.47 0 0 1.25 16 7.5)" id="9McW4cBGGNMO1_B2UEH_9"  >
<path style="stroke: none; stroke-width: 1; stroke-dasharray: none; stroke-linecap: butt; stroke-dashoffset: 0; stroke-linejoin: miter; stroke-miterlimit: 4; fill: rgb(33,28,30); fill-rule: nonzero; opacity: 1;" vector-effect="non-scaling-stroke"  transform=" translate(-319.18, -2.68)" d="M 320.511719 2.492188 C 320.511719 2.882813 320.515625 3.277344 320.511719 3.671875 C 320.507813 3.917969 320.328125 4.015625 320.078125 3.992188 C 319.871094 3.972656 319.65625 4.027344 319.445313 4.054688 C 318.960938 4.128906 318.472656 4.199219 317.988281 4.273438 C 317.863281 4.292969 317.808594 4.246094 317.824219 4.125 C 317.925781 3.386719 318.027344 2.65625 318.140625 1.921875 C 318.148438 1.855469 318.222656 1.78125 318.285156 1.75 C 318.722656 1.535156 319.148438 1.292969 319.605469 1.132813 C 319.859375 1.042969 320.164063 1.089844 320.445313 1.09375 C 320.476563 1.09375 320.53125 1.210938 320.53125 1.269531 C 320.539063 1.679688 320.535156 2.085938 320.535156 2.492188" stroke-linecap="round" />
</g>
</svg>