<?xml version="1.0" encoding="UTF-8" standalone="no" ?>
<!DOCTYPE svg PUBLIC "-//W3C//DTD SVG 1.1//EN" "http://www.w3.org/Graphics/SVG/1.1/DTD/svg11.dtd">
<svg xmlns="http://www.w3.org/2000/svg" xmlns:xlink="http://www.w3.org/1999/xlink" version="1.1" width="40" height="40" viewBox="0 0 40 40" xml:space="preserve">
<desc>Created with Fabric.js 4.6.0</desc>
<defs>
</defs>
<g transform="matrix(1.32 0 0 1.32 19.5 20)" id="IS1ssc_1wg_GT9FLhasE6"  >
<path style="stroke: none; stroke-width: 1; stroke-dasharray: none; stroke-linecap: butt; stroke-dashoffset: 0; stroke-linejoin: miter; stroke-miterlimit: 4; fill: rgb(33,28,30); fill-rule: nonzero; opacity: 1;" vector-effect="non-scaling-stroke"  transform=" translate(-30.46, -60.9)" d="M 36.382813 62.476563 C 36.601563 62.449219 36.824219 62.417969 37.042969 62.386719 C 37.195313 62.363281 37.347656 62.339844 37.527344 62.3125 C 37.484375 62.378906 37.457031 62.429688 37.425781 62.480469 C 37.257813 62.730469 37.078125 62.976563 36.921875 63.238281 C 36.839844 63.375 36.742188 63.414063 36.589844 63.414063 C 36.292969 63.402344 35.992188 63.410156 35.691406 63.410156 C 35.691406 63.425781 35.6875 63.441406 35.6875 63.457031 L 36.121094 63.660156 C 36.117188 63.667969 36.113281 63.679688 36.105469 63.6875 C 36.21875 63.714844 36.335938 63.746094 36.484375 63.785156 C 36.078125 63.988281 35.703125 64.171875 35.320313 64.359375 C 35.179688 64.199219 35.042969 64.039063 34.902344 63.878906 C 34.808594 63.769531 34.710938 63.664063 34.621094 63.546875 C 34.582031 63.496094 34.546875 63.421875 34.550781 63.359375 C 34.574219 62.941406 34.621094 62.523438 34.636719 62.105469 C 34.640625 61.953125 34.582031 61.796875 34.546875 61.644531 C 34.484375 61.367188 34.421875 61.089844 34.355469 60.804688 C 34.050781 60.851563 33.765625 60.90625 33.535156 61.132813 C 33.558594 61.492188 33.578125 61.855469 33.597656 62.214844 C 33.609375 62.394531 33.628906 62.578125 33.640625 62.757813 C 33.667969 63.285156 33.695313 63.816406 33.722656 64.34375 C 33.738281 64.667969 33.753906 64.988281 33.777344 65.3125 C 33.785156 65.386719 33.84375 65.457031 33.878906 65.535156 C 33.984375 65.753906 34.140625 65.917969 34.371094 66.015625 C 34.476563 66.0625 34.570313 66.144531 34.664063 66.207031 C 35.054688 66.3125 35.433594 66.25 35.8125 66.117188 C 35.660156 66.246094 35.511719 66.375 35.359375 66.5 C 35.105469 66.714844 34.835938 66.910156 34.605469 67.148438 C 34.433594 67.324219 34.3125 67.550781 34.175781 67.761719 C 33.660156 68.546875 33.132813 69.328125 32.640625 70.125 C 32.414063 70.488281 32.269531 70.902344 32.074219 71.285156 C 31.816406 71.792969 31.625 72.328125 31.464844 72.875 C 31.453125 72.910156 31.4375 72.945313 31.425781 72.976563 C 31.414063 72.976563 31.398438 72.976563 31.386719 72.972656 C 31.386719 72.582031 31.390625 72.195313 31.386719 71.804688 C 31.378906 71.0625 31.371094 70.316406 31.355469 69.574219 C 31.34375 68.820313 31.324219 68.070313 31.300781 67.316406 C 31.292969 66.984375 31.253906 66.65625 31.257813 66.328125 C 31.261719 66.101563 31.320313 65.875 31.363281 65.65625 C 31.4375 65.289063 31.496094 64.921875 31.601563 64.566406 C 31.65625 64.382813 31.78125 64.21875 31.894531 64.058594 C 32.253906 63.554688 32.574219 63.027344 32.832031 62.457031 C 32.847656 62.425781 32.859375 62.390625 32.886719 62.335938 C 32.632813 62.351563 32.402344 62.386719 32.167969 62.378906 C 31.777344 62.367188 31.558594 62.667969 31.273438 62.847656 C 31.15625 62.917969 31.058594 63.023438 30.941406 63.089844 C 30.765625 63.1875 30.683594 63.335938 30.636719 63.523438 C 30.597656 63.683594 30.539063 63.839844 30.488281 64 L 30.449219 64 C 30.414063 63.898438 30.367188 63.800781 30.351563 63.699219 C 30.292969 63.367188 30.117188 63.128906 29.824219 62.960938 C 29.671875 62.875 29.53125 62.765625 29.398438 62.652344 C 29.207031 62.484375 29.003906 62.375 28.738281 62.375 C 28.515625 62.375 28.292969 62.351563 28.046875 62.335938 C 28.078125 62.402344 28.097656 62.449219 28.117188 62.496094 C 28.410156 63.167969 28.851563 63.753906 29.238281 64.367188 C 29.351563 64.542969 29.390625 64.765625 29.441406 64.96875 C 29.53125 65.355469 29.621094 65.738281 29.671875 66.125 C 29.707031 66.394531 29.679688 66.664063 29.671875 66.9375 C 29.652344 67.464844 29.617188 67.996094 29.605469 68.523438 C 29.582031 69.632813 29.5625 70.746094 29.546875 71.859375 C 29.542969 72.230469 29.546875 72.601563 29.546875 72.972656 C 29.53125 72.976563 29.515625 72.976563 29.5 72.980469 C 29.4375 72.769531 29.386719 72.550781 29.300781 72.351563 C 29.097656 71.855469 28.871094 71.367188 28.664063 70.867188 C 28.359375 70.121094 27.871094 69.484375 27.441406 68.8125 C 27.109375 68.292969 26.78125 67.773438 26.425781 67.273438 C 26.292969 67.085938 26.09375 66.949219 25.917969 66.792969 C 25.65625 66.566406 25.390625 66.34375 25.128906 66.105469 C 25.5 66.246094 25.878906 66.316406 26.261719 66.207031 C 26.394531 66.125 26.515625 66.03125 26.652344 65.964844 C 26.800781 65.894531 26.898438 65.785156 26.988281 65.652344 C 27.113281 65.460938 27.160156 65.273438 27.167969 65.046875 C 27.179688 64.53125 27.230469 64.015625 27.261719 63.5 C 27.28125 63.191406 27.296875 62.882813 27.316406 62.574219 C 27.34375 62.132813 27.371094 61.695313 27.398438 61.25 C 27.398438 61.214844 27.398438 61.179688 27.398438 61.152344 C 27.167969 60.925781 26.878906 60.851563 26.554688 60.804688 C 26.511719 61 26.460938 61.195313 26.414063 61.394531 C 26.386719 61.53125 26.367188 61.671875 26.324219 61.804688 C 26.25 62.023438 26.277344 62.246094 26.289063 62.46875 C 26.296875 62.679688 26.320313 62.890625 26.335938 63.101563 C 26.335938 63.125 26.332031 63.148438 26.335938 63.167969 C 26.410156 63.386719 26.308594 63.542969 26.164063 63.699219 C 25.988281 63.886719 25.824219 64.089844 25.65625 64.289063 C 25.636719 64.3125 25.609375 64.332031 25.582031 64.359375 C 25.207031 64.171875 24.832031 63.988281 24.421875 63.785156 C 24.570313 63.746094 24.683594 63.71875 24.796875 63.6875 C 24.789063 63.679688 24.785156 63.671875 24.78125 63.664063 C 24.925781 63.59375 25.074219 63.527344 25.21875 63.457031 C 25.21875 63.453125 25.21875 63.445313 25.214844 63.441406 C 24.902344 63.429688 24.59375 63.414063 24.28125 63.414063 C 24.152344 63.410156 24.070313 63.375 24 63.261719 C 23.800781 62.953125 23.597656 62.648438 23.371094 62.3125 C 23.777344 62.375 24.148438 62.429688 24.519531 62.488281 C 24.523438 62.488281 24.523438 62.488281 24.523438 62.488281 C 24.523438 62.488281 24.519531 62.488281 24.519531 62.484375 C 24.484375 62.457031 24.457031 62.421875 24.417969 62.402344 C 24.007813 62.179688 23.597656 61.964844 23.183594 61.742188 C 23.085938 61.332031 22.984375 60.925781 22.878906 60.492188 C 23.15625 60.65625 23.414063 60.808594 23.671875 60.960938 C 23.675781 60.957031 23.683594 60.953125 23.6875 60.945313 C 23.484375 60.675781 23.269531 60.417969 23.085938 60.136719 C 22.921875 59.894531 22.789063 59.628906 22.660156 59.367188 C 22.621094 59.285156 22.628906 59.179688 22.621094 59.082031 C 22.597656 58.761719 22.585938 58.441406 22.5625 58.117188 C 22.542969 57.835938 22.523438 57.554688 22.53125 57.265625 C 22.730469 57.625 22.925781 57.980469 23.125 58.335938 C 23.136719 58.335938 23.144531 58.332031 23.152344 58.332031 C 23.136719 58.277344 23.121094 58.21875 23.105469 58.164063 L 23.101563 58.164063 C 23.113281 58.160156 23.125 58.160156 23.136719 58.15625 C 23.136719 58.15625 23.140625 58.15625 23.140625 58.160156 C 23.140625 58.15625 23.136719 58.15625 23.132813 58.15625 C 23.117188 58 23.109375 57.839844 23.085938 57.6875 C 23.003906 57.195313 22.914063 56.703125 22.832031 56.210938 C 22.789063 55.96875 22.742188 55.730469 22.707031 55.488281 C 22.695313 55.410156 22.699219 55.328125 22.722656 55.253906 C 22.898438 54.671875 23.082031 54.09375 23.261719 53.511719 C 23.289063 53.429688 23.304688 53.34375 23.332031 53.234375 C 23.503906 53.90625 23.667969 54.550781 23.832031 55.203125 C 23.855469 55.199219 23.875 55.195313 23.898438 55.191406 C 23.886719 55.050781 23.890625 54.910156 23.863281 54.773438 C 23.734375 54.125 23.601563 53.476563 23.476563 52.828125 C 23.460938 52.753906 23.472656 52.664063 23.5 52.597656 C 23.640625 52.261719 23.777344 51.921875 23.949219 51.605469 C 24.023438 51.464844 24.179688 51.367188 24.3125 51.269531 C 24.574219 51.074219 24.8125 50.867188 24.945313 50.550781 C 25.046875 50.3125 25.210938 50.09375 25.3125 49.851563 C 25.378906 49.707031 25.382813 49.53125 25.40625 49.367188 C 25.429688 49.195313 25.445313 49.019531 25.472656 48.8125 C 25.484375 49.015625 25.5 49.179688 25.511719 49.347656 C 25.523438 49.542969 25.550781 49.746094 25.53125 49.941406 C 25.503906 50.277344 25.441406 50.609375 25.390625 50.945313 C 25.300781 51.519531 25.003906 52.03125 24.84375 52.582031 C 24.785156 52.789063 24.773438 53.003906 24.742188 53.214844 C 24.648438 53.816406 24.828125 54.382813 24.9375 54.960938 C 24.996094 55.269531 25.058594 55.582031 25.144531 55.882813 C 25.183594 56.011719 25.285156 56.128906 25.375 56.238281 C 25.625 56.539063 25.878906 56.839844 26.140625 57.132813 C 26.207031 57.203125 26.296875 57.253906 26.382813 57.296875 C 26.6875 57.449219 27.011719 57.367188 27.339844 57.375 C 27.449219 57.25 27.5625 57.117188 27.6875 56.976563 C 27.847656 57.121094 28.007813 57.269531 28.175781 57.421875 C 28.230469 57.34375 28.285156 57.277344 28.328125 57.203125 C 28.535156 56.824219 28.832031 56.523438 29.128906 56.21875 C 29.40625 55.929688 29.707031 55.65625 29.960938 55.34375 C 30.109375 55.164063 30.1875 54.921875 30.292969 54.707031 C 30.355469 54.574219 30.402344 54.4375 30.464844 54.285156 L 30.46875 54.285156 C 30.660156 54.707031 30.769531 55.15625 31.109375 55.496094 C 31.511719 55.902344 31.90625 56.3125 32.289063 56.738281 C 32.445313 56.90625 32.554688 57.121094 32.683594 57.3125 C 32.703125 57.339844 32.722656 57.371094 32.746094 57.40625 C 32.90625 57.257813 33.066406 57.117188 33.222656 56.976563 C 33.339844 57.113281 33.453125 57.242188 33.566406 57.371094 C 33.894531 57.371094 34.222656 57.449219 34.527344 57.296875 C 34.617188 57.253906 34.707031 57.199219 34.769531 57.128906 C 35.082031 56.777344 35.386719 56.425781 35.679688 56.058594 C 35.757813 55.960938 35.789063 55.816406 35.816406 55.6875 C 35.925781 55.179688 36.03125 54.667969 36.132813 54.160156 C 36.207031 53.796875 36.183594 53.433594 36.15625 53.066406 C 36.113281 52.488281 35.804688 52 35.652344 51.457031 C 35.570313 51.167969 35.507813 50.871094 35.453125 50.578125 C 35.410156 50.363281 35.375 50.140625 35.375 49.921875 C 35.378906 49.566406 35.410156 49.210938 35.4375 48.820313 C 35.46875 49.082031 35.492188 49.3125 35.53125 49.539063 C 35.550781 49.675781 35.582031 49.816406 35.636719 49.9375 C 35.769531 50.214844 35.9375 50.476563 36.066406 50.753906 C 36.175781 50.992188 36.402344 51.09375 36.578125 51.253906 C 36.671875 51.339844 36.78125 51.410156 36.882813 51.492188 C 36.917969 51.523438 36.949219 51.570313 36.972656 51.617188 C 37.109375 51.917969 37.234375 52.230469 37.386719 52.527344 C 37.488281 52.730469 37.414063 52.914063 37.378906 53.101563 C 37.265625 53.699219 37.136719 54.292969 37.023438 54.890625 C 37.003906 54.988281 37.019531 55.089844 37.042969 55.199219 C 37.253906 54.558594 37.394531 53.902344 37.570313 53.265625 C 37.6875 53.644531 37.800781 54.023438 37.921875 54.398438 C 38.007813 54.671875 38.089844 54.945313 38.183594 55.210938 C 38.253906 55.414063 38.175781 55.605469 38.148438 55.792969 C 38.0625 56.355469 37.960938 56.910156 37.863281 57.464844 C 37.835938 57.644531 37.800781 57.820313 37.773438 57.996094 C 37.765625 58.046875 37.773438 58.101563 37.773438 58.152344 L 37.765625 58.152344 C 37.769531 58.152344 37.769531 58.152344 37.773438 58.15625 C 37.78125 58.160156 37.792969 58.160156 37.804688 58.164063 C 37.785156 58.21875 37.769531 58.277344 37.753906 58.332031 C 37.761719 58.335938 37.769531 58.339844 37.777344 58.34375 C 37.976563 57.984375 38.175781 57.628906 38.375 57.269531 C 38.382813 57.273438 38.390625 57.273438 38.398438 57.273438 C 38.390625 57.492188 38.382813 57.707031 38.367188 57.921875 C 38.355469 58.097656 38.332031 58.273438 38.320313 58.449219 C 38.296875 58.730469 38.28125 59.011719 38.265625 59.296875 C 38.261719 59.328125 38.253906 59.363281 38.234375 59.394531 C 38.03125 59.8125 37.808594 60.222656 37.5 60.578125 C 37.398438 60.691406 37.3125 60.820313 37.234375 60.960938 C 37.492188 60.808594 37.75 60.65625 38.027344 60.492188 C 37.921875 60.921875 37.824219 61.328125 37.722656 61.742188 C 37.332031 61.953125 36.9375 62.164063 36.542969 62.375 C 36.488281 62.40625 36.4375 62.445313 36.382813 62.480469 L 36.375 62.484375" stroke-linecap="round" />
</g>
<g transform="matrix(0 0 0 0 10 16)" id="RWoj0QnmcmZTdYvRl-9-i"  >
<path style="stroke: none; stroke-width: 1; stroke-dasharray: none; stroke-linecap: butt; stroke-dashoffset: 0; stroke-linejoin: miter; stroke-miterlimit: 4; fill: rgb(33,28,30); fill-rule: nonzero; opacity: 1;" vector-effect="non-scaling-stroke"  transform=" translate(-23.11, -58.13)" d="M 23.101563 58.164063 C 23.101563 58.140625 23.101563 58.113281 23.097656 58.089844 C 23.105469 58.09375 23.109375 58.09375 23.117188 58.09375 C 23.113281 58.117188 23.105469 58.140625 23.101563 58.164063" stroke-linecap="round" />
</g>
<g transform="matrix(0 0 0 0 30 16)" id="muTo5ROvMP0sIJlDGfeLV"  >
<path style="stroke: none; stroke-width: 1; stroke-dasharray: none; stroke-linecap: butt; stroke-dashoffset: 0; stroke-linejoin: miter; stroke-miterlimit: 4; fill: rgb(33,28,30); fill-rule: nonzero; opacity: 1;" vector-effect="non-scaling-stroke"  transform=" translate(-37.79, -58.13)" d="M 37.804688 58.164063 L 37.785156 58.09375 C 37.792969 58.09375 37.796875 58.089844 37.804688 58.089844 L 37.804688 58.164063" stroke-linecap="round" />
</g>
<g transform="matrix(0 0 0 0 10 16)" id="VrrbjqRsPkKMewLnggudp"  >
<path style="stroke: none; stroke-width: 1; stroke-dasharray: none; stroke-linecap: butt; stroke-dashoffset: 0; stroke-linejoin: miter; stroke-miterlimit: 4; fill: rgb(33,28,30); fill-rule: nonzero; opacity: 1;" vector-effect="non-scaling-stroke"  transform=" translate(-23.08, -58.01)" d="M 23.085938 58.015625 C 23.082031 58.019531 23.082031 58.019531 23.078125 58.019531 C 23.078125 58.015625 23.078125 58.011719 23.078125 58.007813 C 23.078125 58.007813 23.082031 58.007813 23.085938 58.003906 C 23.085938 58.007813 23.085938 58.011719 23.085938 58.015625" stroke-linecap="round" />
</g>
<g transform="matrix(0 0 0 0 30 16)" id="fRGY4hrL8tAp47-YnAzrv"  >
<path style="stroke: none; stroke-width: 1; stroke-dasharray: none; stroke-linecap: butt; stroke-dashoffset: 0; stroke-linejoin: miter; stroke-miterlimit: 4; fill: rgb(33,28,30); fill-rule: nonzero; opacity: 1;" vector-effect="non-scaling-stroke"  transform=" translate(-37.83, -58.01)" d="M 37.828125 58.003906 C 37.828125 58.007813 37.828125 58.015625 37.824219 58.019531 C 37.828125 58.015625 37.828125 58.007813 37.828125 58.003906" stroke-linecap="round" />
</g>
</svg>