<?xml version="1.0" encoding="UTF-8" standalone="no" ?>
<!DOCTYPE svg PUBLIC "-//W3C//DTD SVG 1.1//EN" "http://www.w3.org/Graphics/SVG/1.1/DTD/svg11.dtd">
<svg xmlns="http://www.w3.org/2000/svg" xmlns:xlink="http://www.w3.org/1999/xlink" version="1.1" width="40" height="40" viewBox="0 0 40 40" xml:space="preserve">
<desc>Created with Fabric.js 4.6.0</desc>
<defs>
</defs>
<g transform="matrix(1.32 0 0 1.32 20 20)" id="bUEN_FzB9Uw50oz-jwU3x"  >
<path style="stroke: none; stroke-width: 1; stroke-dasharray: none; stroke-linecap: butt; stroke-dashoffset: 0; stroke-linejoin: miter; stroke-miterlimit: 4; fill: rgb(33,28,30); fill-rule: nonzero; opacity: 1;" vector-effect="non-scaling-stroke"  transform=" translate(-89.41, -59.39)" d="M 83.296875 72.707031 C 82.992188 72.671875 82.785156 72.882813 82.511719 72.980469 C 82.460938 72.945313 82.394531 72.90625 82.320313 72.863281 C 82.339844 72.792969 82.355469 72.726563 82.378906 72.628906 C 82.210938 72.386719 82.027344 72.128906 81.855469 71.882813 C 81.855469 71.542969 82 71.292969 82.3125 71.15625 C 82.261719 71.074219 82.226563 71.015625 82.183594 70.945313 C 82.324219 70.558594 82.46875 70.160156 82.613281 69.769531 C 82.554688 69.570313 82.496094 69.371094 82.433594 69.160156 C 82.65625 69.078125 82.835938 68.882813 83.117188 68.984375 C 83.15625 68.796875 83.171875 68.617188 83.230469 68.449219 C 83.355469 68.078125 83.5 67.707031 83.644531 67.339844 C 83.886719 66.722656 84.148438 66.113281 84.382813 65.492188 C 84.476563 65.246094 84.519531 64.980469 84.597656 64.683594 C 85.097656 64.519531 85.441406 64.113281 85.796875 63.691406 C 85.789063 63.480469 85.777344 63.253906 85.765625 63.019531 C 85.648438 62.957031 85.527344 62.894531 85.382813 62.820313 C 85.78125 62.164063 86.175781 61.515625 86.574219 60.863281 C 86.996094 60.167969 87.421875 59.472656 87.929688 58.835938 C 88.121094 58.601563 88.328125 58.378906 88.53125 58.148438 C 88.796875 57.855469 89.0625 57.5625 89.328125 57.273438 C 89.589844 56.992188 89.859375 56.726563 90.113281 56.441406 C 90.511719 56 90.898438 55.550781 91.285156 55.101563 C 91.625 54.714844 91.96875 54.332031 92.292969 53.929688 C 92.515625 53.652344 92.707031 53.347656 92.90625 53.050781 C 93.6875 51.871094 94.472656 50.691406 95.246094 49.507813 C 95.417969 49.242188 95.539063 48.945313 95.679688 48.664063 C 95.914063 48.1875 96.160156 47.714844 96.367188 47.226563 C 96.511719 46.882813 96.59375 46.511719 96.703125 46.152344 C 96.738281 46.035156 96.769531 45.914063 96.828125 45.792969 C 96.855469 45.921875 96.882813 46.050781 96.90625 46.179688 C 96.980469 46.554688 96.992188 46.925781 96.949219 47.304688 C 96.910156 47.691406 96.910156 48.085938 96.878906 48.472656 C 96.855469 48.804688 96.8125 49.136719 96.773438 49.464844 C 96.742188 49.753906 96.71875 50.039063 96.671875 50.324219 C 96.605469 50.726563 96.519531 51.121094 96.445313 51.519531 C 96.269531 52.511719 95.925781 53.457031 95.585938 54.402344 C 95.421875 54.851563 95.230469 55.296875 95.007813 55.71875 C 94.871094 55.976563 94.640625 56.179688 94.46875 56.417969 C 94.046875 57.027344 93.4375 57.4375 92.871094 57.894531 C 92.316406 58.34375 91.738281 58.769531 91.167969 59.203125 C 91.050781 59.292969 90.910156 59.351563 90.792969 59.441406 C 90.429688 59.714844 90.074219 59.996094 89.714844 60.269531 C 89.195313 60.664063 88.855469 61.21875 88.429688 61.695313 C 87.675781 62.542969 87.160156 63.546875 86.578125 64.507813 C 86.207031 65.121094 85.914063 65.792969 85.625 66.453125 C 85.25 67.308594 84.894531 68.167969 84.570313 69.039063 C 84.296875 69.769531 84.066406 70.519531 83.839844 71.265625 C 83.777344 71.460938 83.757813 71.679688 83.765625 71.882813 C 83.773438 72.105469 83.671875 72.234375 83.507813 72.335938 C 83.367188 72.417969 83.296875 72.535156 83.296875 72.707031" stroke-linecap="round" />
</g>
<g transform="matrix(1.35 0 0 1.36 15 11)" id="LJqABjrxJHlgzOsgy7hjq"  >
<path style="stroke: none; stroke-width: 1; stroke-dasharray: none; stroke-linecap: butt; stroke-dashoffset: 0; stroke-linejoin: miter; stroke-miterlimit: 4; fill: rgb(33,28,30); fill-rule: nonzero; opacity: 1;" vector-effect="non-scaling-stroke"  transform=" translate(-85.55, -52.41)" d="M 89.246094 57.035156 C 88.644531 57.695313 88.042969 58.351563 87.429688 59.027344 C 87.1875 58.855469 86.929688 58.691406 86.695313 58.5 C 86.078125 58.007813 85.460938 57.519531 84.871094 57 C 84.613281 56.769531 84.421875 56.46875 84.195313 56.203125 C 83.625 55.542969 83.390625 54.722656 83.082031 53.933594 C 82.671875 52.882813 82.4375 51.785156 82.203125 50.6875 C 82.125 50.328125 82.117188 49.949219 82.074219 49.578125 C 82.039063 49.261719 82 48.945313 81.964844 48.632813 C 81.949219 48.476563 81.933594 48.324219 81.925781 48.167969 C 81.898438 47.683594 81.851563 47.203125 81.851563 46.71875 C 81.847656 46.472656 81.925781 46.230469 81.964844 45.984375 C 81.976563 45.921875 81.992188 45.855469 82.027344 45.792969 C 82.101563 46.039063 82.183594 46.289063 82.246094 46.539063 C 82.34375 46.917969 82.472656 47.277344 82.648438 47.621094 C 82.828125 47.976563 83.007813 48.332031 83.167969 48.691406 C 83.546875 49.558594 84.125 50.304688 84.632813 51.089844 C 85.203125 51.96875 85.78125 52.84375 86.375 53.707031 C 86.585938 54.015625 86.84375 54.285156 87.085938 54.570313 C 87.4375 54.980469 87.785156 55.390625 88.140625 55.796875 C 88.402344 56.097656 88.671875 56.394531 88.9375 56.691406 C 89.039063 56.808594 89.144531 56.921875 89.246094 57.035156" stroke-linecap="round" />
</g>
<g transform="matrix(1.36 0 0 1.32 25 29)" id="feblEHZPVe4NNRERQbEnt"  >
<path style="stroke: none; stroke-width: 1; stroke-dasharray: none; stroke-linecap: butt; stroke-dashoffset: 0; stroke-linejoin: miter; stroke-miterlimit: 4; fill: rgb(33,28,30); fill-rule: nonzero; opacity: 1;" vector-effect="non-scaling-stroke"  transform=" translate(-93.29, -66.17)" d="M 96.339844 72.972656 C 96.0625 72.859375 95.816406 72.761719 95.539063 72.648438 C 95.5625 72.472656 95.386719 72.367188 95.230469 72.257813 C 95.125 72.1875 95.082031 72.101563 95.078125 71.972656 C 95.066406 71.410156 94.886719 70.882813 94.722656 70.351563 C 94.332031 69.078125 93.816406 67.847656 93.292969 66.625 C 92.722656 65.304688 92.027344 64.046875 91.246094 62.835938 C 90.878906 62.265625 90.449219 61.753906 90.023438 61.234375 C 89.886719 61.066406 89.746094 60.894531 89.605469 60.71875 C 90.148438 60.222656 90.636719 59.664063 91.347656 59.375 C 92.042969 60.511719 92.746094 61.660156 93.457031 62.816406 C 93.3125 62.894531 93.195313 62.953125 93.070313 63.019531 C 93.058594 63.242188 93.046875 63.472656 93.035156 63.691406 C 93.386719 64.109375 93.730469 64.511719 94.242188 64.683594 C 94.46875 65.792969 94.992188 66.765625 95.371094 67.785156 C 95.503906 68.128906 95.636719 68.464844 95.683594 68.832031 C 95.6875 68.875 95.707031 68.917969 95.726563 68.980469 C 95.988281 68.882813 96.171875 69.070313 96.398438 69.160156 C 96.339844 69.363281 96.28125 69.558594 96.222656 69.769531 C 96.359375 70.152344 96.507813 70.546875 96.652344 70.941406 C 96.613281 71.007813 96.578125 71.066406 96.523438 71.152344 C 96.820313 71.296875 97 71.53125 96.980469 71.882813 C 96.808594 72.125 96.628906 72.382813 96.457031 72.625 C 96.480469 72.71875 96.496094 72.785156 96.515625 72.859375 C 96.449219 72.902344 96.382813 72.941406 96.339844 72.972656" stroke-linecap="round" />
</g>
<g transform="matrix(1.25 0 0 1.39 20 35.5)" id="ulz90tXyIWJYu0LtK07ZQ"  >
<path style="stroke: none; stroke-width: 1; stroke-dasharray: none; stroke-linecap: butt; stroke-dashoffset: 0; stroke-linejoin: miter; stroke-miterlimit: 4; fill: rgb(33,28,30); fill-rule: nonzero; opacity: 1;" vector-effect="non-scaling-stroke"  transform=" translate(-89.55, -70.64)" d="M 86.359375 71.34375 C 86.472656 71.15625 86.605469 71.011719 86.816406 70.949219 C 86.929688 70.917969 87.035156 70.859375 87.148438 70.820313 C 87.488281 70.707031 87.71875 70.484375 87.878906 70.164063 C 88.046875 69.824219 88.230469 69.496094 88.40625 69.160156 C 88.777344 69.015625 89.132813 68.84375 89.53125 68.839844 C 89.808594 68.839844 90.074219 68.925781 90.339844 69.011719 C 90.605469 69.097656 90.777344 69.246094 90.882813 69.503906 C 90.984375 69.75 91.132813 69.980469 91.257813 70.222656 C 91.398438 70.496094 91.617188 70.6875 91.90625 70.804688 C 92.015625 70.847656 92.125 70.902344 92.234375 70.933594 C 92.464844 70.992188 92.621094 71.128906 92.738281 71.332031 C 92.574219 71.679688 92.347656 71.984375 92.015625 72.199219 C 91.898438 72.277344 91.769531 72.355469 91.632813 72.40625 C 91.328125 72.527344 91.046875 72.355469 90.757813 72.300781 C 90.453125 72.242188 90.15625 72.128906 89.847656 72.09375 C 89.527344 72.054688 89.195313 72.082031 88.875 72.171875 C 88.519531 72.273438 88.160156 72.363281 87.796875 72.433594 C 87.578125 72.480469 87.367188 72.421875 87.1875 72.28125 C 87.113281 72.222656 87.046875 72.148438 86.96875 72.101563 C 86.671875 71.917969 86.539063 71.613281 86.359375 71.34375" stroke-linecap="round" />
</g>
<g transform="matrix(1.12 0 0 1.33 21 30)" id="bKqPv7hcZxgtOMwQ12jJH"  >
<path style="stroke: none; stroke-width: 1; stroke-dasharray: none; stroke-linecap: butt; stroke-dashoffset: 0; stroke-linejoin: miter; stroke-miterlimit: 4; fill: rgb(33,28,30); fill-rule: nonzero; opacity: 1;" vector-effect="non-scaling-stroke"  transform=" translate(-90.61, -66.55)" d="M 89.867188 68.308594 C 89.8125 67.910156 89.734375 67.519531 89.714844 67.128906 C 89.703125 66.878906 89.757813 66.625 89.808594 66.378906 C 89.867188 66.117188 89.957031 65.863281 90.035156 65.609375 C 90.050781 65.5625 90.082031 65.515625 90.117188 65.484375 C 90.375 65.273438 90.351563 65.027344 90.222656 64.761719 C 90.214844 64.746094 90.210938 64.726563 90.191406 64.667969 C 90.363281 64.765625 90.554688 64.773438 90.644531 64.949219 C 90.84375 65.339844 91.171875 65.625 91.503906 65.960938 L 91.503906 67.523438 C 91.3125 67.753906 91.140625 68.011719 90.917969 68.214844 C 90.738281 68.375 90.507813 68.492188 90.242188 68.414063 C 90.117188 68.378906 89.992188 68.34375 89.867188 68.308594" stroke-linecap="round" />
</g>
<g transform="matrix(1.12 0 0 1.33 18.5 30)" id="oC89DjnBJdIWwyltr0DZ9"  >
<path style="stroke: none; stroke-width: 1; stroke-dasharray: none; stroke-linecap: butt; stroke-dashoffset: 0; stroke-linejoin: miter; stroke-miterlimit: 4; fill: rgb(33,28,30); fill-rule: nonzero; opacity: 1;" vector-effect="non-scaling-stroke"  transform=" translate(-88.5, -66.57)" d="M 87.601563 67.523438 L 87.601563 65.941406 C 87.703125 65.847656 87.785156 65.785156 87.855469 65.707031 C 88.039063 65.492188 88.238281 65.285156 88.386719 65.046875 C 88.511719 64.839844 88.691406 64.769531 88.871094 64.691406 C 88.847656 64.84375 88.808594 64.996094 88.808594 65.148438 C 88.808594 65.230469 88.863281 65.316406 88.90625 65.394531 C 88.96875 65.511719 89.0625 65.613281 89.105469 65.734375 C 89.265625 66.160156 89.398438 66.597656 89.394531 67.050781 C 89.390625 67.402344 89.3125 67.753906 89.269531 68.105469 C 89.261719 68.167969 89.253906 68.234375 89.242188 68.304688 C 89.097656 68.347656 88.949219 68.402344 88.796875 68.4375 C 88.738281 68.449219 88.671875 68.425781 88.609375 68.417969 C 88.253906 68.367188 88.070313 68.09375 87.863281 67.84375 C 87.777344 67.738281 87.6875 67.628906 87.601563 67.523438" stroke-linecap="round" />
</g>
<g transform="matrix(1.53 0 0 1.4 16 32.5)" id="1k_VZyd54rOYEcikIAPyA"  >
<path style="stroke: none; stroke-width: 1; stroke-dasharray: none; stroke-linecap: butt; stroke-dashoffset: 0; stroke-linejoin: miter; stroke-miterlimit: 4; fill: rgb(33,28,30); fill-rule: nonzero; opacity: 1;" vector-effect="non-scaling-stroke"  transform=" translate(-86.9, -68.48)" d="M 87.183594 66.691406 C 87.15625 66.851563 87.128906 66.960938 87.121094 67.074219 C 87.097656 67.441406 87.230469 67.765625 87.441406 68.042969 C 87.667969 68.351563 87.726563 68.71875 87.855469 69.058594 C 87.964844 69.34375 87.734375 69.832031 87.488281 70.023438 C 87.246094 70.210938 87.007813 70.367188 86.636719 70.199219 C 86.371094 70 86.160156 69.667969 86.015625 69.320313 C 85.917969 69.078125 85.867188 68.796875 85.992188 68.511719 C 86.214844 67.992188 86.511719 67.515625 86.808594 67.042969 C 86.890625 66.914063 87.035156 66.828125 87.183594 66.691406" stroke-linecap="round" />
</g>
<g transform="matrix(1.56 0 0 1.41 24 32.5)" id="8qupBmsPIDEmGsXj4TFlN"  >
<path style="stroke: none; stroke-width: 1; stroke-dasharray: none; stroke-linecap: butt; stroke-dashoffset: 0; stroke-linejoin: miter; stroke-miterlimit: 4; fill: rgb(33,28,30); fill-rule: nonzero; opacity: 1;" vector-effect="non-scaling-stroke"  transform=" translate(-92.2, -68.5)" d="M 92.433594 70.234375 C 92.359375 70.246094 92.289063 70.257813 92.222656 70.269531 C 92.085938 70.289063 91.957031 70.285156 91.84375 70.183594 C 91.738281 70.089844 91.613281 70.011719 91.507813 69.917969 C 91.28125 69.714844 91.246094 69.4375 91.238281 69.15625 C 91.238281 69.089844 91.261719 69.027344 91.277344 68.964844 C 91.324219 68.808594 91.367188 68.652344 91.429688 68.503906 C 91.496094 68.347656 91.578125 68.199219 91.667969 68.058594 C 91.855469 67.753906 92.007813 67.4375 91.984375 67.070313 C 91.976563 66.960938 91.949219 66.855469 91.953125 66.722656 C 92.070313 66.828125 92.214844 66.917969 92.296875 67.046875 C 92.601563 67.519531 92.898438 67.996094 93.117188 68.515625 C 93.171875 68.648438 93.167969 68.765625 93.164063 68.90625 C 93.164063 69.386719 92.878906 69.726563 92.597656 70.070313 C 92.546875 70.128906 92.484375 70.183594 92.433594 70.234375" stroke-linecap="round" />
</g>
</svg>