<?xml version="1.0" encoding="UTF-8" standalone="no" ?>
<!DOCTYPE svg PUBLIC "-//W3C//DTD SVG 1.1//EN" "http://www.w3.org/Graphics/SVG/1.1/DTD/svg11.dtd">
<svg xmlns="http://www.w3.org/2000/svg" xmlns:xlink="http://www.w3.org/1999/xlink" version="1.1" width="40" height="40" viewBox="0 0 40 40" xml:space="preserve">
<desc>Created with Fabric.js 4.6.0</desc>
<defs>
</defs>
<g transform="matrix(1.32 0 0 1.32 20 20)" id="hotbzGEKxboo9jHeult-n"  >
<path style="stroke: none; stroke-width: 1; stroke-dasharray: none; stroke-linecap: butt; stroke-dashoffset: 0; stroke-linejoin: miter; stroke-miterlimit: 4; fill: rgb(33,28,30); fill-rule: nonzero; opacity: 1;" vector-effect="non-scaling-stroke"  transform=" translate(-142.59, -60.89)" d="M 138.097656 51.910156 C 137.753906 52.074219 137.421875 52.234375 137.046875 52.414063 C 137.773438 52.652344 138.453125 52.859375 139.121094 53.109375 C 139.425781 53.222656 139.710938 53.179688 140.054688 53.144531 C 139.378906 52.714844 138.738281 52.3125 138.097656 51.910156 M 145.175781 53.117188 C 145.179688 53.128906 145.1875 53.140625 145.1875 53.152344 C 145.34375 53.167969 145.5 53.183594 145.65625 53.191406 C 145.71875 53.195313 145.785156 53.195313 145.84375 53.179688 C 146.378906 53.003906 146.910156 52.824219 147.445313 52.644531 C 147.664063 52.570313 147.882813 52.496094 148.140625 52.410156 C 147.761719 52.230469 147.421875 52.070313 147.085938 51.910156 C 146.445313 52.316406 145.8125 52.714844 145.175781 53.117188 M 152.433594 51.136719 C 151.511719 51.789063 150.804688 52.625 150.003906 53.355469 C 149.894531 53.457031 149.71875 53.5 149.566406 53.535156 C 148.699219 53.738281 147.855469 54.007813 147.027344 54.335938 C 146.542969 54.53125 146.054688 54.710938 145.558594 54.878906 C 145.320313 54.957031 145.070313 54.929688 144.84375 54.816406 C 144.585938 54.683594 144.347656 54.515625 144.089844 54.386719 C 143.855469 54.265625 143.605469 54.171875 143.328125 54.050781 C 143.332031 54.15625 143.339844 54.207031 143.335938 54.261719 C 143.316406 54.660156 143.308594 55.058594 143.269531 55.453125 C 143.21875 56.050781 143.144531 56.640625 143.082031 57.234375 C 143.070313 57.355469 143.054688 57.476563 143.039063 57.605469 C 143.722656 57.617188 144.335938 57.425781 144.9375 57.199219 C 144.953125 57.210938 144.96875 57.222656 144.980469 57.234375 C 144.808594 57.589844 144.636719 57.949219 144.453125 58.324219 C 144.316406 58.1875 144.195313 58.054688 144.0625 57.9375 C 144.019531 57.898438 143.941406 57.875 143.886719 57.878906 C 143.730469 57.894531 143.578125 57.929688 143.421875 57.957031 C 143.460938 58.300781 143.480469 58.617188 143.53125 58.925781 C 143.546875 59.019531 143.640625 59.097656 143.671875 59.144531 C 143.65625 59.570313 143.644531 59.957031 143.628906 60.347656 C 143.605469 61.050781 143.578125 61.757813 143.554688 62.464844 C 143.539063 62.9375 143.53125 63.410156 143.511719 63.886719 C 143.484375 64.652344 143.453125 65.425781 143.425781 66.191406 C 143.367188 67.683594 143.324219 69.171875 143.246094 70.660156 C 143.226563 71.050781 143.117188 71.4375 143.042969 71.824219 C 142.976563 72.195313 142.902344 72.566406 142.824219 72.976563 C 142.753906 72.636719 142.691406 72.335938 142.628906 72.03125 C 142.546875 71.617188 142.457031 71.203125 142.386719 70.785156 C 142.351563 70.585938 142.351563 70.382813 142.339844 70.179688 C 142.285156 68.992188 142.238281 67.800781 142.183594 66.613281 C 142.136719 65.621094 142.082031 64.628906 142.035156 63.636719 C 141.984375 62.589844 141.9375 61.539063 141.894531 60.484375 C 141.878906 60.152344 141.875 59.816406 141.859375 59.480469 C 141.855469 59.386719 141.828125 59.296875 141.8125 59.179688 C 142.039063 59.015625 141.988281 58.742188 142.019531 58.492188 C 142.039063 58.320313 142.054688 58.148438 142.074219 57.957031 C 141.886719 57.925781 141.710938 57.898438 141.503906 57.871094 C 141.363281 58.015625 141.210938 58.167969 141.046875 58.339844 C 140.867188 57.980469 140.691406 57.628906 140.515625 57.277344 C 140.523438 57.261719 140.53125 57.246094 140.539063 57.230469 C 141.144531 57.4375 141.753906 57.628906 142.421875 57.609375 C 142.425781 57.582031 142.445313 57.539063 142.441406 57.496094 C 142.347656 56.714844 142.246094 55.9375 142.160156 55.15625 C 142.128906 54.863281 142.136719 54.566406 142.125 54.273438 C 142.121094 54.1875 142.121094 54.105469 142.121094 53.984375 C 141.816406 54.097656 141.519531 54.179688 141.238281 54.3125 C 140.941406 54.453125 140.671875 54.640625 140.382813 54.800781 C 140.128906 54.9375 139.855469 54.957031 139.585938 54.859375 C 138.808594 54.578125 138.039063 54.261719 137.253906 54 C 136.628906 53.789063 135.988281 53.636719 135.355469 53.457031 C 135.304688 53.441406 135.246094 53.414063 135.207031 53.378906 C 134.589844 52.785156 133.980469 52.183594 133.355469 51.597656 C 133.210938 51.457031 133.027344 51.351563 132.863281 51.230469 C 132.835938 51.210938 132.8125 51.183594 132.753906 51.136719 C 134.277344 50.761719 135.722656 50.261719 137.183594 49.652344 C 137.441406 49.691406 137.753906 49.710938 138.050781 49.789063 C 138.238281 49.839844 138.402344 49.976563 138.578125 50.082031 C 139.320313 50.523438 140.0625 50.96875 140.808594 51.410156 C 140.875 51.445313 140.953125 51.484375 141.027344 51.488281 C 141.394531 51.511719 141.757813 51.523438 142.121094 51.539063 C 142.144531 51.539063 142.160156 51.527344 142.210938 51.515625 C 142.113281 51.113281 142.425781 50.871094 142.621094 50.542969 C 142.496094 50.414063 142.371094 50.285156 142.230469 50.136719 C 142.265625 49.726563 142.296875 49.300781 142.328125 48.878906 C 142.605469 48.792969 142.605469 48.792969 143.078125 48.859375 C 143.113281 49.285156 143.152344 49.710938 143.1875 50.132813 C 143.070313 50.253906 142.960938 50.367188 142.832031 50.503906 C 142.847656 50.550781 142.855469 50.621094 142.890625 50.671875 C 142.980469 50.8125 143.089844 50.941406 143.175781 51.085938 C 143.210938 51.140625 143.214844 51.222656 143.222656 51.292969 C 143.230469 51.367188 143.226563 51.4375 143.226563 51.535156 C 143.394531 51.519531 143.542969 51.488281 143.6875 51.503906 C 144.105469 51.554688 144.445313 51.386719 144.785156 51.171875 C 145.527344 50.714844 146.28125 50.277344 147.035156 49.835938 C 147.113281 49.789063 147.21875 49.777344 147.3125 49.761719 C 147.554688 49.71875 147.796875 49.679688 147.992188 49.648438 C 149.460938 50.261719 150.910156 50.765625 152.433594 51.136719" stroke-linecap="round" />
</g>
</svg>