<?xml version="1.0" encoding="UTF-8" standalone="no" ?>
<!DOCTYPE svg PUBLIC "-//W3C//DTD SVG 1.1//EN" "http://www.w3.org/Graphics/SVG/1.1/DTD/svg11.dtd">
<svg xmlns="http://www.w3.org/2000/svg" xmlns:xlink="http://www.w3.org/1999/xlink" version="1.1" width="40" height="40" viewBox="0 0 40 40" xml:space="preserve">
<desc>Created with Fabric.js 4.6.0</desc>
<defs>
</defs>
<g transform="matrix(1.3 0 0 1.32 19.5 20)" id="JxCOeVQObG7vTZn4NhOxz"  >
<path style="stroke: none; stroke-width: 1; stroke-dasharray: none; stroke-linecap: butt; stroke-dashoffset: 0; stroke-linejoin: miter; stroke-miterlimit: 4; fill: rgb(33,28,30); fill-rule: nonzero; opacity: 1;" vector-effect="non-scaling-stroke"  transform=" translate(-198.32, -60.89)" d="M 199.5 68.332031 L 199.503906 68.335938 C 199.511719 68.136719 199.566406 67.960938 199.6875 67.796875 C 199.75 67.71875 199.804688 67.613281 199.808594 67.519531 C 199.816406 67.214844 199.800781 66.90625 199.789063 66.601563 C 199.78125 66.351563 199.695313 66.128906 199.523438 65.949219 C 199.363281 65.78125 199.277344 65.601563 199.296875 65.363281 C 199.304688 65.230469 199.265625 65.09375 199.25 64.957031 C 199.222656 64.957031 199.191406 64.960938 199.164063 64.960938 C 198.941406 65.449219 199.152344 65.984375 199.039063 66.484375 C 198.933594 66.65625 198.832031 66.828125 198.722656 67.011719 L 198.578125 67.011719 C 198.609375 66.808594 198.664063 66.613281 198.671875 66.421875 C 198.683594 66.054688 198.683594 65.6875 198.65625 65.324219 C 198.625 64.925781 198.539063 64.53125 198.507813 64.136719 C 198.472656 63.726563 198.421875 63.332031 198.207031 62.96875 C 198.050781 62.707031 197.960938 62.421875 198.070313 62.101563 C 198.125 61.941406 198.105469 61.769531 197.984375 61.609375 C 197.925781 61.710938 197.855469 61.816406 197.855469 61.925781 C 197.84375 62.378906 197.851563 62.828125 197.855469 63.277344 C 197.855469 63.3125 197.875 63.359375 197.898438 63.386719 C 198.03125 63.542969 198.046875 63.730469 198.046875 63.921875 C 198.054688 64.242188 198.058594 64.5625 198.050781 64.886719 C 198.046875 64.980469 198 65.082031 197.964844 65.175781 C 197.933594 65.265625 197.898438 65.359375 197.84375 65.441406 C 197.78125 65.535156 197.710938 65.628906 197.625 65.707031 C 197.523438 65.796875 197.402344 65.867188 197.269531 65.964844 C 197.292969 65.75 197.335938 65.535156 197.34375 65.316406 C 197.351563 65.136719 197.324219 64.957031 197.304688 64.777344 C 197.300781 64.738281 197.257813 64.710938 197.199219 64.628906 C 197.144531 64.78125 197.105469 64.886719 197.050781 65.03125 C 197.011719 65.042969 196.941406 65.066406 196.898438 65.078125 C 196.773438 65.265625 196.652344 65.4375 196.546875 65.617188 C 196.496094 65.707031 196.441406 65.8125 196.4375 65.917969 C 196.410156 66.308594 196.398438 66.707031 196.394531 67.101563 C 196.390625 67.265625 196.40625 67.433594 196.5625 67.546875 C 196.59375 67.566406 196.605469 67.628906 196.609375 67.671875 C 196.632813 67.839844 196.648438 68.007813 196.667969 68.214844 C 196.632813 68.152344 196.617188 68.117188 196.597656 68.085938 C 196.578125 68.046875 196.558594 68.003906 196.53125 67.953125 C 196.457031 67.941406 196.378906 67.925781 196.300781 67.917969 C 196.109375 67.898438 196.070313 67.855469 196.058594 67.664063 C 196.050781 67.550781 196.023438 67.4375 196.007813 67.324219 C 195.988281 67.324219 195.96875 67.320313 195.945313 67.320313 C 195.917969 67.363281 195.871094 67.40625 195.863281 67.453125 C 195.769531 67.902344 195.800781 68.324219 196.117188 68.6875 C 196.183594 68.742188 196.253906 68.796875 196.316406 68.84375 C 196.332031 68.902344 196.347656 68.957031 196.363281 69.011719 C 196.417969 69.039063 196.46875 69.0625 196.53125 69.09375 C 196.550781 69.386719 196.476563 69.714844 196.773438 69.921875 C 197.023438 70.09375 197.253906 70.324219 197.589844 70.257813 C 197.636719 70.308594 197.675781 70.351563 197.726563 70.414063 C 197.839844 70.398438 197.972656 70.414063 198.066406 70.363281 C 198.234375 70.269531 198.363281 70.296875 198.492188 70.40625 C 198.691406 70.578125 198.914063 70.542969 199.15625 70.492188 C 199.1875 70.355469 199.210938 70.222656 199.230469 70.132813 C 199.429688 70.015625 199.601563 69.914063 199.773438 69.8125 C 199.878906 69.765625 199.996094 69.734375 200.113281 69.710938 C 200.304688 69.671875 200.402344 69.5625 200.445313 69.367188 C 200.515625 69.085938 200.609375 68.8125 200.570313 68.515625 C 200.566406 68.484375 200.578125 68.445313 200.597656 68.421875 C 200.71875 68.230469 200.691406 68.027344 200.621094 67.839844 C 200.5625 67.679688 200.488281 67.507813 200.261719 67.480469 C 200.125 67.695313 200.1875 67.921875 200.226563 68.175781 C 200.148438 68.1875 200.074219 68.21875 200.007813 68.207031 C 199.816406 68.175781 199.644531 68.183594 199.5 68.332031 M 198.039063 50.792969 L 198.039063 50.367188 C 198.203125 50.175781 198.078125 49.949219 198.121094 49.78125 C 198.261719 49.445313 198.148438 49.125 198.207031 48.8125 C 198.265625 48.816406 198.316406 48.816406 198.359375 48.820313 C 198.386719 48.957031 198.40625 49.074219 198.429688 49.195313 C 198.429688 49.195313 198.429688 49.195313 198.433594 49.195313 C 198.503906 49.589844 198.578125 49.980469 198.648438 50.371094 L 198.667969 50.371094 C 198.695313 50.460938 198.730469 50.554688 198.757813 50.644531 C 198.769531 50.683594 198.769531 50.722656 198.773438 50.761719 C 198.8125 51.089844 198.855469 51.414063 198.898438 51.742188 C 198.933594 51.996094 198.964844 52.253906 199.007813 52.507813 C 199.046875 52.773438 199.097656 53.042969 199.144531 53.3125 C 199.175781 53.503906 199.191406 53.695313 199.230469 53.882813 C 199.289063 54.140625 199.359375 54.390625 199.433594 54.644531 C 199.523438 54.945313 199.617188 55.246094 199.710938 55.546875 C 199.769531 55.738281 199.835938 55.929688 199.894531 56.125 C 199.960938 56.335938 200.023438 56.550781 200.089844 56.761719 C 200.148438 56.945313 200.203125 57.132813 200.265625 57.316406 C 200.332031 57.511719 200.398438 57.707031 200.476563 57.898438 C 200.609375 58.234375 200.746094 58.574219 200.898438 58.902344 C 201.144531 59.453125 201.402344 60 201.652344 60.546875 C 201.816406 60.902344 201.980469 61.257813 202.136719 61.617188 C 202.199219 61.753906 202.238281 61.902344 202.277344 62.050781 C 202.40625 62.515625 202.53125 62.980469 202.65625 63.445313 C 202.714844 63.660156 202.761719 63.875 202.824219 64.085938 C 202.886719 64.292969 202.964844 64.492188 203.03125 64.699219 C 203.066406 64.8125 203.101563 64.925781 203.117188 65.042969 C 203.179688 65.445313 203.257813 65.847656 203.285156 66.253906 C 203.3125 66.691406 203.308594 67.132813 203.285156 67.570313 C 203.269531 67.859375 203.207031 68.144531 203.152344 68.425781 C 203.105469 68.675781 203.050781 68.921875 202.976563 69.164063 C 202.902344 69.402344 202.808594 69.640625 202.710938 69.871094 C 202.503906 70.375 202.222656 70.839844 201.882813 71.265625 C 201.507813 71.726563 201.085938 72.136719 200.550781 72.402344 C 200.191406 72.585938 199.816406 72.730469 199.4375 72.859375 C 199.300781 72.90625 199.132813 72.867188 198.976563 72.867188 C 198.941406 72.914063 198.914063 72.945313 198.890625 72.976563 L 197.839844 72.976563 C 197.816406 72.949219 197.789063 72.914063 197.78125 72.898438 C 196.578125 72.839844 195.683594 72.253906 194.925781 71.398438 C 194.503906 70.921875 194.179688 70.378906 193.941406 69.789063 C 193.796875 69.433594 193.695313 69.058594 193.59375 68.683594 C 193.394531 67.957031 193.296875 67.214844 193.34375 66.457031 C 193.363281 66.125 193.441406 65.796875 193.5 65.46875 C 193.523438 65.3125 193.554688 65.15625 193.597656 65.003906 C 193.6875 64.675781 193.796875 64.351563 193.890625 64.023438 C 193.953125 63.804688 194.003906 63.578125 194.0625 63.355469 C 194.121094 63.125 194.1875 62.894531 194.246094 62.664063 C 194.289063 62.492188 194.320313 62.316406 194.375 62.144531 C 194.453125 61.894531 194.53125 61.640625 194.636719 61.398438 C 194.882813 60.847656 195.140625 60.304688 195.394531 59.753906 C 195.613281 59.277344 195.847656 58.804688 196.058594 58.320313 C 196.164063 58.070313 196.242188 57.8125 196.328125 57.554688 C 196.429688 57.265625 196.527344 56.976563 196.621094 56.683594 C 196.710938 56.414063 196.789063 56.140625 196.875 55.867188 C 196.96875 55.570313 197.070313 55.269531 197.164063 54.972656 C 197.222656 54.785156 197.277344 54.601563 197.332031 54.414063 C 197.382813 54.234375 197.433594 54.054688 197.476563 53.875 C 197.515625 53.714844 197.546875 53.554688 197.570313 53.394531 C 197.601563 53.175781 197.609375 52.953125 197.648438 52.734375 C 197.6875 52.511719 197.75 52.285156 197.800781 52.058594 C 197.804688 52.054688 197.808594 52.050781 197.808594 52.046875 C 197.832031 51.816406 197.851563 51.589844 197.886719 51.363281 C 197.914063 51.175781 197.960938 50.988281 198 50.804688" stroke-linecap="round" />
</g>
<g transform="matrix(0 0 0 1.56 22 29.5)" id="CTaqlOiqI8NcBiluXzyrG"  >
<path style="stroke: none; stroke-width: 1; stroke-dasharray: none; stroke-linecap: butt; stroke-dashoffset: 0; stroke-linejoin: miter; stroke-miterlimit: 4; fill: rgb(33,28,30); fill-rule: nonzero; opacity: 1;" vector-effect="non-scaling-stroke"  transform=" translate(-199.39, -68.65)" d="M 199.5 68.332031 C 199.449219 68.546875 199.402344 68.761719 199.351563 68.972656 C 199.335938 68.972656 199.320313 68.96875 199.304688 68.964844 C 199.296875 68.871094 199.285156 68.777344 199.269531 68.636719 C 199.332031 68.554688 199.417969 68.445313 199.503906 68.335938" stroke-linecap="round" />
</g>
<g transform="matrix(0 0 0 0 19 30)" id="9SnJG87DIZlleHMF-YBF7"  >
<path style="stroke: none; stroke-width: 1; stroke-dasharray: none; stroke-linecap: butt; stroke-dashoffset: 0; stroke-linejoin: miter; stroke-miterlimit: 4; fill: rgb(33,28,30); fill-rule: nonzero; opacity: 1;" vector-effect="non-scaling-stroke"  transform=" translate(-196.83, -68.38)" d="M 196.859375 68.304688 L 196.859375 68.449219 C 196.851563 68.453125 196.839844 68.453125 196.828125 68.453125 C 196.820313 68.40625 196.8125 68.359375 196.804688 68.3125 C 196.824219 68.308594 196.84375 68.308594 196.859375 68.304688" stroke-linecap="round" />
</g>
</svg>