<?xml version="1.0" encoding="UTF-8" standalone="no" ?>
<!DOCTYPE svg PUBLIC "-//W3C//DTD SVG 1.1//EN" "http://www.w3.org/Graphics/SVG/1.1/DTD/svg11.dtd">
<svg xmlns="http://www.w3.org/2000/svg" xmlns:xlink="http://www.w3.org/1999/xlink" version="1.1" width="40" height="40" viewBox="0 0 40 40" xml:space="preserve">
<desc>Created with Fabric.js 4.6.0</desc>
<defs>
</defs>
<g transform="matrix(1.32 0 0 1.26 20 16)" id="8j0DwR-uttuscEbTZGyDD"  >
<path style="stroke: none; stroke-width: 1; stroke-dasharray: none; stroke-linecap: butt; stroke-dashoffset: 0; stroke-linejoin: miter; stroke-miterlimit: 4; fill: rgb(33,28,30); fill-rule: nonzero; opacity: 1;" vector-effect="non-scaling-stroke"  transform=" translate(-264.86, -58.34)" d="M 265.921875 59.152344 C 265.410156 59.707031 264.46875 59.785156 263.859375 59.238281 C 263.320313 58.753906 263.253906 57.949219 263.625 57.417969 C 263.976563 57.449219 264.292969 57.585938 264.625 57.691406 C 264.574219 57.878906 264.527344 58.050781 264.488281 58.226563 C 264.476563 58.269531 264.480469 58.328125 264.496094 58.371094 C 264.605469 58.664063 264.722656 58.957031 264.84375 59.269531 C 264.921875 59.074219 264.992188 58.898438 265.0625 58.71875 C 265.074219 58.683594 265.085938 58.648438 265.105469 58.621094 C 265.273438 58.355469 265.179688 58.09375 265.105469 57.832031 C 265.09375 57.789063 265.082031 57.75 265.066406 57.695313 C 265.394531 57.582031 265.714844 57.457031 266.054688 57.414063 C 266.378906 57.8125 266.429688 58.597656 265.921875 59.152344 M 268.960938 57.929688 C 268.761719 57.878906 268.558594 57.847656 268.371094 57.738281 C 268.21875 57.644531 268.144531 57.523438 268.144531 57.347656 L 268.144531 57.183594 C 268.082031 57.183594 268.03125 57.171875 267.988281 57.183594 C 267.742188 57.246094 267.507813 57.171875 267.28125 57.097656 C 266.738281 56.921875 266.285156 56.597656 265.875 56.210938 C 265.820313 56.160156 265.761719 56.113281 265.707031 56.066406 C 265.695313 56.070313 265.6875 56.078125 265.679688 56.082031 C 265.6875 56.125 265.691406 56.164063 265.695313 56.207031 C 265.714844 56.320313 265.675781 56.367188 265.5625 56.363281 C 265.519531 56.359375 265.472656 56.355469 265.433594 56.335938 C 265.230469 56.226563 265 56.15625 264.847656 55.957031 C 264.691406 56.15625 264.460938 56.226563 264.257813 56.335938 C 264.21875 56.355469 264.171875 56.359375 264.128906 56.363281 C 264.015625 56.367188 263.980469 56.324219 263.992188 56.207031 C 264 56.167969 264.003906 56.125 264.015625 56.050781 C 263.960938 56.089844 263.933594 56.105469 263.902344 56.128906 C 263.699219 56.296875 263.492188 56.464844 263.285156 56.636719 C 263.007813 56.867188 262.6875 57.011719 262.347656 57.117188 C 262.175781 57.167969 261.988281 57.179688 261.8125 57.199219 C 261.726563 57.207031 261.640625 57.183594 261.546875 57.175781 C 261.546875 57.261719 261.5625 57.339844 261.539063 57.398438 C 261.507813 57.5 261.472656 57.628906 261.398438 57.679688 C 261.253906 57.773438 261.082031 57.824219 260.921875 57.882813 C 260.847656 57.910156 260.769531 57.921875 260.691406 57.941406 C 260.757813 57.96875 260.820313 57.972656 260.878906 57.992188 C 260.9375 58.011719 261 58.042969 261.058594 58.074219 C 261.664063 58.398438 262.246094 58.761719 262.765625 59.21875 C 263 59.429688 263.28125 59.597656 263.421875 59.902344 C 263.433594 59.925781 263.460938 59.945313 263.480469 59.964844 C 263.851563 59.894531 264.132813 60.035156 264.359375 60.316406 C 264.390625 60.351563 264.441406 60.382813 264.484375 60.390625 C 264.59375 60.40625 264.65625 60.464844 264.695313 60.558594 C 264.714844 60.609375 264.730469 60.664063 264.753906 60.726563 L 264.9375 60.726563 C 264.949219 60.6875 264.964844 60.660156 264.96875 60.632813 C 265.003906 60.492188 265.078125 60.398438 265.234375 60.382813 C 265.273438 60.382813 265.3125 60.34375 265.335938 60.308594 C 265.5625 60.03125 265.84375 59.894531 266.214844 59.964844 C 266.242188 59.933594 266.269531 59.90625 266.285156 59.875 C 266.375 59.699219 266.511719 59.5625 266.664063 59.441406 C 266.863281 59.285156 267.054688 59.117188 267.257813 58.96875 C 267.527344 58.765625 267.800781 58.558594 268.09375 58.390625 C 268.382813 58.222656 268.648438 58 269.019531 57.953125 C 268.984375 57.9375 268.972656 57.933594 268.960938 57.929688" stroke-linecap="round" />
</g>
<g transform="matrix(1.1 0 0 1.3 20 27.5)" id="3nmLCnU-_6_dmBMeNvR79"  >
<path style="stroke: none; stroke-width: 1; stroke-dasharray: none; stroke-linecap: butt; stroke-dashoffset: 0; stroke-linejoin: miter; stroke-miterlimit: 4; fill: rgb(33,28,30); fill-rule: nonzero; opacity: 1;" vector-effect="non-scaling-stroke"  transform=" translate(-264.85, -67.21)" d="M 264.832031 72.976563 C 264.828125 72.953125 264.824219 72.929688 264.824219 72.90625 C 264.808594 72.488281 264.796875 72.070313 264.777344 71.652344 C 264.761719 71.207031 264.734375 70.761719 264.714844 70.316406 C 264.691406 69.882813 264.667969 69.445313 264.648438 69.011719 C 264.625 68.570313 264.601563 68.128906 264.582031 67.6875 C 264.566406 67.351563 264.550781 67.019531 264.535156 66.6875 C 264.515625 66.28125 264.492188 65.875 264.472656 65.472656 C 264.453125 65.1875 264.4375 64.902344 264.429688 64.617188 C 264.414063 64.117188 264.316406 63.628906 264.21875 63.140625 C 264.125 62.671875 264.035156 62.203125 263.945313 61.734375 C 263.941406 61.714844 263.941406 61.691406 263.941406 61.660156 C 264.234375 61.582031 264.523438 61.496094 264.820313 61.4375 C 264.910156 61.417969 265.015625 61.472656 265.113281 61.496094 C 265.320313 61.546875 265.53125 61.605469 265.753906 61.660156 C 265.726563 61.8125 265.699219 61.960938 265.671875 62.109375 C 265.582031 62.582031 265.496094 63.0625 265.394531 63.535156 C 265.292969 63.984375 265.273438 64.4375 265.261719 64.894531 C 265.246094 65.324219 265.21875 65.753906 265.195313 66.1875 C 265.175781 66.636719 265.152344 67.085938 265.128906 67.535156 C 265.109375 67.972656 265.085938 68.410156 265.0625 68.851563 C 265.042969 69.296875 265.019531 69.742188 264.996094 70.1875 C 264.976563 70.617188 264.953125 71.050781 264.933594 71.480469 C 264.910156 71.960938 264.890625 72.445313 264.867188 72.929688 C 264.863281 72.945313 264.859375 72.960938 264.855469 72.980469 C 264.847656 72.980469 264.839844 72.976563 264.832031 72.976563" stroke-linecap="round" />
</g>
<g transform="matrix(1.55 0 0 1.39 20 7.5)" id="NrBd8KF1d8QVZZnA2Tirg"  >
<path style="stroke: none; stroke-width: 1; stroke-dasharray: none; stroke-linecap: butt; stroke-dashoffset: 0; stroke-linejoin: miter; stroke-miterlimit: 4; fill: rgb(33,28,30); fill-rule: nonzero; opacity: 1;" vector-effect="non-scaling-stroke"  transform=" translate(-264.84, -52.06)" d="M 265.488281 55.03125 C 265.265625 55.128906 265.058594 55.21875 264.84375 55.308594 C 264.636719 55.21875 264.425781 55.128906 264.199219 55.03125 C 264.226563 54.871094 264.25 54.710938 264.28125 54.550781 C 264.359375 54.132813 264.4375 53.714844 264.515625 53.292969 C 264.570313 52.988281 264.632813 52.679688 264.675781 52.371094 C 264.703125 52.183594 264.703125 51.992188 264.714844 51.804688 C 264.726563 51.371094 264.742188 50.9375 264.757813 50.507813 C 264.777344 49.957031 264.800781 49.410156 264.824219 48.859375 C 264.824219 48.84375 264.832031 48.828125 264.851563 48.8125 C 264.855469 48.832031 264.863281 48.847656 264.867188 48.867188 C 264.875 49.144531 264.878906 49.425781 264.890625 49.703125 C 264.902344 50.121094 264.917969 50.539063 264.933594 50.953125 C 264.945313 51.21875 264.96875 51.488281 264.976563 51.753906 C 264.992188 52.214844 265.046875 52.667969 265.140625 53.117188 C 265.230469 53.53125 265.296875 53.949219 265.371094 54.367188 C 265.40625 54.542969 265.4375 54.722656 265.46875 54.898438 C 265.476563 54.941406 265.480469 54.984375 265.488281 55.03125" stroke-linecap="round" />
</g>
<g transform="matrix(1.12 0 0 1.42 23 23.5)" id="iDvvG311ZZK8ry8XbmMr-"  >
<path style="stroke: none; stroke-width: 1; stroke-dasharray: none; stroke-linecap: butt; stroke-dashoffset: 0; stroke-linejoin: miter; stroke-miterlimit: 4; fill: rgb(33,28,30); fill-rule: nonzero; opacity: 1;" vector-effect="non-scaling-stroke"  transform=" translate(-266.9, -64.2)" d="M 267.773438 66.671875 C 267.1875 65.191406 266.597656 63.707031 266.003906 62.214844 C 266.308594 62.054688 266.609375 61.898438 266.9375 61.726563 C 266.964844 61.773438 267.011719 61.816406 267.019531 61.863281 C 267.089844 62.292969 267.152344 62.722656 267.222656 63.152344 C 267.300781 63.625 267.382813 64.09375 267.460938 64.566406 C 267.53125 64.996094 267.59375 65.425781 267.664063 65.855469 C 267.703125 66.101563 267.75 66.347656 267.789063 66.59375 C 267.796875 66.617188 267.792969 66.644531 267.792969 66.671875 C 267.789063 66.671875 267.78125 66.671875 267.773438 66.671875" stroke-linecap="round" />
</g>
<g transform="matrix(1.12 0 0 1.41 17 23.5)" id="1ro2aW2yMMeGfWxuY9QSp"  >
<path style="stroke: none; stroke-width: 1; stroke-dasharray: none; stroke-linecap: butt; stroke-dashoffset: 0; stroke-linejoin: miter; stroke-miterlimit: 4; fill: rgb(33,28,30); fill-rule: nonzero; opacity: 1;" vector-effect="non-scaling-stroke"  transform=" translate(-262.79, -64.2)" d="M 262.75 61.726563 C 263.078125 61.898438 263.382813 62.054688 263.6875 62.214844 C 263.09375 63.707031 262.503906 65.191406 261.914063 66.675781 C 261.90625 66.675781 261.898438 66.671875 261.894531 66.671875 C 261.910156 66.550781 261.929688 66.433594 261.945313 66.3125 C 262.003906 65.964844 262.058594 65.621094 262.117188 65.273438 C 262.179688 64.890625 262.246094 64.507813 262.308594 64.128906 C 262.363281 63.792969 262.414063 63.453125 262.46875 63.121094 C 262.523438 62.785156 262.574219 62.453125 262.628906 62.121094 C 262.644531 62.027344 262.660156 61.929688 262.683594 61.832031 C 262.691406 61.796875 262.726563 61.761719 262.75 61.726563" stroke-linecap="round" />
</g>
<g transform="matrix(1.24 0 0 1.21 25.5 21)" id="oNlnMyJgCRatwo5wM0WWE"  >
<path style="stroke: none; stroke-width: 1; stroke-dasharray: none; stroke-linecap: butt; stroke-dashoffset: 0; stroke-linejoin: miter; stroke-miterlimit: 4; fill: rgb(33,28,30); fill-rule: nonzero; opacity: 1;" vector-effect="non-scaling-stroke"  transform=" translate(-268.62, -62.4)" d="M 267.410156 61.277344 C 267.507813 61.101563 267.519531 60.886719 267.699219 60.75 C 267.855469 60.875 268.019531 61 268.179688 61.125 C 268.433594 61.324219 268.695313 61.523438 268.949219 61.726563 C 268.980469 61.753906 269.011719 61.789063 269.027344 61.828125 C 269.289063 62.546875 269.550781 63.265625 269.808594 63.988281 C 269.8125 63.996094 269.8125 64.007813 269.820313 64.042969 C 269.007813 63.109375 268.214844 62.195313 267.410156 61.277344" stroke-linecap="round" />
</g>
<g transform="matrix(1.25 0 0 1.22 14.5 21)" id="y2SqrUDBOGB5_mNq1abo_"  >
<path style="stroke: none; stroke-width: 1; stroke-dasharray: none; stroke-linecap: butt; stroke-dashoffset: 0; stroke-linejoin: miter; stroke-miterlimit: 4; fill: rgb(33,28,30); fill-rule: nonzero; opacity: 1;" vector-effect="non-scaling-stroke"  transform=" translate(-261.07, -62.39)" d="M 261.996094 60.753906 C 262.171875 60.886719 262.183594 61.101563 262.277344 61.277344 C 261.476563 62.195313 260.683594 63.109375 259.886719 64.023438 C 259.882813 64.019531 259.878906 64.019531 259.871094 64.015625 C 259.929688 63.855469 259.988281 63.691406 260.046875 63.53125 C 260.246094 62.972656 260.445313 62.414063 260.652344 61.859375 C 260.683594 61.78125 260.757813 61.714844 260.824219 61.660156 C 261.191406 61.367188 261.5625 61.082031 261.933594 60.792969 C 261.949219 60.777344 261.976563 60.765625 261.996094 60.753906" stroke-linecap="round" />
</g>
<g transform="matrix(1.56 0 0 1.51 15.5 11.5)" id="8XKDdhsdYWw-LYg8PftYU"  >
<path style="stroke: none; stroke-width: 1; stroke-dasharray: none; stroke-linecap: butt; stroke-dashoffset: 0; stroke-linejoin: miter; stroke-miterlimit: 4; fill: rgb(33,28,30); fill-rule: nonzero; opacity: 1;" vector-effect="non-scaling-stroke"  transform=" translate(-262.03, -54.81)" d="M 262.976563 55.800781 C 262.515625 55.742188 262.074219 55.597656 261.632813 55.507813 C 261.4375 54.933594 261.25 54.378906 261.0625 53.824219 C 261.070313 53.820313 261.074219 53.816406 261.078125 53.8125 C 261.714844 54.464844 262.351563 55.117188 262.988281 55.773438 C 262.984375 55.78125 262.980469 55.789063 262.976563 55.800781" stroke-linecap="round" />
</g>
<g transform="matrix(1.56 0 0 1.5 24 11.5)" id="zhCsk1yIr6wzxDnyJNYbq"  >
<path style="stroke: none; stroke-width: 1; stroke-dasharray: none; stroke-linecap: butt; stroke-dashoffset: 0; stroke-linejoin: miter; stroke-miterlimit: 4; fill: rgb(33,28,30); fill-rule: nonzero; opacity: 1;" vector-effect="non-scaling-stroke"  transform=" translate(-267.66, -54.81)" d="M 268.625 53.828125 C 268.441406 54.378906 268.253906 54.929688 268.058594 55.507813 C 267.621094 55.609375 267.171875 55.714844 266.722656 55.816406 C 266.714844 55.804688 266.707031 55.789063 266.699219 55.773438 C 267.335938 55.121094 267.976563 54.464844 268.613281 53.8125 C 268.617188 53.816406 268.621094 53.820313 268.625 53.828125" stroke-linecap="round" />
</g>
</svg>