<?xml version="1.0" encoding="UTF-8" standalone="no" ?>
<!DOCTYPE svg PUBLIC "-//W3C//DTD SVG 1.1//EN" "http://www.w3.org/Graphics/SVG/1.1/DTD/svg11.dtd">
<svg xmlns="http://www.w3.org/2000/svg" xmlns:xlink="http://www.w3.org/1999/xlink" version="1.1" width="40" height="40" viewBox="0 0 40 40" xml:space="preserve">
<desc>Created with Fabric.js 4.6.0</desc>
<defs>
</defs>
<g transform="matrix(0.99 0 0 0.99 20 19.5)" id="Q8PDhs32OQGCBUNq5eGbV"  >
<g style="" vector-effect="non-scaling-stroke"   >
		<g transform="matrix(1.33 0 0 1.33 0 6.12)" id="wNcqbem26uzF9-unXCNuM"  >
<path style="stroke: none; stroke-width: 1; stroke-dasharray: none; stroke-linecap: butt; stroke-dashoffset: 0; stroke-linejoin: miter; stroke-miterlimit: 4; fill: rgb(33,28,30); fill-rule: nonzero; opacity: 1;" vector-effect="non-scaling-stroke"  transform=" translate(-321.92, -65.48)" d="M 325.578125 61.425781 C 325.644531 61.515625 325.699219 61.589844 325.757813 61.671875 C 325.515625 62.300781 325.109375 62.863281 325.007813 63.578125 C 325.550781 63.035156 325.761719 62.34375 326.058594 61.679688 C 325.886719 61.453125 325.972656 61.226563 326.058594 60.988281 C 326.148438 60.75 326.203125 60.496094 326.3125 60.269531 C 326.414063 60.054688 326.5625 59.859375 326.695313 59.65625 C 326.835938 59.4375 326.96875 59.210938 327.128906 59.007813 C 327.265625 58.828125 327.4375 58.679688 327.601563 58.507813 C 327.691406 58.582031 327.761719 58.640625 327.832031 58.703125 C 327.765625 58.878906 327.699219 59.050781 327.636719 59.222656 L 327.675781 59.238281 C 327.988281 58.816406 328.179688 58.300781 328.664063 57.984375 C 328.746094 58.015625 328.84375 58.054688 328.957031 58.097656 C 328.65625 58.710938 328.363281 59.308594 328.070313 59.910156 C 328.085938 59.921875 328.101563 59.933594 328.117188 59.945313 C 328.363281 59.703125 328.613281 59.457031 328.867188 59.207031 C 328.949219 59.230469 329.035156 59.25 329.117188 59.269531 C 329.175781 59.453125 329.160156 59.605469 329.054688 59.765625 C 328.753906 60.203125 328.523438 60.679688 328.359375 61.183594 C 328.015625 62.222656 327.558594 63.210938 327.042969 64.175781 C 326.886719 64.472656 326.738281 64.773438 326.59375 65.078125 C 326.53125 65.214844 326.5 65.367188 326.441406 65.507813 C 326.410156 65.585938 326.363281 65.664063 326.308594 65.734375 C 326.125 65.972656 325.878906 66.109375 325.574219 66.144531 C 325.203125 66.183594 324.914063 66.40625 324.605469 66.582031 C 324.066406 66.886719 323.53125 67.195313 323.050781 67.585938 C 322.894531 67.710938 322.699219 67.777344 322.511719 67.875 C 322.527344 67.914063 322.539063 67.957031 322.550781 67.992188 C 322.449219 68.050781 322.351563 68.101563 322.234375 68.164063 C 322.378906 68.230469 322.488281 68.285156 322.617188 68.347656 C 322.519531 68.519531 322.71875 68.605469 322.761719 68.757813 C 322.683594 68.714844 322.621094 68.679688 322.539063 68.632813 C 322.5 68.742188 322.472656 68.828125 322.441406 68.910156 C 322.335938 69.175781 322.230469 69.441406 322.121094 69.703125 C 322.097656 69.75 322.070313 69.804688 322.027344 69.832031 C 321.710938 70.0625 321.515625 70.378906 321.359375 70.726563 C 321.183594 71.125 321.050781 71.53125 321.019531 71.972656 C 321 72.226563 320.988281 72.46875 321.039063 72.714844 C 321.058594 72.820313 321.007813 72.875 320.929688 72.898438 C 320.710938 72.960938 320.492188 73.03125 320.265625 72.917969 C 319.964844 72.773438 319.660156 72.636719 319.355469 72.496094 C 319.285156 72.464844 319.21875 72.4375 319.125 72.402344 C 319.148438 72.449219 319.160156 72.476563 319.191406 72.542969 C 319.101563 72.527344 319.035156 72.527344 318.980469 72.5 C 318.28125 72.191406 317.585938 71.871094 316.886719 71.5625 C 316.210938 71.257813 315.527344 70.964844 314.847656 70.667969 C 314.792969 70.644531 314.742188 70.617188 314.679688 70.585938 C 314.703125 70.554688 314.722656 70.527344 314.746094 70.5 C 314.972656 70.257813 315.199219 70.007813 315.433594 69.769531 C 315.648438 69.542969 315.738281 69.253906 315.859375 68.984375 C 315.988281 68.699219 316.101563 68.40625 316.234375 68.125 C 316.261719 68.074219 316.335938 68.015625 316.390625 68.011719 C 316.839844 67.976563 317.199219 67.78125 317.464844 67.425781 C 317.585938 67.261719 317.664063 67.066406 317.761719 66.886719 C 317.78125 66.847656 317.804688 66.808594 317.820313 66.78125 C 318.320313 66.914063 318.804688 67.042969 319.238281 67.15625 C 319.46875 67 319.652344 66.882813 319.828125 66.757813 C 319.863281 66.730469 319.894531 66.675781 319.890625 66.636719 C 319.878906 66.476563 319.9375 66.351563 320.035156 66.230469 C 320.136719 66.105469 320.222656 65.972656 320.320313 65.835938 C 320.414063 65.820313 320.503906 65.796875 320.597656 65.789063 C 321.019531 65.765625 321.367188 65.539063 321.738281 65.382813 C 321.972656 65.28125 322.207031 65.179688 322.433594 65.066406 C 322.503906 65.03125 322.570313 64.972656 322.609375 64.90625 C 322.9375 64.332031 323.324219 63.796875 323.722656 63.265625 C 323.921875 63 324.082031 62.710938 324.277344 62.441406 C 324.445313 62.207031 324.632813 61.992188 324.8125 61.769531 C 324.839844 61.738281 324.867188 61.703125 324.902344 61.691406 C 325.121094 61.601563 325.34375 61.519531 325.578125 61.425781" stroke-linecap="round" />
</g>
		<g transform="matrix(1.33 0 0 1.33 0.95 -5.8)" id="-58y1fg3W6DySDNbvWmW9"  >
<path style="stroke: none; stroke-width: 1; stroke-dasharray: none; stroke-linecap: butt; stroke-dashoffset: 0; stroke-linejoin: miter; stroke-miterlimit: 4; fill: rgb(33,28,30); fill-rule: nonzero; opacity: 1;" vector-effect="non-scaling-stroke"  transform=" translate(-322.63, -56.54)" d="M 321.175781 51.984375 L 321.203125 51.957031 C 321.230469 51.941406 321.257813 51.921875 321.28125 51.90625 L 321.285156 51.910156 C 321.257813 51.925781 321.230469 51.941406 321.203125 51.960938 L 321.175781 51.988281 L 321.171875 51.988281 Z M 320.691406 52.445313 C 320.828125 52.191406 321.015625 51.988281 321.277344 51.859375 C 321.421875 51.789063 321.550781 51.683594 321.695313 51.617188 C 322.046875 51.453125 322.421875 51.402344 322.808594 51.398438 C 323.054688 51.398438 323.300781 51.417969 323.542969 51.425781 C 323.570313 51.425781 323.601563 51.425781 323.625 51.4375 C 324.058594 51.65625 324.5 51.863281 324.6875 52.363281 C 324.769531 52.59375 324.859375 52.824219 324.921875 53.058594 C 324.945313 53.164063 324.914063 53.289063 324.902344 53.402344 C 324.871094 53.777344 324.820313 54.148438 324.613281 54.476563 C 324.464844 54.714844 324.316406 54.949219 324.039063 55.054688 C 323.90625 55.109375 323.769531 55.148438 323.613281 55.199219 C 323.601563 55.1875 323.570313 55.164063 323.527344 55.136719 C 322.976563 55.25 322.582031 54.964844 322.25 54.566406 C 322.179688 54.480469 322.152344 54.347656 322.140625 54.230469 C 322.078125 53.796875 322.242188 53.445313 322.582031 53.183594 C 322.652344 53.128906 322.773438 53.125 322.871094 53.105469 C 322.90625 53.097656 322.949219 53.113281 322.988281 53.117188 C 323.285156 53.148438 323.445313 53.480469 323.289063 53.742188 C 323.285156 53.753906 323.269531 53.753906 323.289063 53.746094 C 323.121094 53.664063 322.972656 53.59375 322.820313 53.523438 C 322.6875 53.65625 322.539063 53.730469 322.539063 53.933594 C 322.542969 54.144531 322.554688 54.335938 322.894531 54.390625 C 323.003906 54.359375 323.1875 54.3125 323.367188 54.253906 C 323.546875 54.199219 323.722656 54.136719 323.941406 54.0625 C 324.058594 53.96875 324.105469 53.796875 324.113281 53.613281 C 324.117188 53.476563 324.113281 53.34375 324.113281 53.210938 C 324.113281 52.777344 323.902344 52.519531 323.480469 52.46875 C 323.058594 52.417969 322.632813 52.40625 322.222656 52.503906 C 321.886719 52.589844 321.625 52.800781 321.394531 53.082031 C 321.160156 53.367188 321.203125 53.65625 321.246094 53.964844 C 321.296875 54.351563 321.351563 54.738281 321.554688 55.078125 C 321.671875 55.277344 321.820313 55.457031 322.019531 55.585938 C 322.335938 55.792969 322.648438 56.003906 322.9375 56.238281 C 323.113281 56.375 323.261719 56.550781 323.390625 56.730469 C 323.605469 57.027344 323.730469 57.363281 323.746094 57.726563 C 323.765625 58.027344 323.777344 58.328125 323.773438 58.628906 C 323.769531 58.984375 323.730469 59.34375 323.519531 59.652344 C 323.378906 59.855469 323.207031 60.042969 323.046875 60.234375 C 323.035156 60.25 323.023438 60.261719 323.011719 60.273438 C 322.832031 60.425781 322.796875 60.613281 322.898438 60.824219 C 322.90625 60.84375 322.914063 60.867188 322.925781 60.898438 C 322.898438 60.933594 322.871094 60.972656 322.839844 61.019531 C 322.867188 61.070313 322.902344 61.125 322.9375 61.183594 C 322.910156 61.261719 322.882813 61.34375 322.851563 61.449219 C 322.859375 61.46875 322.878906 61.515625 322.902344 61.5625 C 322.882813 61.597656 322.863281 61.632813 322.839844 61.675781 C 322.589844 61.53125 322.480469 61.292969 322.480469 61.027344 C 322.472656 60.496094 322.566406 59.976563 322.746094 59.472656 C 322.769531 59.421875 322.800781 59.367188 322.839844 59.328125 C 323.0625 59.089844 323.128906 58.792969 323.164063 58.492188 C 323.195313 58.230469 323.203125 57.964844 323.1875 57.703125 C 323.164063 57.382813 322.992188 57.125 322.753906 56.921875 C 322.484375 56.695313 322.207031 56.472656 321.871094 56.34375 C 321.855469 56.339844 321.835938 56.332031 321.824219 56.320313 C 321.621094 56.074219 321.324219 55.976563 321.054688 55.839844 C 320.980469 55.800781 320.898438 55.757813 320.847656 55.695313 C 320.59375 55.371094 320.394531 55.011719 320.355469 54.597656 C 320.320313 54.257813 320.316406 53.917969 320.324219 53.578125 C 320.332031 53.238281 320.402344 52.910156 320.570313 52.613281 C 320.589844 52.582031 320.613281 52.554688 320.636719 52.527344 L 320.632813 52.527344 L 320.664063 52.527344 L 320.660156 52.527344 C 320.671875 52.507813 320.683594 52.492188 320.691406 52.46875 L 320.6875 52.472656 C 320.699219 52.464844 320.710938 52.457031 320.71875 52.449219 L 320.722656 52.449219 C 320.710938 52.449219 320.699219 52.445313 320.6875 52.445313" stroke-linecap="round" />
</g>
		<g transform="matrix(1.33 0 0 1.33 -0.17 4.87)" id="R2kTzzHllowS_6c6phpAP"  >
<path style="stroke: none; stroke-width: 1; stroke-dasharray: none; stroke-linecap: butt; stroke-dashoffset: 0; stroke-linejoin: miter; stroke-miterlimit: 4; fill: rgb(33,28,30); fill-rule: nonzero; opacity: 1;" vector-effect="non-scaling-stroke"  transform=" translate(-321.79, -64.54)" d="M 320.296875 65.605469 C 320.476563 65.3125 320.546875 65 320.800781 64.796875 C 320.882813 64.730469 320.960938 64.65625 321.027344 64.570313 C 321.25 64.292969 321.578125 64.207031 321.886719 64.078125 C 322.324219 63.898438 322.753906 63.703125 323.1875 63.511719 C 323.210938 63.5 323.234375 63.496094 323.285156 63.472656 C 323.128906 63.710938 322.988281 63.921875 322.847656 64.132813 C 322.734375 64.304688 322.617188 64.472656 322.496094 64.640625 C 322.464844 64.6875 322.410156 64.730469 322.359375 64.753906 C 321.898438 64.964844 321.429688 65.148438 321.007813 65.4375 C 320.867188 65.535156 320.660156 65.53125 320.480469 65.574219 C 320.4375 65.585938 320.386719 65.589844 320.296875 65.605469" stroke-linecap="round" />
</g>
		<g transform="matrix(1.33 0 0 1.33 1.06 -15.56)" id="OiIl_hCpwWfUmkHTC-nX5"  >
<path style="stroke: none; stroke-width: 1; stroke-dasharray: none; stroke-linecap: butt; stroke-dashoffset: 0; stroke-linejoin: miter; stroke-miterlimit: 4; fill: rgb(33,28,30); fill-rule: nonzero; opacity: 1;" vector-effect="non-scaling-stroke"  transform=" translate(-322.71, -49.21)" d="M 322.644531 48.8125 C 322.664063 48.8125 322.675781 48.8125 322.6875 48.8125 C 322.710938 48.816406 322.730469 48.820313 322.769531 48.828125 C 322.859375 49.078125 322.855469 49.332031 322.78125 49.59375 C 322.730469 49.605469 322.6875 49.609375 322.652344 49.617188 C 322.554688 49.464844 322.550781 49.023438 322.644531 48.8125" stroke-linecap="round" />
</g>
		<g transform="matrix(1.33 0 0 1.33 -2.3 -14.67)" id="ruPwTFJiYdh-LVwTG5Y4L"  >
<path style="stroke: none; stroke-width: 1; stroke-dasharray: none; stroke-linecap: butt; stroke-dashoffset: 0; stroke-linejoin: miter; stroke-miterlimit: 4; fill: rgb(33,28,30); fill-rule: nonzero; opacity: 1;" vector-effect="non-scaling-stroke"  transform=" translate(-320.19, -49.89)" d="M 320.039063 49.628906 C 320.285156 49.714844 320.425781 49.984375 320.3125 50.144531 C 320.097656 50.003906 319.984375 49.792969 320.039063 49.628906" stroke-linecap="round" />
</g>
		<g transform="matrix(1.33 0 0 1.33 -4.14 -11.76)" id="Df_z5qzMYwtQ-QpVVnNRP"  >
<path style="stroke: none; stroke-width: 1; stroke-dasharray: none; stroke-linecap: butt; stroke-dashoffset: 0; stroke-linejoin: miter; stroke-miterlimit: 4; fill: rgb(33,28,30); fill-rule: nonzero; opacity: 1;" vector-effect="non-scaling-stroke"  transform=" translate(-318.81, -52.07)" d="M 318.671875 51.847656 C 318.777344 51.9375 318.890625 52.015625 318.980469 52.113281 C 319.011719 52.148438 318.992188 52.226563 319 52.292969 C 318.679688 52.230469 318.539063 52.039063 318.671875 51.847656" stroke-linecap="round" />
</g>
		<g transform="matrix(1.33 0 0 1.33 4.41 -14.78)" id="BXB4v1WeJOlpzcqx9z9bw"  >
<path style="stroke: none; stroke-width: 1; stroke-dasharray: none; stroke-linecap: butt; stroke-dashoffset: 0; stroke-linejoin: miter; stroke-miterlimit: 4; fill: rgb(33,28,30); fill-rule: nonzero; opacity: 1;" vector-effect="non-scaling-stroke"  transform=" translate(-325.22, -49.8)" d="M 325.097656 50.042969 C 325.0625 49.828125 325.132813 49.660156 325.332031 49.558594 C 325.339844 49.652344 325.375 49.742188 325.347656 49.8125 C 325.308594 49.917969 325.253906 50.046875 325.097656 50.042969" stroke-linecap="round" />
</g>
		<g transform="matrix(1.33 0 0 1.33 6.14 -12.38)" id="VtJubabha4_6ZHRKH0ZWl"  >
<path style="stroke: none; stroke-width: 1; stroke-dasharray: none; stroke-linecap: butt; stroke-dashoffset: 0; stroke-linejoin: miter; stroke-miterlimit: 4; fill: rgb(33,28,30); fill-rule: nonzero; opacity: 1;" vector-effect="non-scaling-stroke"  transform=" translate(-326.52, -51.6)" d="M 326.671875 51.464844 C 326.742188 51.640625 326.617188 51.746094 326.367188 51.734375 C 326.316406 51.550781 326.425781 51.453125 326.671875 51.464844" stroke-linecap="round" />
</g>
		<g transform="matrix(1.33 0 0 1.33 -1.69 -11.19)" id="NRLzdZFrqZC2gJYTLiRbP"  >
<path style="stroke: none; stroke-width: 1; stroke-dasharray: none; stroke-linecap: butt; stroke-dashoffset: 0; stroke-linejoin: miter; stroke-miterlimit: 4; fill: rgb(33,28,30); fill-rule: nonzero; opacity: 1;" vector-effect="non-scaling-stroke"  transform=" translate(-320.65, -52.5)" d="M 320.636719 52.527344 C 320.644531 52.507813 320.65625 52.492188 320.664063 52.472656 L 320.660156 52.46875 C 320.660156 52.492188 320.660156 52.507813 320.660156 52.527344 L 320.664063 52.527344 L 320.632813 52.527344" stroke-linecap="round" />
</g>
		<g transform="matrix(1.33 0 0 1.33 -1.65 -11.24)" id="o3PvZKP9pzesSRoq4qzHu"  >
<path style="stroke: none; stroke-width: 1; stroke-dasharray: none; stroke-linecap: butt; stroke-dashoffset: 0; stroke-linejoin: miter; stroke-miterlimit: 4; fill: rgb(33,28,30); fill-rule: nonzero; opacity: 1;" vector-effect="non-scaling-stroke"  transform=" translate(-320.68, -52.46)" d="M 320.664063 52.472656 C 320.671875 52.464844 320.683594 52.453125 320.691406 52.445313 L 320.6875 52.445313 L 320.6875 52.472656 L 320.691406 52.472656 L 320.660156 52.472656" stroke-linecap="round" />
</g>
</g>
</g>
</svg>